<?xml version="1.0" encoding="utf-8"?>
<!-- Generator: Adobe Illustrator 27.7.0, SVG Export Plug-In . SVG Version: 6.00 Build 0)  -->
<svg version="1.1" id="Layer_1" xmlns="http://www.w3.org/2000/svg" xmlns:xlink="http://www.w3.org/1999/xlink" x="0px" y="0px"
	 viewBox="0 0 1920 1233" style="enable-background:new 0 0 1920 1233;" xml:space="preserve">
<style type="text/css">
	.st0{opacity:0.25;}
	.st1{clip-path:url(#SVGID_00000011032507672018319030000011130674660233688224_);}
	.st2{fill:none;stroke:#000000;}
	.st3{fill:url(#Rectangle_1891_00000016791396335167290590000001603980741744277641_);}
</style>
<g id="Group_619" class="st0">
	<g>
		<g>
			<g>
				<defs>
					<rect id="SVGID_1_" width="1920" height="1233"/>
				</defs>
				<clipPath id="SVGID_00000042702372157211813830000000180734699370625446_">
					<use xlink:href="#SVGID_1_"  style="overflow:visible;"/>
				</clipPath>
				<g id="Mask_Group_7" style="clip-path:url(#SVGID_00000042702372157211813830000000180734699370625446_);">
					<g id="Group_618" transform="translate(-541.644 -476.939)">
						<path id="Path_5808" class="st2" d="M3114.5,35.1c-52-42-123.8-42.5-185.5-21.5s-116.5,60.5-173.2,94.4
							c-80.4,48.2-166.4,86.1-240.2,145.7s-136.2,147.1-142.1,248c-4.9,84.7,30.2,167.8,23.9,252.3c-5.1,68.3-37.2,131.1-77.3,183.5
							c-184.1,240.5-516,278.9-716.9,502.4c-118.7,132.1-178.1,313.9-234.1,489.6c-31.3,98.3-62.7,196.6-94,294.9
							c-2,6.3,4.5,12.2,4.4,18.8s-11.1-1.6-5.2-0.4"/>
						<path id="Path_5809" class="st2" d="M3098.5,35.2c-51.8-41.5-123.1-41.7-184.4-20.7s-115.8,60.4-172.2,94.3
							c-80,48-165.5,85.9-239.1,145.3c-38.7,31.3-74.3,70.2-100.2,114.7c-23.3,40-38.8,84.5-41.6,131.9
							c-5.1,84.1,29.4,166.7,22.8,250.7c-5.3,67.9-37.4,130.3-77.4,182.4c-31,40.3-66.1,75-104.1,105.8
							c-187.1,151.7-443.1,209.8-609.2,395.1c-62.3,69.6-108.2,153-145.9,241.9c-33.8,79.8-61.1,164.1-87.6,247
							c-31.4,98.1-62.9,196.2-94.4,294.2c-2,6.2,4.5,12.2,4.3,18.8s-11-1.5-5.2-0.3"/>
						<path id="Path_5810" class="st2" d="M3082.5,35.4c-51.5-41-122.4-40.9-183.3-19.9c-60.9,21-115.2,60.3-171.3,94.1
							c-79.6,47.9-164.7,85.8-237.9,144.8c-38.6,31.1-74,69.9-99.9,114.1c-23.3,39.8-38.7,84-41.8,131.1
							c-5.4,83.6,28.6,165.7,21.8,249.1c-5.5,67.5-37.5,129.5-77.4,181.2c-30.9,40.1-65.9,74.6-103.7,105.3
							c-186.2,151-440.8,209.4-605.9,394.1c-62,69.6-107.7,152.9-145.3,241.7c-33.8,79.7-61.1,163.9-87.6,246.6
							c-31.5,98-63.1,195.8-94.8,293.4c-2,6.2,4.4,12.1,4.2,18.7c-0.2,6.6-11-1.5-5.2-0.3"/>
						<path id="Path_5811" class="st2" d="M3066.5,35.5c-51.2-40.4-121.6-40.2-182.2-19.1c-60.6,21.1-114.5,60.2-170.4,94
							c-79.2,47.8-163.8,85.6-236.7,144.4c-38.4,31-73.7,69.6-99.5,113.5c-23.2,39.5-38.7,83.5-41.9,130.4
							c-5.6,83.1,27.8,164.6,20.7,247.5c-5.7,67-37.7,128.7-77.5,180.1c-30.8,39.9-65.7,74.2-103.4,104.7
							c-185.4,150.2-438.5,208.9-602.7,393.1c-61.8,69.6-107.2,152.8-144.8,241.5c-33.7,79.7-61,163.6-87.6,246.2
							c-31.6,97.8-63.4,195.3-95.3,292.7c-2,6.2,4.2,12.1,4,18.7c-0.2,6.6-10.9-1.4-5.2-0.2"/>
						<path id="Path_5812" class="st2" d="M3050.5,35.7c-50.9-39.9-120.9-39.4-181.1-18.4c-60.2,21.1-113.9,60.2-169.4,93.8
							c-78.8,47.7-163,85.4-235.6,144c-38.3,30.9-73.5,69.2-99.2,113c-23.2,39.3-38.7,83-42,129.6c-5.9,82.6,27,163.5,19.7,245.9
							c-5.9,66.6-37.9,127.8-77.5,179c-30.7,39.7-65.5,73.8-103,104.2c-184.5,149.5-436.2,208.5-599.5,392.1
							c-61.5,69.6-106.8,152.8-144.2,241.3c-33.6,79.6-60.9,163.4-87.6,245.7c-31.7,97.6-63.6,194.9-95.7,291.9
							c-2,6.2,4.1,12.1,3.9,18.6c-0.2,6.6-10.9-1.4-5.2-0.2"/>
						<path id="Path_5813" class="st2" d="M3034.4,35.8c-50.6-39.3-120.2-38.7-180-17.6c-59.9,21.2-113.3,60.1-168.5,93.6
							c-78.4,47.6-162.2,85.3-234.4,143.6c-38.1,30.8-73.2,68.9-98.9,112.4c-23.1,39.1-38.7,82.5-42.1,128.8
							c-6.1,82,26.2,162.5,18.6,244.3c-6.1,66.2-38,127-77.6,177.9c-30.6,39.4-65.3,73.4-102.6,103.6
							c-183.7,148.8-433.9,208-596.2,391.1c-61.2,69.6-106.3,152.7-143.6,241.1c-33.6,79.5-60.9,163.2-87.7,245.3
							c-31.8,97.4-63.8,194.5-96.1,291.2c-2.1,6.2,4,12,3.8,18.5s-10.8-1.3-5.2-0.1"/>
						<path id="Path_5814" class="st2" d="M3018.4,35.9C2968.1-2.8,2899-2,2839.5,19.1c-59.5,21.2-112.6,60-167.6,93.5
							c-78,47.5-161.3,85.1-233.2,143.2c-37.9,30.6-72.9,68.6-98.5,111.8c-23.1,38.9-38.7,82-42.3,128
							c-6.4,81.5,25.4,161.4,17.6,242.7c-6.3,65.7-38.2,126.2-77.6,176.8c-30.5,39.2-65,73-102.3,103.1
							c-182.9,148-432,207.2-593,390.1c-61.1,69.4-105.8,152.7-143.1,240.9c-33.5,79.4-60.8,162.9-87.7,244.8
							c-31.9,97.3-64.1,194.1-96.5,290.4c-2.1,6.1,3.9,12,3.7,18.5s-10.8-1.3-5.2-0.1"/>
						<path id="Path_5815" class="st2" d="M3002.4,36c-50-38.2-118.7-37.2-177.8-16c-59.2,21.2-112,60-166.6,93.3
							c-77.6,47.4-160.5,85-232,142.8c-37.8,30.5-72.6,68.3-98.2,111.2c-23.1,38.6-38.7,81.5-42.4,127.2
							c-6.6,81,24.6,160.4,16.5,241.1c-6.4,65.3-38.3,125.3-77.7,175.7c-30.4,39-64.8,72.5-101.9,102.5
							c-182,147.3-429.7,206.7-589.7,389.2c-60.9,69.4-105.4,152.6-142.5,240.7c-33.4,79.3-60.8,162.7-87.7,244.4
							c-32,97.1-64.3,193.6-97,289.7c-2.1,6.1,3.8,11.9,3.5,18.4s-10.7-1.2-5.3,0"/>
						<path id="Path_5816" class="st2" d="M2986.4,36.2c-49.7-37.7-118-36.4-176.8-15.2c-58.8,21.3-111.4,59.9-165.7,93.1
							c-77.2,47.3-159.7,84.8-230.9,142.3c-37.6,30.4-72.3,67.9-97.9,110.7c-23,38.4-38.7,81-42.5,126.4
							c-6.8,80.5,23.7,159.3,15.5,239.5c-6.6,64.8-38.5,124.5-77.8,174.5c-30.4,38.7-64.6,72.1-101.6,102
							c-181.2,146.6-427.5,206.2-586.5,388.2c-60.6,69.4-104.9,152.5-142,240.5c-33.4,79.2-60.7,162.4-87.7,244
							c-32.1,96.9-64.6,193.2-97.4,288.9c-2.1,6.1,3.7,11.9,3.4,18.4s-10.7-1.2-5.3,0"/>
						<path id="Path_5817" class="st2" d="M2970.3,36.3c-49.4-37.1-117.2-35.6-175.6-14.4c-58.5,21.3-110.7,59.8-164.8,93
							c-76.7,47.2-158.8,84.6-229.7,141.9c-37.5,30.3-72,67.6-97.5,110.1c-23,38.2-38.7,80.5-42.6,125.6
							c-7.1,79.9,22.9,158.2,14.5,237.9c-6.8,64.4-38.6,123.7-77.8,173.4c-30.3,38.5-64.4,71.7-101.2,101.5
							c-180.3,145.9-425.2,205.7-583.2,387.2c-60.4,69.4-104.5,152.5-141.4,240.3c-33.3,79.1-60.7,162.2-87.7,243.5
							c-32.2,96.8-64.8,192.8-97.8,288.2c-2.1,6.1,3.6,11.9,3.3,18.3c-0.3,6.4-10.6-1.2-5.3,0.1"/>
						<path id="Path_5818" class="st2" d="M2954.3,36.4c-49.1-36.6-116.5-34.9-174.5-13.6c-58.2,21.4-110.1,59.7-163.8,92.8
							c-76.3,47.1-158,84.5-228.5,141.5c-37.3,30.1-71.7,67.3-97.2,109.5c-23,38-38.7,80-42.8,124.8
							c-7.3,79.4,22.1,157.2,13.4,236.3c-7,64-38.8,122.9-77.9,172.3c-30.2,38.3-64.2,71.3-100.8,100.9
							c-179.5,145.1-423,205.2-580,386.2c-60.1,69.3-104,152.4-140.8,240.1c-33.2,79-60.6,161.9-87.7,243.1
							c-32.3,96.6-65,192.4-98.3,287.4c-2.1,6.1,3.5,11.8,3.2,18.2c-0.4,6.4-10.5-1.1-5.3,0.2"/>
						<path id="Path_5819" class="st2" d="M2938.3,36.6c-48.8-36-115.7-34.1-173.5-12.8c-57.8,21.4-109.5,59.6-162.9,92.7
							c-75.9,47-157.1,84.3-227.4,141.1c-37.1,30-71.4,67-96.9,108.9c-22.9,37.8-38.7,79.5-42.9,124
							c-7.6,78.9,21.3,156.1,12.4,234.7c-7.2,63.5-38.9,122-77.9,171.2c-30.1,38-64,70.9-100.5,100.4
							c-178.6,144.4-420.7,204.7-576.8,385.2c-59.9,69.3-103.5,152.3-140.3,239.9c-33.1,78.9-60.6,161.7-87.7,242.7
							c-32.4,96.4-65.3,192-98.7,286.7c-2.1,6,3.4,11.8,3.1,18.2c-0.4,6.4-10.5-1.1-5.3,0.2"/>
						<path id="Path_5820" class="st2" d="M2922.3,36.7c-48.5-35.5-115-33.4-172.4-12c-57.5,21.5-108.8,59.6-162,92.5
							c-75.5,46.9-156.3,84.2-226.2,140.7c-37,29.9-71.2,66.7-96.5,108.4c-22.9,37.5-38.7,79.1-43,123.2
							c-7.8,78.4,20.5,155.1,11.3,233.1c-7.4,63.1-39.1,121.2-78,170.1c-30,37.8-63.8,70.5-100.1,99.8
							c-177.8,143.7-418.5,204.2-573.5,384.2c-59.7,69.3-103.1,152.3-139.7,239.7c-33.1,78.9-60.5,161.4-87.7,242.2
							c-32.5,96.2-65.5,191.5-99.1,285.9c-2.2,6,3.3,11.8,2.9,18.1c-0.4,6.4-10.4-1-5.3,0.3"/>
						<path id="Path_5821" class="st2" d="M2906.3,36.8C2858,1.9,2792,4.2,2735,25.6c-57.1,21.5-108.2,59.5-161,92.3
							c-75.1,46.8-155.5,84-225.1,140.3c-36.8,29.8-70.9,66.3-96.2,107.8c-22.8,37.3-38.7,78.6-43.1,122.4
							c-8.1,77.8,19.7,154,10.3,231.5c-7.6,62.6-39.3,120.4-78.1,168.9c-29.9,37.6-63.6,70.1-99.7,99.3
							c-177,143-416.2,203.7-570.3,383.2c-59.4,69.3-102.6,152.2-139.2,239.5c-33,78.8-60.5,161.2-87.7,241.8
							c-32.6,96.1-65.7,191.1-99.5,285.2c-2.2,6,3.2,11.7,2.8,18.1s-10.4-1-5.3,0.3"/>
						<path id="Path_5822" class="st2" d="M2890.2,37c-48-34.4-113.5-31.8-170.2-10.5c-56.8,21.5-107.6,59.4-160.1,92.2
							c-74.7,46.7-154.6,83.8-223.9,139.8c-36.7,29.6-70.6,66-95.8,107.2c-22.8,37.1-38.6,78.1-43.2,121.6
							c-8.3,77.3,18.9,152.9,9.2,229.9c-7.7,62.2-39.4,119.5-78.1,167.8c-29.8,37.3-63.4,69.7-99.4,98.8
							c-176.1,142.2-414,203.3-567,382.3c-59.2,69.2-102.1,152.1-138.6,239.3c-32.9,78.7-60.4,160.9-87.7,241.3
							c-32.7,95.9-66,190.7-100,284.4c-2.2,6,3.1,11.7,2.7,18s-10.3-0.9-5.3,0.4"/>
						<path id="Path_5823" class="st2" d="M2874.2,37.1c-47.7-33.8-112.8-31.1-169.1-9.7c-56.4,21.6-106.9,59.3-159.2,92
							c-74.3,46.6-153.8,83.7-222.7,139.4c-36.5,29.5-70.3,65.7-95.5,106.6c-22.8,36.9-38.6,77.6-43.4,120.8
							c-8.6,76.8,18.1,151.9,8.2,228.3c-7.9,61.8-39.6,118.7-78.2,166.7c-29.7,37.1-63.1,69.3-99,98.2
							c-175.3,141.5-411.7,202.8-563.8,381.3c-58.9,69.2-101.7,152.1-138,239.1c-32.8,78.6-60.4,160.7-87.7,240.9
							c-32.7,95.7-66.2,190.3-100.4,283.7c-2.2,6,3,11.6,2.6,17.9c-0.5,6.3-10.3-0.9-5.4,0.4"/>
						<path id="Path_5824" class="st2" d="M2858.2,37.2c-47.4-33.3-112-30.3-168-8.9c-56.1,21.6-106.3,59.3-158.3,91.9
							c-73.9,46.5-152.9,83.5-221.6,139c-36.4,29.4-70,65.4-95.2,106c-22.7,36.6-38.6,77.1-43.5,120c-8.8,76.2,17.3,150.8,7.1,226.7
							c-8.1,61.3-39.7,117.9-78.2,165.6c-29.6,36.9-62.9,68.9-98.7,97.7c-174.4,140.8-409.5,202.3-560.5,380.3
							c-58.7,69.2-101.2,152-137.5,238.8c-32.8,78.5-60.3,160.4-87.7,240.5c-32.8,95.5-66.5,189.8-100.8,282.9
							c-2.2,5.9,2.9,11.6,2.4,17.9c-0.5,6.3-10.2-0.8-5.4,0.5"/>
						<path id="Path_5825" class="st2" d="M2842.2,37.4c-47.1-32.7-111.3-29.5-166.9-8.1C2619.6,51,2569.7,88.5,2518,121
							c-73.5,46.4-152.1,83.4-220.4,138.6c-36.2,29.3-69.7,65-94.8,105.5c-22.7,36.4-38.6,76.6-43.6,119.3
							c-9,75.7,16.5,149.8,6.1,225.1c-8.3,60.9-39.9,117.1-78.3,164.5c-29.6,36.6-62.7,68.5-98.3,97.1
							c-173.6,140.1-407.2,201.8-557.3,379.3c-58.4,69.1-100.7,151.9-136.9,238.6c-32.7,78.4-60.3,160.2-87.7,240
							c-32.9,95.4-66.7,189.4-101.3,282.2c-2.2,5.9,2.8,11.6,2.3,17.8s-10.2-0.8-5.4,0.5"/>
						<path id="Path_5826" class="st2" d="M2826.2,37.5c-46.8-32.2-110.6-28.8-165.8-7.3c-55.4,21.7-105,59.1-156.4,91.5
							c-73.1,46.3-151.3,83.2-219.2,138.2c-36,29.1-69.4,64.7-94.5,104.9c-22.7,36.2-38.6,76.1-43.7,118.5
							c-9.3,75.2,15.7,148.7,5.1,223.5c-8.5,60.4-40,116.2-78.3,163.4c-29.5,36.4-62.5,68-97.9,96.6
							c-172.8,139.3-405,201.3-554,378.3c-58.2,69.1-100.3,151.9-136.4,238.4c-32.6,78.3-60.2,159.9-87.7,239.6
							c-33,95.2-66.9,189-101.7,281.4c-2.2,5.9,2.7,11.5,2.2,17.8c-0.5,6.2-10.1-0.7-5.4,0.6"/>
						<path id="Path_5827" class="st2" d="M2810.1,37.6c-46.5-31.6-109.8-28-164.7-6.5c-55,21.7-104.4,59-155.5,91.4
							c-72.7,46.2-150.4,83.1-218,137.8c-35.9,29-69.1,64.4-94.2,104.3c-22.6,36-38.6,75.6-43.9,117.7c-9.5,74.7,14.8,147.6,4,221.9
							c-8.7,60-40.2,115.4-78.4,162.2c-29.4,36.2-62.3,67.6-97.6,96.1c-171.9,138.6-402.7,200.8-550.8,377.3
							c-58,69.1-99.8,151.8-135.8,238.2c-32.6,78.2-60.2,159.7-87.7,239.2c-33.1,95-67.2,188.6-102.1,280.7
							c-2.3,5.9,2.6,11.5,2.1,17.7s-10.1-0.7-5.4,0.6"/>
						<path id="Path_5828" class="st2" d="M2794.1,37.8C2747.9,6.7,2685,10.5,2630.5,32c-54.7,21.8-103.7,59-154.5,91.2
							c-72.3,46-149.6,82.9-216.9,137.3c-35.7,28.9-68.8,64.1-93.8,103.8c-22.6,35.8-38.6,75.1-44,116.9c-9.8,74.2,14,146.6,3,220.3
							c-8.8,59.6-40.3,114.6-78.5,161.1c-29.3,35.9-62.1,67.2-97.2,95.5c-171.1,137.9-400.5,200.3-547.5,376.4
							c-57.7,69.1-99.3,151.7-135.2,238c-32.5,78.1-60.1,159.4-87.7,238.7c-33.2,94.8-67.4,188.1-102.5,279.9
							c-2.3,5.9,2.5,11.5,1.9,17.6s-10-0.6-5.4,0.7"/>
						<path id="Path_5829" class="st2" d="M2778.1,37.9c-45.9-30.5-108.3-26.5-162.5-4.9c-54.3,21.8-103.1,58.9-153.6,91
							c-71.9,45.9-148.7,82.7-215.7,136.9c-35.6,28.8-68.6,63.8-93.5,103.2c-22.6,35.5-38.6,74.6-44.1,116.1
							c-10,73.6,13.2,145.5,1.9,218.7c-9,59.1-40.5,113.7-78.5,160c-29.2,35.7-61.9,66.8-96.8,95
							c-170.2,137.2-398.2,199.8-544.3,375.4c-57.5,69.1-98.9,151.7-134.7,237.8c-32.4,78.1-60,159.2-87.7,238.3
							c-33.3,94.7-67.6,187.7-103,279.2c-2.3,5.9,2.4,11.4,1.8,17.6s-10-0.6-5.4,0.8"/>
						<path id="Path_5830" class="st2" d="M2762.1,38c-45.6-30-107.6-25.7-161.4-4.1c-54,21.9-102.5,58.8-152.7,90.9
							c-71.5,45.8-147.9,82.6-214.5,136.5c-35.4,28.6-68.3,63.4-93.1,102.6c-22.5,35.3-38.6,74.1-44.2,115.3
							c-10.2,73.1,12.4,144.5,0.9,217.1c-9.2,58.7-40.7,112.9-78.6,158.9c-29.1,35.5-61.6,66.4-96.5,94.4
							c-169.5,136.4-396,199.3-541.1,374.4c-57.2,69-98.4,151.6-134.1,237.6c-32.3,78-60,159-87.7,237.9
							c-33.4,94.5-67.9,187.3-103.4,278.4c-2.3,5.8,2.3,11.4,1.7,17.5c-0.6,6.1-9.9-0.6-5.4,0.8"/>
						<path id="Path_5831" class="st2" d="M2746,38.1c-45.3-29.4-106.9-25-160.3-3.3c-53.6,21.9-101.8,58.7-151.7,90.7
							c-71.1,45.7-147.1,82.4-213.4,136.1c-35.2,28.5-68,63.1-92.8,102c-22.5,35.1-38.6,73.6-44.4,114.5
							c-10.5,72.6,11.6,143.4-0.2,215.5c-9.4,58.3-40.8,112.1-78.6,157.8c-29,35.2-61.4,66-96.1,93.9
							c-168.5,135.7-393.7,198.9-537.8,373.4c-57,69-97.9,151.5-133.6,237.4c-32.3,77.9-59.9,158.7-87.7,237.4
							c-33.5,94.3-68.1,186.9-103.8,277.6c-2.3,5.8,2.2,11.3,1.6,17.5s-9.9-0.5-5.4,0.9"/>
						<path id="Path_5832" class="st2" d="M2730,38.3c-45-28.9-106.1-24.2-159.2-2.6c-53.3,21.9-101.2,58.7-150.8,90.6
							c-70.7,45.6-146.2,82.3-212.2,135.7c-35.1,28.4-67.7,62.8-92.5,101.5c-22.4,34.9-38.6,73.1-44.5,113.7
							c-10.7,72.1,10.8,142.3-1.2,213.9c-9.6,57.8-41,111.3-78.7,156.7c-28.9,35-61.2,65.6-95.7,93.3
							c-167.7,135-391.4,198.4-534.6,372.4c-56.7,69-97.5,151.5-133,237.2c-32.2,77.8-59.9,158.5-87.7,237
							c-33.6,94.2-68.4,186.5-104.2,276.9c-2.3,5.8,2.1,11.3,1.4,17.4c-0.7,5.8-9.8-0.5-5.4,0.9"/>
						<path id="Path_5833" class="st2" d="M2714,38.4c-44.7-28.3-105.4-23.5-158.1-1.8c-52.9,22-100.6,58.6-149.9,90.4
							c-70.3,45.5-145.4,82.1-211.1,135.3c-34.9,28.3-67.4,62.5-92.1,100.9c-22.4,34.6-38.6,72.6-44.6,112.9
							c-11,71.5,10,141.3-2.2,212.4c-9.8,57.4-41.1,110.4-78.7,155.5c-28.8,34.8-61,65.2-95.4,92.8
							c-166.9,134.2-389.2,197.9-531.3,371.4c-56.5,69-97,151.4-132.4,237c-32.1,77.7-59.8,158.2-87.7,236.6
							c-33.7,94-68.5,186.3-104.7,276.2c-2.3,5.8,2,11.3,1.3,17.3c-0.7,5.7-9.8-0.4-5.5,1"/>
						<path id="Path_5834" class="st2" d="M2698,38.5c-44.4-27.8-104.7-22.7-157-1c-52.6,22-99.9,58.5-148.9,90.2
							c-69.9,45.4-144.5,82-209.9,134.8c-34.8,28.1-67.1,62.1-91.8,100.3c-22.4,34.4-38.6,72.2-44.7,112.1
							c-11.2,71,9.2,140.2-3.3,210.8c-10,57-41.3,109.6-78.8,154.4c-28.8,34.5-60.8,64.8-95,92.3
							c-166,133.5-386.9,197.4-528.1,370.4c-56.3,68.9-96.5,151.3-131.9,236.8c-32.1,77.6-59.8,158-87.7,236.1
							c-33.8,93.8-68.7,185.9-105.1,275.4c-2.3,5.8,1.9,11.2,1.2,17.3c-0.7,5.7-9.7-0.4-5.5,1"/>
						<path id="Path_5835" class="st2" d="M2682,38.7c-44.1-27.2-103.9-21.9-155.9-0.2c-52.2,22.1-99.3,58.4-148,90.1
							c-69.5,45.3-143.7,81.8-208.7,134.4c-34.6,28-66.8,61.8-91.5,99.7c-22.3,34.2-38.6,71.7-44.8,111.3
							c-11.5,70.5,8.4,139.2-4.3,209.2c-10.1,56.5-41.4,108.8-78.8,153.3c-28.7,34.3-60.6,64.4-94.7,91.7
							c-165.2,132.8-384.6,196.9-524.8,369.5c-56,68.9-96.1,151.3-131.3,236.6c-32,77.5-59.7,157.7-87.7,235.7
							c-33.9,93.6-69,185.5-105.5,274.6c-2.4,5.7,1.8,11.2,1.1,17.2c-0.7,5.7-9.7-0.3-5.5,1.1"/>
						<path id="Path_5836" class="st2" d="M2665.9,38.8c-43.8-26.7-103.2-21.2-154.8,0.6c-51.9,22.1-98.7,58.4-147.1,89.9
							c-69.1,45.2-142.9,81.6-207.5,134c-34.5,27.9-66.5,61.5-91.1,99.1c-22.3,34-38.5,71.2-45,110.5c-11.6,70,7.6,138.1-5.4,207.6
							c-10.3,56.1-41.6,107.9-78.9,152.2c-28.6,34.1-60.4,64-94.3,91.2c-164.3,132.1-382.4,196.5-521.6,368.5
							c-55.8,68.9-95.6,151.2-130.8,236.4c-31.9,77.4-59.7,157.5-87.7,235.2c-34,93.5-69.2,185-106,273.9
							c-2.4,5.7,1.7,11.1,0.9,17.2c-0.7,5.6-9.6-0.3-5.5,1.1"/>
						<path id="Path_5837" class="st2" d="M2649.9,38.9c-43.5-26.1-102.5-20.5-153.7,1.4c-51.6,22.1-98,58.3-146.1,89.8
							c-68.7,45.1-142,81.5-206.4,133.6c-34.3,27.8-66.2,61.2-90.8,98.6c-22.3,33.7-38.5,70.7-45.1,109.7
							c-11.8,69.4,6.8,137-6.4,206c-10.5,55.6-41.7,107.1-79,151.1c-28.5,33.9-60.2,63.5-93.9,90.6
							c-163.5,131.3-380.1,196-518.3,367.5c-55.5,68.9-95.1,151.1-130.2,236.2c-31.8,77.3-59.6,157.2-87.7,234.8
							c-34.1,93.3-69.5,184.6-106.4,273.1c-2.4,5.7,1.6,11.1,0.8,17.1c-0.8,5.6-9.5-0.2-5.5,1.2"/>
						<path id="Path_5838" class="st2" d="M2633.9,39.1c-43.2-25.6-101.7-19.8-152.6,2.2c-51.2,22.1-97.4,58.2-145.2,89.6
							c-68.2,45-141.2,81.3-205.2,133.2c-34.1,27.6-66,60.9-90.4,98c-22.2,33.5-38.4,70.2-45.2,108.9c-12.1,68.9,5.9,136-7.5,204.4
							c-10.7,55.2-41.9,106.3-79,149.9c-28.4,33.6-60,63.1-93.6,90.1c-162.7,130.6-377.8,195.5-515.1,366.5
							c-55.3,68.9-94.7,151.1-129.6,236c-31.8,77.2-59.6,157-87.7,234.4c-34.2,93.1-69.7,184.2-106.8,272.4
							c-2.4,5.7,1.5,11.1,0.7,17c-0.8,5.6-9.5-0.2-5.5,1.2"/>
						<path id="Path_5839" class="st2" d="M2617.9,39.2c-42.9-25-101-19-151.5,3s-96.7,58.1-144.3,89.4
							c-67.8,44.9-140.3,81.2-204,132.8c-34,27.5-65.7,60.5-90.1,97.4c-22.2,33.3-38.4,69.7-45.3,108.2
							c-12.3,68.4,5.1,134.9-8.5,202.8c-10.9,54.8-42.1,105.5-79.1,148.8c-28.3,33.4-59.7,62.7-93.2,89.6
							c-161.8,129.9-375.6,195-511.9,365.5c-55,68.8-94.2,151-129.1,235.8c-31.7,77.2-59.5,156.7-87.7,233.9
							c-34.3,93-69.9,183.8-107.2,271.6c-2.4,5.7,1.4,11,0.6,17c-0.8,5.5-9.4-0.1-5.5,1.3"/>
						<path id="Path_5840" class="st2" d="M2601.9,39.3c-42.6-24.4-100.3-18.3-150.5,3.8c-50.5,22.2-96.1,58.1-143.3,89.3
							c-67.4,44.8-139.5,81-202.9,132.3c-33.8,27.4-65.4,60.2-89.8,96.8c-22.2,33.1-38.4,69.2-45.5,107.4
							c-12.5,67.9,4.3,133.9-9.6,201.2c-11.1,54.3-42.2,104.6-79.1,147.7c-28.2,33.2-59.5,62.3-92.8,89
							c-161,129.2-373.3,194.6-508.6,364.5c-54.8,68.8-93.7,151-128.5,235.6c-31.6,77.1-59.5,156.5-87.7,233.5
							c-34.4,92.8-70.2,183.4-107.7,270.9c-2.4,5.6,1.3,11,0.4,16.9c-0.8,5.5-9.4-0.1-5.5,1.3"/>
						<path id="Path_5841" class="st2" d="M2585.8,39.5c-42.3-23.9-99.5-17.5-149.4,4.6s-95.5,58-142.4,89.1
							c-67,44.7-138.7,80.8-201.7,131.9c-33.7,27.3-65.1,59.9-89.4,96.3c-22.1,32.9-38.4,68.7-45.6,106.6
							c-12.8,67.3,3.5,132.8-10.6,199.6c-11.3,53.9-42.4,103.8-79.2,146.6c-28.1,32.9-59.3,61.9-92.5,88.5
							c-160.1,128.4-371,194.1-505.4,363.5c-54.5,68.8-93.3,150.9-127.9,235.4c-31.5,77-59.4,156.2-87.7,233.1
							c-34.5,92.6-70.4,183-108.1,270.1c-2.4,5.6,1.2,11,0.3,16.9c-0.8,5.4-9.3,0-5.6,1.4"/>
						<path id="Path_5842" class="st2" d="M2569.8,39.6c-42.1-23.4-98.8-16.7-148.3,5.3c-49.8,22.3-94.8,57.9-141.5,88.9
							c-66.6,44.6-137.8,80.7-200.5,131.5c-33.5,27.2-64.8,59.6-89.1,95.7c-22.1,32.6-38.4,68.2-45.7,105.8
							c-13,66.8,2.7,131.7-11.6,198c-11.4,53.4-42.5,103-79.2,145.5c-28.1,32.7-59.1,61.5-92.1,87.9
							c-159.3,127.7-368.8,193.6-502.1,362.6c-54.3,68.8-92.8,150.8-127.4,235.2c-31.5,76.9-59.3,156-87.7,232.6
							c-34.5,92.4-70.6,182.6-108.5,269.4c-2.4,5.6,1.1,10.9,0.2,16.8c-0.9,5.4-9.3,0-5.6,1.5"/>
						<path id="Path_5843" class="st2" d="M2553.8,39.7c-41.8-22.8-98.1-16-147.2,6.1c-49.5,22.3-94.2,57.8-140.5,88.8
							c-66.2,44.5-137,80.5-199.4,131.1c-33.3,27-64.5,59.3-88.8,95.1c-22,32.4-38.4,67.7-45.8,105c-13.2,66.3,1.9,130.7-12.7,196.4
							c-11.6,53-42.7,102.2-79.3,144.3c-28,32.5-58.9,61.1-91.8,87.4c-158.4,127-366.5,193.1-498.9,361.6
							c-54,68.8-92.3,150.8-126.8,235c-31.4,76.8-59.3,155.7-87.7,232.2c-34.6,92.3-70.9,182.2-109,268.6c-2.5,5.6,1,10.9,0.1,16.7
							c-0.9,5.4-9.2,0.1-5.6,1.5"/>
						<path id="Path_5844" class="st2" d="M2537.8,39.8c-41.5-22.3-97.3-15.2-146.1,6.9c-49.1,22.3-93.6,57.8-139.6,88.6
							c-65.8,44.4-136.1,80.4-198.2,130.7c-33.2,26.9-64.2,58.9-88.4,94.5c-22,32.2-38.4,67.2-46,104.2
							c-13.5,65.8,1.1,129.6-13.7,194.8c-11.8,52.6-42.9,101.2-79.4,143.2c-27.9,32.2-58.7,60.7-91.4,86.9
							c-157.6,126.3-364.2,192.7-495.6,360.6c-53.8,68.7-91.9,150.7-126.3,234.8c-31.3,76.7-59.2,155.5-87.7,231.8
							c-34.7,92.1-71.1,181.7-109.4,267.9c-2.5,5.6,0.9,10.8-0.1,16.7c-0.9,5.3-9.2,0.1-5.6,1.6"/>
						<path id="Path_5845" class="st2" d="M2521.7,40c-41.2-21.7-96.6-14.5-145,7.7s-92.9,57.7-138.7,88.4
							c-65.4,44.3-135.3,80.2-197.1,130.3c-33,26.8-63.9,58.6-88.1,94c-22,32-38.4,66.8-46.1,103.4c-13.7,65.3,0.3,128.6-14.8,193.2
							c-12,52.1-43.1,100.4-79.4,142.1c-27.9,31.9-58.5,60.3-91,86.3c-156.8,125.5-362,192.2-492.4,359.6
							c-53.5,68.7-91.4,150.6-125.7,234.6c-31.3,76.6-59.2,155.2-87.7,231.3C981,1802.8,944.5,1892.2,906,1978
							c-2.5,5.6,0.8,10.8-0.2,16.6c-0.9,5.3-9.1,0.1-5.6,1.6"/>
						<path id="Path_5846" class="st2" d="M2505.7,40.1c-40.9-21.2-95.9-13.7-143.9,8.5s-92.3,57.6-137.7,88.3
							c-65,44.2-134.5,80.1-195.9,129.8c-32.9,26.7-63.7,58.3-87.7,93.4c-21.9,31.7-38.4,66.3-46.2,102.6
							c-14,64.7-0.5,127.5-15.8,191.6c-12.2,51.7-43.2,99.6-79.5,141c-27.8,31.7-58.3,59.9-90.7,85.8
							c-155.9,124.8-359.7,191.7-489.2,358.6c-53.3,68.7-90.9,150.6-125.1,234.4c-31.2,76.5-59.1,155-87.7,230.9
							c-34.9,91.7-71.6,180.9-110.2,266.4c-2.5,5.5,0.7,10.8-0.3,16.6c-0.9,5.3-9.1,0.2-5.6,1.7"/>
						<path id="Path_5847" class="st2" d="M2489.7,40.2c-40.6-20.6-95.1-13-142.8,9.3s-91.6,57.5-136.8,88.1
							c-64.6,44.1-133.6,79.9-194.7,129.4c-32.7,26.5-63.4,58-87.4,92.8c-21.9,31.5-38.4,65.8-46.3,101.8
							c-14.2,64.2-1.3,126.5-16.9,190c-12.4,51.2-43.4,98.8-79.5,139.9c-27.7,31.5-58,59.5-90.3,85.2
							c-155.1,124.1-357.4,191.3-485.9,357.6c-53,68.7-90.5,150.5-124.6,234.2c-31.1,76.4-59.1,154.7-87.7,230.4
							c-35,91.6-71.8,180.5-110.7,265.6c-2.5,5.5,0.6,10.7-0.4,16.5c-1,5.2-9,0.2-5.6,1.7"/>
						<path id="Path_5848" class="st2" d="M2473.7,40.4c-40.3-20.1-94.4-12.2-141.7,10.1c-47.8,22.5-91,57.5-135.9,88
							c-64.2,43.9-132.8,79.7-193.5,129c-32.5,26.4-63.1,57.6-87.1,92.2c-21.9,31.3-38.3,65.3-46.4,101
							c-14.4,63.7-2.2,125.4-17.9,188.4c-12.5,50.8-43.5,97.9-79.6,138.8c-27.6,31.2-57.8,59-89.9,84.7
							c-154.2,123.4-355.1,190.8-482.7,356.7c-52.8,68.7-90,150.4-124,233.9c-31.1,76.4-59,154.5-87.7,230
							c-35.3,91.3-72.2,180-111.3,264.8c-2.5,5.5,0.5,10.7-0.6,16.4c-1,5.2-9,0.3-5.6,1.8"/>
						<path id="Path_5849" class="st2" d="M2457.7,40.5c-40-19.5-93.6-11.4-140.6,10.9c-47.4,22.5-90.4,57.4-135,87.8
							c-63.8,43.8-131.9,79.6-192.4,128.6c-32.4,26.3-62.8,57.3-86.7,91.7c-21.8,31.1-38.3,64.8-46.6,100.2
							c-14.7,63.2-3,124.3-19,186.8c-12.7,50.4-43.7,97.1-79.7,137.7c-27.5,31-57.6,58.6-89.6,84.1
							c-153.4,122.6-352.9,190.3-479.4,355.7c-52.5,68.7-89.5,150.4-123.5,233.7c-31,76.3-59,154.3-87.7,229.6
							c-35.2,91.2-72.3,179.7-111.5,264.1c-2.5,5.5,0.4,10.7-0.7,16.4c-1,5.2-8.9,0.3-5.6,1.8"/>
						<path id="Path_5850" class="st2" d="M2441.6,40.6c-39.7-18.9-92.9-10.7-139.5,11.7c-47.1,22.6-89.7,57.3-134,87.6
							c-63.4,43.7-131.1,79.4-191.2,128.2c-32.2,26.2-62.5,57-86.4,91.1c-21.8,30.8-38.3,64.3-46.7,99.4
							c-14.9,62.6-3.8,123.3-20,185.2c-12.9,49.9-43.8,96.3-79.7,136.5c-27.4,30.8-57.4,58.2-89.2,83.6
							c-152.6,121.9-350.6,189.9-476.2,354.7c-52.3,68.6-89.1,150.3-122.9,233.5c-30.9,76.2-58.9,154-87.7,229.1
							c-35.3,91-72.5,179.3-112,263.4c-2.6,5.5,0.3,10.6-0.8,16.3c-1,5.1-8.9,0.4-5.7,1.9"/>
						<path id="Path_5851" class="st2" d="M2425.6,40.8c-39.4-18.4-92.2-9.9-138.4,12.5c-46.7,22.6-89.1,57.2-133.1,87.5
							c-63,43.6-130.3,79.3-190,127.8c-32.1,26-62.2,56.7-86.1,90.5c-21.8,30.6-38.3,63.8-46.8,98.6c-15.2,62.1-4.6,122.2-21,183.6
							c-13.1,49.5-44,95.4-79.8,135.4c-27.3,30.5-57.2,57.8-88.9,83.1c-151.7,121.2-348.3,189.4-472.9,353.7
							c-52,68.6-88.6,150.2-122.3,233.3c-30.8,76.1-58.9,153.8-87.7,228.7c-35.4,90.9-72.8,178.8-112.4,262.6
							c-2.6,5.4,0.2,10.6-0.9,16.3c-1,5.1-8.8,0.4-5.7,1.9"/>
						<path id="Path_5852" class="st2" d="M2409.6,40.9c-39.1-17.8-91.4-9.2-137.3,13.2s-88.5,57.2-132.2,87.3
							c-62.6,43.5-129.4,79.1-188.9,127.3c-31.9,25.9-61.9,56.3-85.7,89.9c-21.7,30.4-38.3,63.3-46.9,97.8
							c-15.4,61.6-5.4,121.2-22.1,182c-13.3,49.1-44.2,94.6-79.8,134.3c-27.2,30.3-57,57.4-88.5,82.5
							c-150.9,120.5-346,188.9-469.7,352.7c-51.8,68.6-88.1,150.2-121.8,233.1c-30.8,76-58.8,153.5-87.7,228.3
							c-35.5,90.7-73,178.4-112.8,261.9c-2.6,5.4,0.1,10.5-1,16.2c-1,5-8.8,0.5-5.7,2"/>
						<path id="Path_5853" class="st2" d="M2393.6,41c-38.8-17.3-90.7-8.4-136.2,14c-46,22.7-87.8,57.1-131.2,87.2
							c-62.2,43.4-128.6,78.9-187.7,126.9c-31.8,25.8-61.6,56-85.4,89.4c-21.7,30.2-38.3,62.8-47.1,97.1
							c-15.6,61.1-6.2,120.1-23.1,180.4c-13.5,48.6-44.3,93.8-79.9,133.2c-27.2,30.1-56.8,57-88.1,82
							c-150,119.7-343.7,188.5-466.4,351.7c-51.5,68.6-87.7,150.1-121.2,232.9c-30.7,75.9-58.8,153.3-87.7,227.8
							c-35.6,90.5-73.3,178-113.2,261.1c-2.6,5.4,0,10.5-1.2,16.1c-1.1,5-8.7,0.5-5.7,2.1"/>
						<path id="Path_5854" class="st2" d="M2377.5,41.2c-38.5-16.7-90-7.6-135.1,14.8c-45.7,22.7-87.2,57-130.3,87
							c-61.8,43.3-127.7,78.8-186.5,126.5c-31.6,25.6-61.3,55.8-85.1,88.8c-21.6,30-38.3,62.3-47.2,96.3
							c-15.9,60.5-7,119-24.2,178.8c-13.7,48.2-44.5,93-79.9,132.1c-27.1,29.9-56.5,56.6-87.8,81.4
							c-149.2,119-341.5,188-463.2,350.7c-51.3,68.6-87.2,150-120.7,232.7c-30.6,75.8-58.7,153-87.7,227.4
							c-35.7,90.4-73.5,177.6-113.7,260.4c-2.6,5.4-0.1,10.5-1.3,16.1c-1.1,5-8.6,0.6-5.7,2.1"/>
						<path id="Path_5855" class="st2" d="M2361.5,41.3c-38.2-16.2-89.2-6.9-134,15.6c-45.3,22.8-86.6,56.9-129.4,86.8
							c-61.4,43.2-126.9,78.6-185.4,126.1c-31.4,25.5-61,55.4-84.7,88.2c-21.5,29.8-38.3,61.8-47.3,95.5
							c-16.1,60-7.8,118-25.2,177.2c-13.8,47.8-44.6,92.1-80,130.9c-27,29.6-56.3,56.2-87.4,80.9
							c-148.3,118.3-339.2,187.6-460,349.8c-51,68.6-86.7,150-120.1,232.5c-30.5,75.7-58.6,152.8-87.7,227
							c-35.8,90.2-73.7,177.2-114.1,259.6c-2.6,5.4-0.2,10.4-1.4,16c-1.1,4.9-8.6,0.6-5.7,2.2"/>
						<path id="Path_5856" class="st2" d="M2345.5,41.4c-37.9-15.7-88.5-6.1-132.9,16.4s-85.9,56.8-128.4,86.7
							c-60.9,43.1-126.1,78.5-184.2,125.7c-31.3,25.4-60.7,55.1-84.4,87.6c-21.5,29.5-38.3,61.3-47.4,94.7
							c-16.4,59.5-8.7,116.9-26.3,175.6c-14.1,47.3-44.8,91.3-80.1,129.8c-26.9,29.4-56.1,55.8-87,80.4
							c-147.5,117.5-336.9,187.1-456.7,348.8c-50.8,68.5-86.3,149.9-119.5,232.3c-30.5,75.6-58.4,152.6-87.7,226.5
							c-35.7,90.1-74,176.8-114.5,258.9c-2.6,5.3-0.3,10.4-1.5,16c-1.1,4.9-8.5,0.7-5.7,2.2"/>
						<path id="Path_5857" class="st2" d="M2329.5,41.6c-37.6-15.1-87.7-5.4-131.8,17.2c-44.6,22.8-85.3,56.8-127.5,86.5
							c-60.5,43-125.2,78.3-183.1,125.3c-31.1,25.3-60.4,54.8-84.1,87c-21.5,29.3-38.3,60.9-47.6,93.9c-16.6,59-9.5,115.8-27.3,174
							c-14.3,46.8-44.9,90.5-80.1,128.7c-26.8,29.2-55.9,55.4-86.7,79.8c-146.7,116.8-334.6,186.6-453.5,347.8
							c-50.5,68.5-85.8,149.8-119,232.1c-30.4,75.6-58.4,152.3-87.7,226.1c-35.8,89.9-74.2,176.4-115,258.1
							c-2.6,5.3-0.4,10.3-1.7,15.9c-1.1,4.9-8.5,0.7-5.7,2.3"/>
						<path id="Path_5858" class="st2" d="M2313.5,41.7c-37.3-14.5-87-4.6-130.7,18c-44.3,22.9-84.7,56.7-126.6,86.3
							c-60.1,42.9-124.4,78.1-181.9,124.8c-31,25.1-60.1,54.5-83.7,86.5c-21.4,29.1-38.2,60.4-47.7,93.1
							c-16.8,58.5-10.4,114.8-28.4,172.4c-14.5,46.4-45.1,89.6-80.2,127.6c-26.7,28.9-55.7,55-86.3,79.3
							c-145.8,116.1-332.3,186.2-450.2,346.8c-50.3,68.5-85.3,149.8-118.4,231.9c-30.3,75.5-58.3,152.1-87.7,225.6
							c-35.9,89.7-74.5,175.9-115.4,257.4c-2.7,5.3-0.5,10.3-1.8,15.8c-1.2,4.8-8.4,0.8-5.8,2.3"/>
						<path id="Path_5859" class="st2" d="M2297.4,41.8c-37-14-86.3-3.8-129.7,18.8s-84,56.6-125.6,86.2
							c-59.7,42.8-123.5,78-180.7,124.4c-30.8,25-59.8,54.1-83.4,85.9c-21.4,28.9-38.2,59.9-47.8,92.3
							c-17.1,57.9-11.2,113.7-29.4,170.8c-14.7,46-45.3,88.8-80.2,126.5c-26.6,28.7-55.5,54.5-86,78.7
							c-145,115.4-330,185.7-447,345.8c-50,68.5-84.9,149.7-117.9,231.7c-30.3,75.4-58.3,151.8-87.8,225.2
							c-36,89.6-74.7,175.5-115.8,256.6c-2.7,5.3-0.6,10.3-1.9,15.8c-1.2,4.8-8.4,0.8-5.8,2.4"/>
						<path id="Path_5860" class="st2" d="M2281.4,42c-36.8-13.4-85.5-3.1-128.6,19.6c-43.6,23-83.4,56.5-124.7,86
							c-59.3,42.7-122.7,77.8-179.5,124c-30.6,24.9-59.5,53.8-83,85.3c-21.4,28.7-38.2,59.4-47.9,91.5
							c-17.3,57.4-12,112.6-30.4,169.2c-14.9,45.5-45.4,88-80.3,125.3c-26.5,28.5-55.3,54.1-85.6,78.2
							c-144.1,114.6-327.8,185.3-443.7,344.8c-49.8,68.5-84.4,149.6-117.3,231.5c-30.2,75.3-58.2,151.6-87.8,224.8
							c-36.1,89.4-74.9,175.1-116.2,255.9c-2.7,5.3-0.7,10.2-2,15.7c-1.2,4.7-8.3,0.9-5.8,2.4"/>
						<path id="Path_5861" class="st2" d="M2265.4,42.1c-36.5-12.9-84.8-2.3-127.5,20.4s-82.8,56.4-123.8,85.9
							c-59,42.5-121.9,77.7-178.4,123.6c-30.5,24.8-59.3,53.5-82.7,84.7c-21.3,28.4-38.2,58.9-48,90.7
							c-17.6,56.9-12.8,111.6-31.5,167.6c-15,45.1-45.6,87.1-80.3,124.2c-26.5,28.2-55.1,53.7-85.2,77.7
							c-143.3,113.9-325.5,184.8-440.5,343.9c-49.5,68.5-83.9,149.6-116.7,231.3c-30.1,75.2-58.2,151.4-87.8,224.3
							c-36.2,89.2-75.2,174.7-116.7,255.1c-2.7,5.2-0.8,10.2-2.2,15.7c-1.2,4.7-8.3,0.9-5.8,2.5"/>
						<path id="Path_5862" class="st2" d="M2249.4,42.2c-36.2-12.3-84.1-1.6-126.4,21.2c-42.9,23-82.2,56.3-122.8,85.7
							c-58.6,42.4-121,77.5-177.2,123.2c-30.3,24.6-59,53.2-82.4,84.2c-21.3,28.2-38.2,58.4-48.2,89.9
							c-17.8,56.4-13.6,110.5-32.5,166c-15.2,44.6-45.7,86.3-80.4,123.1c-26.4,28-54.9,53.3-84.9,77.1
							c-142.5,113.2-323.2,184.4-437.2,342.9c-49.3,68.5-83.5,149.5-116.2,231.1c-30,75.1-58.1,151.1-87.8,223.9
							c-36.3,89.1-75.4,174.3-117.1,254.4c-2.7,5.2-0.8,10.2-2.3,15.6c-1.2,4.7-8.2,1-5.8,2.5"/>
						<path id="Path_5863" class="st2" d="M2233.4,42.3c-35.9-11.8-83.3-0.8-125.3,21.9c-42.6,23.1-81.5,56.2-121.9,85.5
							c-58.2,42.3-120.2,77.4-176,122.8c-30.2,24.5-58.7,52.9-82,83.6c-21.2,28-38.2,57.9-48.3,89.1c-18,55.8-14.4,109.5-33.6,164.4
							c-15.4,44.2-45.9,85.5-80.5,122c-26.3,27.8-54.6,52.9-84.5,76.6c-141.6,112.5-320.9,183.9-434,341.9
							c-49,68.4-83,149.4-115.6,230.9c-30,75-58.1,150.9-87.8,223.5c-36.3,88.9-75.7,173.9-117.5,253.6c-2.7,5.2-1,10.1-2.4,15.5
							c-1.2,4.6-8.2,1-5.8,2.6"/>
						<path id="Path_5864" class="st2" d="M2217.3,42.5c-35.6-11.2-82.6-0.1-124.2,22.7c-42.2,23.1-80.9,56.2-121,85.4
							c-57.8,42.1-119.3,77.2-174.9,122.3c-30,24.4-58.4,52.5-81.7,83c-21.2,27.8-38.2,57.4-48.4,88.3
							c-18.3,55.3-15.2,108.4-34.6,162.8c-15.6,43.8-46,84.7-80.5,120.9c-26.2,27.5-54.4,52.5-84.1,76
							c-140.8,111.7-318.6,183.5-430.8,340.9c-48.8,68.4-82.5,149.4-115.1,230.7c-29.9,74.9-58,150.6-87.8,223
							c-36.4,88.7-75.9,173.5-118,252.9c-2.7,5.2-1,10.1-2.5,15.5c-1.3,4.6-8.1,1-5.8,2.7"/>
						<path id="Path_5865" class="st2" d="M2201.3,42.6c-35.3-10.7-81.9,0.7-123.1,23.5c-41.2,22.8-80.3,56.1-120,85.2
							c-57.4,42-118.5,77-173.7,121.9c-29.9,24.3-58.1,52.2-81.3,82.4c-21.2,27.5-38.2,56.9-48.5,87.5
							c-18.5,54.8-16,107.3-35.7,161.2c-15.8,43.3-46.2,83.8-80.6,119.8c-26.1,27.3-54.2,52.1-83.8,75.5
							c-139.9,111-316.3,183-427.5,339.9c-48.5,68.4-82.1,149.3-114.5,230.5c-29.8,74.8-58,150.4-87.8,222.6
							c-36.5,88.5-76.1,173-118.4,252.1c-2.8,5.2-1.1,10-2.7,15.4c-1.3,4.6-8.1,1.1-5.8,2.7"/>
						<path id="Path_5866" class="st2" d="M2185.3,42.7c-35-10.1-81.1,1.5-122,24.3s-79.6,56-119.1,85.1
							c-57,41.9-117.7,76.9-172.6,121.5c-29.7,24.2-57.8,51.9-81,81.9c-21.1,27.3-38.2,56.4-48.7,86.8
							c-18.8,54.3-16.8,106.3-36.7,159.6c-16,42.9-46.3,83-80.6,118.6c-26,27.1-54,51.7-83.4,74.9
							c-139.1,110.3-314,182.6-424.3,338.9c-48.3,68.4-81.6,149.2-113.9,230.3c-29.7,74.7-57.9,150.1-87.8,222.2
							c-36.6,88.4-76.4,172.6-118.8,251.4c-2.8,5.1-1.2,10-2.8,15.4c-1.3,4.5-8,1.1-5.8,2.8"/>
						<path id="Path_5867" class="st2" d="M2169.3,42.9c-34.7-9.6-80.4,2.2-120.9,25.1c-41.2,23.3-79,55.9-118.2,84.9
							c-56.6,41.8-116.8,76.7-171.4,121.1c-29.5,24-57.5,51.6-80.7,81.3c-21.1,27.1-38.2,55.9-48.8,86c-19,53.8-17.7,105.2-37.8,158
							c-16.2,42.5-46.5,82.2-80.7,117.5c-25.9,26.8-53.8,51.3-83.1,74.4c-138.2,109.6-311.7,182.1-421,337.9
							c-48,68.4-81.1,149.2-113.4,230.1c-29.7,74.7-57.9,149.9-87.8,221.7c-36.7,88.2-76.6,172.2-119.2,250.6
							c-2.8,5.1-1.3,10-2.9,15.3c-1.3,4.5-8,1.2-5.9,2.8"/>
						<path id="Path_5868" class="st2" d="M2153.2,43c-34.4-9-79.7,3-119.8,25.9c-40.8,23.3-78.4,55.8-117.3,84.7
							c-56.2,41.7-116,76.6-170.2,120.7c-29.4,23.9-57.2,51.2-80.3,80.7c-21.1,26.9-38.2,55.4-48.9,85.2
							c-19.2,53.2-18.5,104.2-38.8,156.4c-16.4,42-46.7,81.3-80.7,116.4c-25.8,26.6-53.6,50.9-82.7,73.9
							c-137.4,108.8-309.4,181.7-417.8,336.9c-47.7,68.4-80.7,149.1-112.8,229.9c-29.6,74.6-57.8,149.6-87.8,221.3
							c-36.8,88-76.9,171.8-119.7,249.9c-2.8,5.1-1.4,9.9-3,15.2c-1.3,4.5-7.9,1.2-5.9,2.9"/>
						<path id="Path_5869" class="st2" d="M2137.2,43.1c-34.1-8.5-78.9,3.7-118.7,26.7s-77.7,55.8-116.3,84.6
							c-55.8,41.6-115.2,76.4-169.1,120.3c-29.2,23.8-57,50.9-80,80.1c-21,26.7-38.2,55-49,84.4c-19.5,52.7-19.3,103.1-39.8,154.8
							c-16.5,41.6-46.8,80.5-80.8,115.3c-25.8,26.4-53.4,50.5-82.3,73.3c-136.6,108.1-307.1,181.2-414.5,336
							c-47.5,68.4-80.2,149-112.2,229.7c-29.5,74.5-57.7,149.4-87.8,220.9c-36.9,87.8-77.1,171.4-120.1,249.1
							c-2.8,5.1-1.5,9.9-3.2,15.2c-1.4,4.4-7.9,1.3-5.9,2.9"/>
						<path id="Path_5870" class="st2" d="M2121.2,43.3c-33.8-7.9-78.2,4.5-117.6,27.5c-40.1,23.4-77.1,55.7-115.4,84.4
							c-55.4,41.5-114.3,76.2-167.9,119.8c-29.1,23.7-56.7,50.6-79.7,79.6c-21,26.4-38.1,54.5-49.2,83.6
							c-19.7,52.2-20.1,102-40.9,153.2c-16.7,41.1-47,79.7-80.9,114.2c-25.7,26.1-53.2,50.1-82,72.8
							c-135.7,107.4-304.8,180.8-411.3,335c-47.2,68.4-79.7,149-111.7,229.5c-29.5,74.4-57.7,149.1-87.8,220.4
							c-37,87.7-77.4,171-120.5,248.4c-2.8,5.1-1.6,9.8-3.3,15.1c-1.4,4.4-7.8,1.3-5.9,3"/>
						<path id="Path_5871" class="st2" d="M2105.2,43.4c-33.5-7.4-77.4,5.3-116.5,28.3s-76.5,55.6-114.5,84.2
							c-55,41.4-113.5,76.1-166.7,119.4c-28.9,23.5-56.4,50.3-79.3,79c-21,26.2-38.1,54-49.3,82.8c-20,51.7-20.9,101-41.9,151.6
							c-16.9,40.7-47.1,78.8-80.9,113.1c-25.6,25.9-52.9,49.6-81.6,72.2c-134.9,106.7-302.5,180.4-408.1,334
							c-47,68.4-79.3,148.9-111.1,229.3c-29.4,74.3-57.6,148.9-87.8,220c-37.1,87.5-77.6,170.6-120.9,247.6c-2.8,5-1.7,9.8-3.4,15.1
							c-1.4,4.3-7.7,1.4-5.9,3"/>
						<path id="Path_5872" class="st2" d="M2089.2,43.5c-33.2-6.8-76.7,6-115.4,29.1s-75.8,55.5-113.5,84.1
							c-54.6,41.3-112.6,75.9-165.5,119c-28.7,23.4-56.1,50-79,78.4c-20.9,26-38.1,53.5-49.4,82c-20.2,51.1-21.7,99.9-43,150
							c-17.1,40.3-47.3,78-81,111.9c-25.5,25.7-52.7,49.2-81.2,71.7c-134,105.9-300.2,179.9-404.8,333
							c-46.7,68.4-78.8,148.9-110.6,229c-29.3,74.2-57.6,148.6-87.8,219.5c-37.2,87.3-77.8,170.1-121.4,246.9c-2.9,5-1.8,9.8-3.5,15
							c-1.4,4.3-7.7,1.4-5.9,3.1"/>
						<path id="Path_5873" class="st2" d="M2073.1,43.7c-32.9-6.3-76,6.8-114.3,29.8c-39.1,23.5-75.2,55.5-112.6,83.9
							c-54.2,41.2-111.8,75.8-164.4,118.6c-28.6,23.3-55.8,49.6-78.7,77.8c-20.9,25.8-38.1,53-49.5,81.2
							c-20.5,50.6-22.5,98.9-44,148.4c-17.3,39.8-47.4,77.2-81,110.8c-25.4,25.4-52.5,48.8-80.9,71.2
							c-133.2,105.2-297.9,179.5-401.6,332c-46.5,68.4-78.3,148.8-110,228.8c-29.2,74.1-57.5,148.4-87.8,219.1
							c-37.3,87.2-78.1,169.7-121.8,246.1c-2.9,5-1.9,9.7-3.7,14.9c-1.4,4.3-7.6,1.5-5.9,3.1"/>
						<path id="Path_5874" class="st2" d="M2057.1,43.8c-32.6-5.7-75.2,7.5-113.2,30.6s-74.6,55.4-111.7,83.8
							c-53.8,41.1-110.9,75.6-163.2,118.2c-28.4,23.2-55.5,49.3-78.3,77.3c-20.8,25.5-38.1,52.5-49.7,80.4
							c-20.7,50.1-23.3,97.8-45.1,146.8c-17.5,39.4-47.6,76.4-81.1,109.7c-25.4,25.1-52.3,48.7-80.5,70.6
							c-132.3,104.5-295.6,179-398.3,331c-46.2,68.4-77.9,148.7-109.5,228.6c-29.2,74-57.5,148.1-87.8,218.7
							c-37.4,87-78.3,169.3-122.2,245.4c-2.9,5-2,9.7-3.8,14.9c-1.4,4.2-7.6,1.5-5.9,3.2"/>
						<path id="Path_5875" class="st2" d="M2041.1,43.9c-32.3-5.2-74.5,8.3-112.1,31.4c-38.4,23.6-73.9,55.3-110.7,83.6
							c-53.4,41-110.1,75.5-162,117.7c-28.3,23-55.2,49-78,76.7c-20.8,25.3-38.1,52-49.8,79.6c-20.9,49.6-24.1,96.7-46.1,145.2
							c-17.6,38.9-47.7,75.5-81.1,108.6c-25.2,25-52.1,48-80.2,70.1c-131.5,103.8-293.3,178.6-395.1,330.1
							c-45.9,68.4-77.4,148.7-108.9,228.4c-29.1,73.9-57.4,147.9-87.8,218.2c-37.5,86.8-78.6,168.9-122.7,244.6
							c-2.9,5-2.1,9.6-3.9,14.8c-1.5,4.2-7.5,1.6-6,3.3"/>
						<path id="Path_5876" class="st2" d="M2025.1,44.1c-32-4.6-73.7,9.1-111,32.2c-38,23.6-73.3,55.2-109.8,83.4
							c-53,40.9-109.3,75.3-160.9,117.3c-28.1,22.9-54.9,48.7-77.6,76.1c-20.8,25.1-38.1,51.5-49.9,78.8
							c-21.2,49-24.9,95.7-47.2,143.6c-17.8,38.5-47.9,74.7-81.2,107.5c-25.3,24.6-51.9,47.9-79.8,69.5
							c-130.7,103-291,178.2-391.8,329.1c-45.7,68.3-76.9,148.6-108.3,228.2c-29,73.9-57.4,147.6-87.8,217.8
							c-37.6,86.6-78.8,168.5-123.1,243.9c-2.9,4.9-2.2,9.6-4,14.8c-1.5,4.2-7.5,1.6-6,3.3"/>
						<path id="Path_5877" class="st2" d="M2009.1,44.2c-31.8-4.1-73,9.8-109.9,33c-37.7,23.7-72.6,55.2-108.9,83.3
							c-52.5,40.8-108.4,75.1-159.7,116.9c-27.9,22.8-54.7,48.4-77.3,75.5c-20.7,24.9-38.1,51-50,78c-21.4,48.5-25.8,94.6-48.2,142
							c-18,38.1-48,73.9-81.3,106.3c-25.2,24.4-51.7,47.5-79.4,69c-129.8,102.3-288.7,177.7-388.6,328.1
							c-45.4,68.3-76.5,148.5-107.8,228c-29,73.8-57.3,147.4-87.8,217.4c-37.7,86.5-79,168.1-123.5,243.1c-2.9,4.9-2.3,9.6-4.2,14.7
							c-1.5,4.1-7.4,1.7-6,3.4"/>
						<path id="Path_5878" class="st2" d="M1993,44.3c-31.5-3.5-72.3,10.6-108.8,33.8c-37.3,23.7-72,55.1-107.9,83.1
							c-52.1,40.7-107.6,75-158.6,116.5c-27.8,22.7-54.4,48-77,75c-20.7,24.6-38.1,50.5-50.1,77.2c-21.7,48-26.6,93.5-49.2,140.4
							c-18.2,37.6-48.2,73-81.3,105.2c-25,24.3-51.5,46.8-79.1,68.5c-129,101.6-286.3,177.3-385.3,327.1
							c-45.2,68.3-76,148.5-107.2,227.8c-28.9,73.7-57.3,147.2-87.8,216.9c-37.8,86.3-79.3,167.7-123.9,242.4
							c-2.9,4.9-2.4,9.5-4.3,14.6c-1.5,4.1-7.4,1.7-6,3.4"/>
						<path id="Path_5879" class="st2" d="M1977,44.4c-31.2-3-71.5,11.3-107.7,34.6s-71.4,55-107,82.9
							c-51.7,40.6-106.7,74.8-157.4,116.1c-27.6,22.5-54.1,47.7-76.6,74.4c-20.7,24.4-38.1,50-50.3,76.5
							c-21.9,47.5-27.4,92.5-50.3,138.8c-18.4,37.2-48.4,72.2-81.4,104.1c-25,24-51.3,46.6-78.7,67.9
							c-128.1,100.8-284,176.9-382.1,326.1c-44.9,68.3-75.5,148.4-106.6,227.6c-28.8,73.6-57.2,146.9-87.8,216.5
							c-37.9,86.1-79.5,167.2-124.4,241.6c-2.9,4.9-2.5,9.5-4.4,14.6c-1.5,4-7.3,1.7-6,3.5"/>
						<path id="Path_5880" class="st2" d="M1961,44.6c-30.9-2.4-70.8,12.1-106.7,35.4s-70.7,54.9-106.1,82.8
							c-51.3,40.5-105.9,74.7-156.2,115.7c-27.5,22.4-53.8,47.4-76.3,73.8c-20.6,24.2-38.1,49.5-50.4,75.7
							c-22.2,47-28.2,91.4-51.3,137.2c-18.6,36.7-48.5,71.4-81.4,103c-25,23.8-51.1,46.2-78.3,67.4
							c-127.3,100-281.8,176.3-378.9,325c-44.6,68.3-75.1,148.3-106.1,227.4c-28.8,73.5-57.2,146.7-87.8,216.1
							c-38,85.9-79.8,166.8-124.8,240.9c-3,4.9-2.6,9.5-4.5,14.5c-1.5,4-7.3,1.8-6,3.5"/>
						<path id="Path_5881" class="st2" d="M1945,44.7c-30.6-1.9-70.1,12.9-105.6,36.2c-36.3,23.8-70.1,54.9-105.1,82.6
							c-50.9,40.3-105.1,74.5-155.1,115.2c-27.3,22.3-53.5,47.1-76,73.2c-20.6,24-38.1,49.1-50.5,74.9
							c-22.4,46.4-29,90.4-52.4,135.6c-18.8,36.3-48.7,70.6-81.5,101.9c-24.7,23.6-50.8,45.6-78,66.8
							c-126.4,99.4-279.4,176-375.6,324.1c-44.4,68.3-74.6,148.3-105.5,227.2c-28.7,73.4-57.1,146.4-87.8,215.6
							c-38.1,85.8-80,166.4-125.2,240.1c-3,4.9-2.7,9.4-4.7,14.5c-1.5,4-7.2,1.8-6,3.6"/>
						<path id="Path_5882" class="st2" d="M1928.9,44.8c-30.3-1.3-69.3,13.6-104.5,37c-35.9,23.9-69.5,54.8-104.2,82.5
							c-50.5,40.2-104.2,74.3-153.9,114.8c-27.2,22.2-53.2,46.7-75.6,72.7c-20.6,23.8-38,48.6-50.6,74.1
							c-22.6,45.9-29.8,89.3-53.4,134c-18.9,35.9-48.8,69.7-81.5,100.8c-24.6,23.3-50.6,45.1-77.6,66.3
							c-125.6,98.7-277.1,175.6-372.4,323.2c-44.1,68.3-74.1,148.2-105,227c-28.6,73.3-57,146.2-87.8,215.2
							c-38.2,85.6-80.3,166-125.7,239.4c-3,4.8-2.8,9.4-4.8,14.4c-1.6,3.9-7.2,1.9-6,3.6"/>
						<path id="Path_5883" class="st2" d="M1912.9,45c-30-0.8-68.6,14.4-103.4,37.7s-68.8,54.7-103.3,82.3
							c-50.1,40.1-103.4,74.2-152.7,114.4c-27,22-52.9,46.4-75.3,72.1c-20.5,23.5-38,48.1-50.8,73.3
							c-22.9,45.4-30.6,88.2-54.5,132.4c-19.1,35.4-49,68.9-81.6,99.6c-24.5,23.1-50.4,44.7-77.2,65.8
							c-124.8,97.9-274.8,175.1-369.1,322.2c-43.8,68.3-73.7,148.1-104.4,226.8c-28.5,73.2-57,145.9-87.8,214.7
							c-38.2,85.4-80.5,165.6-126.1,238.6c-3,4.8-2.9,9.3-4.9,14.3c-1.6,3.9-7.1,1.9-6.1,3.7"/>
						<path id="Path_5884" class="st2" d="M1896.9,45.1c-29.7-0.2-67.9,15.1-102.3,38.5c-35.3,24-68.2,54.6-102.4,82.1
							c-49.7,40-102.6,74-151.5,114c-26.8,21.9-52.6,46.1-74.9,71.5c-20.5,23.3-38,47.6-50.9,72.5c-23.1,44.9-31.4,87.2-55.5,130.8
							c-19.3,35-49.1,68.1-81.7,98.5c-24.4,22.9-50.2,44.3-76.9,65.2C1076.9,815.5,928.4,893,835,1039.5
							c-43.6,68.3-73.2,148.1-103.8,226.6c-28.5,73.1-56.9,145.7-87.8,214.3c-38.3,85.2-80.7,165.2-126.5,237.9c-3,4.8-3,9.3-5,14.3
							c-1.6,3.9-7.1,2-6.1,3.7"/>
						<path id="Path_5885" class="st2" d="M1880.9,45.2c-29.4,0.3-67.1,15.9-101.2,39.3s-67.6,54.6-101.4,82
							c-49.3,39.9-101.7,73.9-150.4,113.6c-26.7,21.8-52.3,45.8-74.6,70.9c-20.4,23.1-38,47.1-51,71.7
							c-23.4,44.3-32.2,86.1-56.5,129.2c-19.5,34.5-49.3,67.2-81.7,97.4c-24.3,22.6-50,43.9-76.5,64.7
							c-123.1,96.5-270.1,174.3-362.6,320.2c-43.3,68.3-72.7,148-103.3,226.4c-28.4,73-56.9,145.4-87.8,213.9
							c-38.4,85.1-81,164.7-126.9,237.1c-3,4.8-3.1,9.3-5.2,14.2c-1.6,3.8-7,2-6.1,3.8"/>
						<path id="Path_5886" class="st2" d="M1864.9,45.4c-29.1,0.9-66.4,16.7-100.1,40.1s-66.9,54.5-100.5,81.8
							c-48.9,39.8-100.9,73.7-149.2,113.2c-26.5,21.7-52.1,45.5-74.3,70.4c-20.4,22.9-38,46.6-51.1,70.9
							c-23.6,43.8-33,85.1-57.6,127.6c-19.7,34.1-49.4,66.4-81.8,96.3c-24.2,22.4-49.8,43.5-76.2,64.1
							c-122.2,95.8-267.8,173.9-359.4,319.2c-43,68.3-72.3,147.9-102.7,226.2c-28.3,73-56.8,145.2-87.8,213.4
							C585.7,1553.5,543,1633,496.9,1705c-3.1,4.8-3.2,9.2-5.3,14.2c-1.6,3.8-7,2.1-6.1,3.9"/>
						<path id="Path_5887" class="st2" d="M1848.8,45.5c-28.8,1.4-65.6,17.4-99,40.9c-34.2,24.1-66.3,54.4-99.6,81.7
							c-48.5,39.7-100,73.6-148,112.7c-26.4,21.5-51.8,45.1-73.9,69.8c-20.4,22.6-38,46.1-51.2,70.1c-23.9,43.3-33.8,84-58.6,126
							c-19.9,33.7-49.6,65.6-81.8,95.2c-24.2,22.2-49.5,43.1-75.8,63.6c-121.4,95-265.5,173.4-356.1,318.2
							c-42.8,68.3-71.8,147.9-102.2,226c-28.2,72.9-56.8,144.9-87.8,213c-38.6,84.7-81.5,163.9-127.8,235.6
							c-3.1,4.7-3.3,9.2-5.4,14.1c-1.6,3.8-6.9,2.1-6.1,3.9"/>
						<path id="Path_5888" class="st2" d="M1832.8,45.6c-28.5,2-64.9,18.2-97.9,41.7s-65.7,54.3-98.6,81.5
							c-48.1,39.6-99.2,73.4-146.9,112.3c-26.2,21.4-51.5,44.8-73.6,69.2c-20.3,22.4-38,45.6-51.4,69.3
							c-24.1,42.8-34.7,82.9-59.7,124.4c-20.1,33.2-49.8,64.8-81.9,94.1c-24.1,21.9-49.3,42.7-75.4,63
							c-120.6,94.3-263.2,173-352.9,317.2c-42.5,68.3-71.3,147.8-101.6,225.8c-28.2,72.8-56.7,144.7-87.8,212.6
							c-38.7,84.6-81.7,163.5-128.2,234.9c-3.1,4.7-3.3,9.1-5.5,14c-1.7,3.7-6.9,2.2-6.1,4"/>
						<path id="Path_5889" class="st2" d="M1816.8,45.8c-28.2,2.5-64.2,18.9-96.8,42.5c-33.5,24.2-65,54.3-97.7,81.3
							c-47.7,39.5-98.4,73.2-145.7,111.9c-26,21.1-50.5,44-73.3,68.6c-20.3,22.2-38,45.1-51.5,68.5c-24.4,42.3-35.5,81.9-60.7,122.8
							c-20.2,32.8-49.9,63.9-81.9,92.9c-24,21.7-49.1,42.3-75.1,62.5c-119.7,93.6-260.8,172.6-349.7,316.3
							c-42.2,68.3-70.9,147.7-101,225.6c-28.1,72.7-56.7,144.4-87.8,212.1c-38.8,84.4-82,163.1-128.6,234.1c-3.1,4.7-3.4,9.1-5.6,14
							c-1.7,3.7-6.8,2.2-6.1,4"/>
						<path id="Path_5890" class="st2" d="M1800.8,45.9c-27.9,3.1-63.4,19.7-95.7,43.3s-64.4,54.2-96.8,81.2
							c-47.3,39.4-97.5,73.1-144.6,111.5c-25.9,21-50.2,43.7-72.9,68c-20.3,22-38,44.6-51.6,67.7c-24.6,41.7-36.3,80.8-61.8,121.2
							c-20.4,32.4-50.1,63.1-82,91.8c-23.9,21.5-48.9,41.9-74.7,62c-118.9,92.9-258.5,172.2-346.4,315.3
							c-42,68.3-70.4,147.7-100.5,225.4c-28,72.6-56.6,144.2-87.8,211.7c-38.9,84.2-82.2,162.7-129.1,233.3
							c-3.1,4.7-3.5,9.1-5.8,13.9c-1.7,3.6-6.8,2.3-6.1,4.1"/>
						<path id="Path_5891" class="st2" d="M1784.8,46c-27.6,3.6-62.7,20.5-94.6,44.1c-32.8,24.3-63.7,54.1-95.8,81
							c-46.9,39.3-96.7,72.9-143.4,111.1c-25.7,20.8-49.9,43.4-72.6,67.5c-20.2,21.8-38,44.1-51.7,66.9
							c-24.9,41.2-37.1,79.8-62.8,119.6c-20.6,31.9-50.2,62.3-82.1,90.7c-23.8,21.2-48.7,41.5-74.3,61.4
							c-118,92.1-256.2,171.7-343.2,314.3c-41.7,68.3-69.9,147.6-99.9,225.2c-28,72.5-56.6,143.9-87.8,211.3
							c-39,84-82.5,162.2-129.5,232.6c-3.1,4.7-3.6,9-5.9,13.9c-1.7,3.6-6.7,2.3-6.1,4.1"/>
						<path id="Path_5892" class="st2" d="M1768.7,46.2c-27.3,4.2-62,21.2-93.5,44.9s-63.1,54-94.9,80.8
							c-46.5,39.2-95.8,72.8-142.2,110.7c-25.5,20.7-49.7,43.1-72.3,66.9c-20.2,21.5-38,43.7-51.9,66.1
							c-25.1,40.7-37.9,78.7-63.9,118c-20.8,31.5-50.4,61.4-82.1,89.6c-23.7,21-48.5,41.1-74,60.9
							C976.7,775.5,840.1,855.4,754,997.4c-41.4,68.3-69.5,147.5-99.4,225c-27.9,72.4-56.5,143.7-87.8,210.8
							C527.8,1517,484.2,1595,437,1665c-3.1,4.6-3.7,9-6,13.8c-1.7,3.6-6.6,2.4-6.2,4.2"/>
						<path id="Path_5893" class="st2" d="M1752.7,46.3c-27,4.7-61.2,22-92.4,45.7s-62.5,54-94,80.7c-46.1,39.1-95,72.6-141,110.2
							c-25.3,20.6-49.4,42.7-71.9,66.3c-20.2,21.3-38,43.2-52,65.4c-25.3,40.2-38.7,77.6-64.9,116.4c-21,31-50.5,60.6-82.2,88.5
							c-23.6,20.8-48.3,40.7-73.6,60.3C964.3,770.5,829.2,850.7,744,992.1c-41.1,68.3-69,147.5-98.8,224.8
							c-27.8,72.3-56.5,143.4-87.8,210.4c-39.2,83.7-82.9,161.4-130.4,231.1c-3.1,4.6-3.8,9-6.1,13.7c-1.7,3.5-6.6,2.4-6.2,4.2"/>
						<path id="Path_5894" class="st2" d="M1736.7,46.4c-26.7,5.3-60.5,22.8-91.3,46.4c-31.8,24.4-61.8,53.9-93,80.5
							c-45.7,39-94.2,72.4-139.9,109.8c-25.2,20.4-49.1,42.4-71.6,65.7c-20.1,21.1-38,42.7-52.1,64.6
							c-25.6,39.6-39.5,76.6-65.9,114.8c-21.2,30.6-50.7,59.8-82.2,87.3c-23.5,20.6-48,40.2-73.2,59.8
							c-115.5,90-249.2,170.5-333.4,311.4c-40.9,68.3-68.5,147.4-98.2,224.6c-27.7,72.2-56.4,143.2-87.8,209.9
							c-39.3,83.5-83.2,161-130.8,230.3c-3.2,4.6-3.9,8.9-6.3,13.7c-1.7,3.5-6.5,2.4-6.2,4.3"/>
						<path id="Path_5895" class="st2" d="M1720.7,46.5c-26.4,5.8-59.7,23.5-90.2,47.2c-31.4,24.4-61.2,53.8-92.1,80.4
							c-45.3,38.9-93.3,72.3-138.7,109.4c-25,20.3-48.8,42.1-71.2,65.2c-20.1,20.9-38,42.2-52.2,63.8c-25.8,39.1-40.3,75.5-67,113.2
							c-21.3,30.2-50.8,59-82.3,86.2c-23.5,20.3-47.8,39.8-72.9,59.3c-114.7,89.2-246.8,170.1-330.2,310.4
							c-40.6,68.3-68.1,147.3-97.7,224.4c-27.7,72.2-56.4,143-87.8,209.5c-39.4,83.3-83.4,160.6-131.2,229.6
							c-3.2,4.6-4,8.9-6.4,13.6c-1.7,3.5-6.5,2.5-6.2,4.3"/>
						<path id="Path_5896" class="st2" d="M1704.6,46.7c-26.2,6.4-59,24.3-89.1,48c-31.1,24.5-60.6,53.7-91.2,80.2
							c-44.9,38.8-92.5,72.1-137.5,109c-24.8,20.2-48.5,41.7-70.9,64.6c-20.1,20.6-37.9,41.7-52.4,63c-26.1,38.6-41.1,74.5-68,111.6
							c-21.5,29.7-51,58.1-82.3,85.1c-23.4,20.1-47.6,39.4-72.5,58.7c-113.8,88.5-244.5,169.6-326.9,309.4
							c-40.3,68.3-67.6,147.3-97.1,224.2c-27.6,72.1-56.3,142.7-87.8,209.1c-39.5,83.2-83.7,160.2-131.6,228.8
							c-3.2,4.6-4.1,8.8-6.5,13.6c-1.8,3.4-6.4,2.5-6.2,4.4"/>
						<path id="Path_5897" class="st2" d="M1688.6,46.8c-25.9,6.9-58.3,25.1-88,48.8s-59.9,53.7-90.2,80
							c-44.4,38.7-91.6,72-136.4,108.6c-24.7,20.1-48.2,41.4-70.6,64c-20,20.4-37.9,41.2-52.5,62.2c-26.3,38.1-41.9,73.4-69.1,110
							c-21.7,29.3-51.1,57.3-82.4,84c-23.3,19.9-47.4,39-72.2,58.2c-113,87.8-242.1,169.2-323.7,308.4
							c-40,68.3-67.1,147.2-96.6,223.9c-27.5,72-56.3,142.5-87.8,208.6c-39.6,83-83.9,159.7-132.1,228.1c-3.2,4.5-4.2,8.8-6.6,13.5
							c-1.8,3.4-6.4,2.6-6.2,4.5"/>
						<path id="Path_5898" class="st2" d="M1672.6,46.9c-25.6,7.5-57.5,25.8-86.9,49.6c-30.4,24.6-59.3,53.6-89.3,79.9
							c-44,38.6-90.8,71.8-135.2,108.2c-24.5,19.9-47.9,41.1-70.2,63.4c-20,20.2-37.9,40.7-52.6,61.4
							c-26.6,37.5-42.7,72.3-70.1,108.4c-21.9,28.8-51.3,56.5-82.5,82.9c-23.2,19.6-47.2,38.6-71.8,57.6
							c-112.1,87-239.8,168.8-320.5,307.4c-39.8,68.3-66.7,147.1-96,223.7c-27.4,71.9-56.3,142.1-87.8,208.2
							c-39.9,82.7-84.2,159.3-132.5,227.3c-3.2,4.5-4.3,8.8-6.8,13.4c-1.8,3.4-6.3,2.6-6.2,4.5"/>
						<path id="Path_5899" class="st2" d="M1656.6,47.1c-25.3,8-56.8,26.6-85.9,50.4c-30,24.6-58.7,53.5-88.4,79.7
							c-43.6,38.5-90,71.7-134,107.7c-24.5,20-48.3,41.3-69.9,62.9c-19.9,20-37.9,40.2-52.7,60.6c-26.8,37-43.5,71.3-71.2,106.9
							c-22.1,28.4-51.4,55.6-82.5,81.8c-23.1,19.4-47,38.2-71.4,57.1c-111.3,86.3-237.5,168.4-317.2,306.4
							c-39.5,68.3-66.2,147.1-95.4,223.5c-27.4,71.8-56.3,141.9-87.8,207.8c-40,82.6-84.4,158.9-132.9,226.6
							c-3.2,4.5-4.4,8.7-6.9,13.4c-1.8,3.3-6.3,2.7-6.2,4.6"/>
						<path id="Path_5900" class="st2" d="M1640.6,47.2c-25,8.6-56.1,27.3-84.8,51.2c-29.7,24.7-58,53.4-87.4,79.5
							c-43.2,38.4-89.1,71.5-132.9,107.3c-24.3,19.9-48,40.9-69.6,62.3c-19.9,19.7-37.9,39.7-52.9,59.8
							c-27.1,36.5-44.3,70.2-72.2,105.3c-22.3,28-51.6,54.8-82.6,80.6c-23,19.2-46.8,37.8-71.1,56.6
							c-110.5,85.6-235.1,168-314,305.4c-39.2,68.3-65.7,147-94.9,223.3c-27.3,71.7-56.2,141.6-87.8,207.3
							c-40,82.4-84.7,158.5-133.4,225.8c-3.2,4.5-4.5,8.7-7,13.3c-1.8,3.3-6.2,2.7-6.3,4.6"/>
						<path id="Path_5901" class="st2" d="M1624.5,47.3c-24.7,9.1-55.3,28.1-83.7,52c-29.3,24.7-57.4,53.4-86.5,79.4
							c-42.8,38.3-88.3,71.3-131.7,106.9c-24.1,19.8-47.7,40.6-69.2,61.7c-19.9,19.5-37.9,39.2-53,59c-27.3,36-45.1,69.2-73.3,103.7
							c-22.4,27.5-51.7,54-82.6,79.5c-22.9,18.9-46.6,37.4-70.7,56C864.2,730.4,741.1,813.1,663.1,950
							c-38.9,68.3-65.3,146.9-94.3,223.1c-27.2,71.6-56.2,141.4-87.9,206.9c-40.1,82.2-84.9,158.1-133.8,225.1
							c-3.3,4.5-4.5,8.7-7.1,13.3c-1.8,3.3-6.2,2.8-6.3,4.7"/>
						<path id="Path_5902" class="st2" d="M1608.5,47.5c-24.4,9.7-54.6,28.9-82.6,52.8c-29,24.7-56.8,53.3-85.6,79.2
							c-42.4,38.2-87.4,71.2-130.6,106.5c-24,19.7-47.5,40.3-68.9,61.1c-19.8,19.3-37.9,38.7-53.1,58.2
							c-27.6,35.4-46,68.1-74.3,102.1c-22.6,27.1-51.9,53.2-82.7,78.4c-22.8,18.7-46.4,37-70.3,55.5
							C851.7,725.4,730.1,808.4,653,944.7c-38.7,68.4-64.8,146.9-93.8,222.9c-27.2,71.5-56.1,141.2-87.9,206.5
							c-40.2,82.1-85.2,157.7-134.2,224.3c-3.3,4.5-4.6,8.6-7.3,13.2c-1.8,3.2-6.1,2.8-6.3,4.7"/>
						<path id="Path_5903" class="st2" d="M1592.5,47.6c-24.1,10.2-53.8,29.6-81.5,53.6s-56.1,53.2-84.6,79.1
							c-42,38.1-86.6,71-129.4,106.1c-23.8,19.5-47.2,40-68.5,60.6c-19.8,19.1-37.9,38.2-53.2,57.4c-27.8,34.9-46.8,67-75.3,100.5
							c-22.8,26.7-52.1,52.3-82.7,77.3c-22.7,18.5-46.1,36.6-70,54.9c-107.9,83.4-228.1,166.7-304.2,302.5
							c-38.4,68.4-64.3,146.8-93.2,222.7c-27.1,71.4-56.1,140.9-87.9,206c-40.3,81.9-85.4,157.2-134.6,223.6
							c-3.3,4.4-4.7,8.6-7.4,13.1c-1.9,3.2-6.1,2.9-6.3,4.8"/>
						<path id="Path_5904" class="st2" d="M1576.5,47.7c-23.8,10.8-53.1,30.4-80.4,54.3s-55.5,53.1-83.7,78.9
							c-41.6,37.9-85.8,70.9-128.2,105.7c-23.7,19.4-46.9,39.7-68.2,60c-19.8,18.8-37.9,37.7-53.3,56.6
							c-28.1,34.4-47.6,66-76.4,98.9c-23,26.2-52.2,51.5-82.8,76.2c-22.6,18.2-45.9,36.1-69.6,54.4
							c-107.1,82.7-225.7,166.3-301,301.5c-38.1,68.4-63.9,146.8-92.6,222.5c-27,71.4-56,140.7-87.9,205.6
							c-40.4,81.7-85.7,156.8-135.1,222.8c-3.3,4.4-4.8,8.5-7.5,13.1c-1.9,3.1-6,2.9-6.3,4.8"/>
						<path id="Path_5905" class="st2" d="M1560.5,47.9c-23.5,11.3-52.4,31.2-79.3,55.1c-27.9,24.9-54.8,53.1-82.8,78.7
							c-41.2,37.9-84.9,70.7-127,105.2c-23.5,19.3-46.6,39.3-67.9,59.4c-19.7,18.6-37.9,37.2-53.5,55.8
							c-28.3,33.9-48.4,64.9-77.4,97.3c-23.2,25.8-52.4,50.7-82.9,75c-22.6,18-45.7,35.7-69.3,53.8
							c-106.3,82-223.3,165.9-297.8,300.5c-37.8,68.4-63.4,146.7-92.1,222.3c-26.9,71.3-56,140.4-87.9,205.1
							c-40.5,81.5-85.9,156.4-135.5,222.1c-3.3,4.4-4.9,8.5-7.6,13c-1.9,3.1-6,3-6.3,4.9"/>
						<path id="Path_5906" class="st2" d="M1544.4,48c-23.2,11.9-51.6,31.9-78.2,55.9c-27.6,24.9-54.2,53-81.9,78.6
							c-40.8,37.7-84.1,70.5-125.9,104.8c-23.3,19.2-46.3,39-67.5,58.8c-19.7,18.4-37.9,36.8-53.6,55.1
							c-28.6,33.3-49.2,63.9-78.5,95.7c-23.3,25.3-52.5,49.9-82.9,73.9c-22.5,17.8-45.5,35.3-68.9,53.3
							c-105.4,81.2-221,165.5-294.5,299.5C575,992,549.6,1070.2,521,1145.7c-26.9,71.2-55.9,140.2-87.9,204.7
							c-40.6,81.4-86.1,156-135.9,221.3c-3.3,4.4-5,8.5-7.8,13c-1.9,3.1-5.9,3-6.3,4.9"/>
						<path id="Path_5907" class="st2" d="M1528.4,48.1c-22.9,12.4-50.9,32.7-77.1,56.7c-27.2,25-53.6,52.9-80.9,78.4
							c-40.4,37.6-83.2,70.4-124.7,104.4c-23.2,19-46,38.7-67.2,58.3c-19.7,18.2-37.9,36.3-53.7,54.3c-28.8,32.8-50,62.8-79.5,94.1
							c-23.5,24.9-52.7,49-83,72.8c-22.4,17.5-45.3,34.9-68.5,52.8C789.2,700.4,675.2,785,602.5,918.4
							c-37.2,68.4-62.5,146.6-90.9,221.9c-26.8,71.1-55.9,139.9-87.9,204.3c-40.7,81.2-86.4,155.6-136.3,220.6
							c-3.3,4.3-5.1,8.4-7.9,12.9c-1.9,3-5.8,3.1-6.3,5"/>
						<path id="Path_5908" class="st2" d="M1512.4,48.3c-22.6,13-50.1,33.4-76,57.5c-26.9,25-52.9,52.8-80,78.3
							c-40,37.5-82.4,70.2-123.5,104c-23,18.9-45.7,38.4-66.9,57.7c-19.6,18-37.9,35.8-53.8,53.5c-29.1,32.3-50.8,61.7-80.6,92.5
							c-23.7,24.5-52.8,48.2-83,71.7c-22.3,17.3-45.1,34.5-68.2,52.2c-103.7,79.8-216.3,164.7-288,297.5
							c-36.9,68.4-62,146.5-90.4,221.7c-26.7,71-55.8,139.7-87.9,203.8c-40.8,81-86.6,155.1-136.8,219.8c-3.4,4.3-5.2,8.4-8,12.8
							c-1.9,3-5.8,3.1-6.3,5.1"/>
						<path id="Path_5909" class="st2" d="M1496.4,48.4c-22.3,13.5-49.4,34.2-74.9,58.3c-26.5,25.1-52.3,52.8-79.1,78.1
							c-39.6,37.4-81.6,70.1-122.4,103.6c-22.9,18.8-45.5,38-66.5,57.1c-19.6,17.7-37.9,35.3-54,52.7
							c-29.3,31.8-51.6,60.7-81.6,90.9c-23.9,24-53,47.4-83.1,70.6c-22.2,17.1-44.9,34.1-67.8,51.7
							C764.1,690.5,653.1,775.7,582.2,908c-36.6,68.4-61.6,146.4-89.8,221.5c-26.7,70.9-55.8,139.4-87.9,203.4
							c-40.9,80.8-86.9,154.7-137.2,219.1c-3.4,4.3-5.3,8.4-8.1,12.8c-1.9,3-5.7,3.2-6.4,5.1"/>
						<path id="Path_5910" class="st2" d="M1480.3,48.5c-22,14.1-48.7,35-73.8,59.1s-51.7,52.7-78.1,77.9
							c-39.2,37.3-80.7,69.9-121.2,103.2c-22.7,18.7-45.2,37.7-66.2,56.5c-19.6,17.5-37.9,34.8-54.1,51.9
							c-29.6,31.2-52.4,59.6-82.7,89.3c-24.1,23.6-53.1,46.6-83.1,69.5c-22.1,16.9-44.7,33.7-67.4,51.1
							c-102,78.3-211.5,163.9-281.5,295.6c-36.4,68.4-61.1,146.4-89.3,221.3c-26.6,70.8-55.7,139.2-87.9,203
							c-41,80.7-87.1,154.3-137.6,218.3c-3.4,4.3-5.4,8.3-8.3,12.7c-1.9,2.9-5.7,3.2-6.4,5.2"/>
						<path id="Path_5911" class="st2" d="M1464.3,48.7c-21.7,14.6-47.9,35.7-72.7,59.9c-25.8,25.1-51,52.6-77.2,77.8
							c-38.8,37.2-79.9,69.8-120.1,102.7c-22.6,18.5-44.9,37.4-65.9,56c-19.5,17.3-37.9,34.3-54.2,51.1
							c-29.8,30.7-53.2,58.6-83.7,87.7c-24.3,23.2-53.3,45.7-83.2,68.3c-22,16.6-44.4,33.3-67.1,50.6
							C739,680.4,631,766.3,561.9,897.4c-36.1,68.4-60.6,146.3-88.7,221.1c-26.5,70.7-55.7,138.9-87.9,202.5
							c-41.1,80.5-87.4,153.9-138.1,217.6c-3.4,4.3-5.5,8.3-8.4,12.7c-1.9,2.9-5.6,3.3-6.4,5.2"/>
						<path id="Path_5912" class="st2" d="M1448.3,48.8c-21.4,15.2-47.2,36.5-71.6,60.7c-25.5,25.2-50.4,52.6-76.3,77.6
							c-38.4,37.1-79,69.6-118.9,102.3c-22.4,18.4-44.6,37.1-65.5,55.4c-19.5,17.1-37.9,33.8-54.3,50.3
							c-30.1,30.2-54,57.5-84.7,86.1c-24.4,22.7-53.4,44.9-83.3,67.2c-21.9,16.4-44.2,32.9-66.7,50.1
							c-100.4,76.9-206.8,163.1-275,293.6c-35.8,68.4-60.2,146.2-88.2,220.9c-26.4,70.6-55.6,138.7-87.9,202.1
							c-41.2,80.3-87.6,153.5-138.5,216.8c-3.4,4.2-5.5,8.3-8.5,12.6c-2,2.9-5.6,3.3-6.4,5.3"/>
						<path id="Path_5913" class="st2" d="M1432.3,48.9c-24.9,18.8-48.5,39.3-70.5,61.5c-24.1,24.2-49.7,52.5-75.3,77.4
							c-37.9,37-78.2,69.4-117.7,101.9c-22.2,18.3-44.3,36.8-65.2,54.8c-19.4,16.8-37.9,33.3-54.4,49.5
							c-30.3,29.6-54.8,56.5-85.8,84.5c-24.6,22.3-53.6,44.1-83.3,66.1c-21.8,16.2-44,32.5-66.4,49.5
							c-99.5,76.2-204.4,162.7-271.8,292.6c-35.5,68.5-59.7,146.2-87.6,220.7c-26.4,70.5-55.5,138.4-87.9,201.7
							c-41.3,80.2-87.9,153-138.9,216.1c-3.4,4.2-5.6,8.2-8.6,12.5c-2,2.8-5.5,3.3-6.4,5.3"/>
						<path id="Path_5914" class="st2" d="M1416.3,49c-24.5,19.2-47.6,40-69.4,62.2c-24.8,25.3-49.1,52.4-74.4,77.3
							c-37.5,36.9-77.4,69.3-116.6,101.5c-22.1,18.2-44,36.4-64.8,54.2c-19.4,16.6-37.9,32.8-54.6,48.7
							c-30.6,29.1-55.6,55.4-86.8,82.9c-24.8,21.8-53.7,43.3-83.4,65c-21.7,15.9-43.8,32.1-66,49
							c-98.7,75.4-202.1,162.3-268.6,291.6c-35.2,68.5-59.2,146.1-87,220.5c-26.3,70.5-55.5,138.2-87.9,201.2
							c-41.4,80-88.1,152.6-139.3,215.3c-3.4,4.2-5.7,8.2-8.8,12.5c-2,2.8-5.5,3.4-6.4,5.4"/>
						<path id="Path_5915" class="st2" d="M1400.2,49.2c-24,19.7-46.8,40.7-68.3,63c-24.4,25.3-48.5,52.3-73.5,77.1
							c-37.1,36.8-76.5,69.1-115.4,101.1c-21.9,18-43.7,36.1-64.5,53.7c-19.4,16.4-37.9,32.3-54.7,47.9
							c-30.8,28.6-56.4,54.3-87.9,81.3c-25,21.4-53.9,42.4-83.4,63.9c-21.7,15.7-43.6,31.7-65.6,48.4
							c-97.8,74.7-199.7,161.9-265.3,290.7c-34.9,68.5-58.8,146-86.5,220.3c-26.2,70.4-55.4,137.9-87.9,200.8
							c-41.5,79.8-88.4,152.2-139.8,214.6c-3.5,4.2-5.8,8.2-8.9,12.4c-2,2.8-5.4,3.4-6.4,5.4"/>
						<path id="Path_5916" class="st2" d="M1384.2,49.3c-23.5,20.1-45.9,41.4-67.2,63.8c-23,24.3-47.8,52.3-72.5,77
							c-36.7,36.7-75.7,69-114.2,100.7c-21.8,17.9-43.4,35.8-64.2,53.1c-19.4,16.2-37.9,31.8-54.8,47.1
							c-31.1,28.1-57.2,53.3-88.9,79.7c-25.2,21-54,41.6-83.5,62.7c-21.6,15.5-43.4,31.2-65.3,47.9c-97,74-197.3,161.5-262.1,289.7
							c-34.6,68.5-58.3,146-85.9,220.1c-26.2,70.3-55.4,137.7-87.9,200.3c-41.6,79.6-88.6,151.8-140.2,213.8
							c-3.5,4.2-5.9,8.1-9,12.4c-2,2.7-5.4,3.5-6.4,5.5"/>
						<path id="Path_5917" class="st2" d="M1368.2,49.4c-20,17.9-43.5,40.3-66.1,64.6c-23.7,25.4-47.1,52.2-71.6,76.8
							c-36.2,36.7-74.8,68.8-113,100.2c-21.6,17.8-43.2,35.5-63.8,52.5c-19.3,15.9-37.9,31.3-54.9,46.3c-31.3,27.5-58,52.2-90,78.1
							c-25.4,20.5-54.2,40.8-83.5,61.6c-21.5,15.2-43.2,30.8-64.9,47.4C664.2,650.2,565.5,738,501.6,865.6
							c-34.3,68.5-57.8,145.9-85.3,219.9c-26.1,70.2-55.3,137.5-87.9,199.9c-41.7,79.5-88.9,151.4-140.6,213.1
							c-3.5,4.2-6,8.1-9.1,12.3c-2,2.7-5.3,3.5-6.5,5.5"/>
						<path id="Path_5918" class="st2" d="M1352.2,49.6c-19.7,18.5-42.7,41.1-65,65.4s-46.5,52.2-70.7,76.6
							c-35.8,36.6-74,68.6-111.9,99.8c-21.4,17.7-42.9,35.1-63.5,51.9c-19.3,15.7-37.9,30.8-55.1,45.5c-31.5,27-58.8,51.2-91,76.5
							c-25.5,20.1-54.3,40-83.6,60.5c-21.4,15-43,30.4-64.5,46.8c-95.3,72.5-192.5,160.6-255.6,287.7
							c-34,68.5-57.4,145.8-84.8,219.7c-26,70.1-55.3,137.2-87.9,199.5c-41.8,79.3-89.2,150.8-141.1,212.3
							c-3.5,4.1-6.1,8.1-9.3,12.3c-2,2.7-5.3,3.6-6.5,5.6"/>
						<path id="Path_5919" class="st2" d="M1336.2,49.7c-19.4,19-42,41.8-64,66.2s-45.9,52.1-69.7,76.5
							c-35.4,36.5-73.2,68.5-110.7,99.4c-21.3,17.5-42.6,34.8-63.2,51.4c-19.2,15.5-37.8,30.3-55.2,44.8
							c-31.8,26.5-59.7,50.1-92.1,74.9c-25.7,19.7-54.5,39.1-83.7,59.4c-21.3,14.8-42.7,30-64.2,46.3
							C639,640.2,543.3,728.7,481.2,855.2c-33.7,68.5-56.9,145.8-84.2,219.5c-25.9,70-55.2,137-87.9,199
							c-41.8,79.1-89.5,150.4-141.5,211.6c-3.5,4.1-6.2,8-9.4,12.2c-2,2.6-5.2,3.6-6.5,5.6"/>
						<path id="Path_5920" class="st2" d="M1320.1,49.8c-19.1,19.6-41.2,42.6-62.9,67s-45.2,52-68.8,76.3
							c-35,36.4-72.3,68.3-109.5,99c-21.1,17.4-42.3,34.5-62.8,50.8c-19.2,15.3-37.8,29.8-55.3,44c-32,25.9-60.4,49.1-93.1,73.3
							c-25.9,19.3-54.7,38.3-83.7,58.3c-21.2,14.6-42.5,29.6-63.8,45.7c-93.7,71-187.8,159.8-249.1,285.7
							c-33.4,68.5-56.4,145.7-83.7,219.3c-25.9,69.9-55.2,136.7-87.9,198.6c-41.9,78.9-89.7,150-141.9,210.8
							c-3.5,4.1-6.3,8-9.5,12.1c-2.1,2.6-5.2,3.7-6.5,5.7"/>
						<path id="Path_5921" class="st2" d="M1304.1,50c-18.8,20.1-40.5,43.4-61.8,67.8c-22.3,25.6-44.6,51.9-67.9,76.2
							c-34.6,36.3-71.5,68.2-108.4,98.6c-21,17.3-42.1,34.1-62.5,50.2c-19.2,15-37.8,29.3-55.4,43.2c-32.3,25.4-61.2,48.1-94.1,71.7
							c-26,18.8-54.8,37.5-83.8,57.2c-21.1,14.3-42.3,29.2-63.5,45.2C614,630.2,521.4,719.3,461,844.6
							c-33.1,68.6-56,145.6-83.1,219.1c-25.8,69.8-55.1,136.5-87.9,198.2c-42,78.8-90,149.6-142.3,210.1c-3.6,4.1-6.3,8-9.6,12.1
							c-2.1,2.6-5.1,3.7-6.5,5.8"/>
						<path id="Path_5922" class="st2" d="M1288.1,50.1c-18.5,20.7-39.8,44.1-60.7,68.6c-22,25.7-44,51.9-66.9,76
							c-34.2,36.2-70.6,68-107.2,98.2c-20.8,17.2-41.8,33.8-62.1,49.6c-19.2,14.8-37.8,28.8-55.6,42.4c-32.6,24.9-62,47-95.2,70.1
							c-26.2,18.4-54.9,36.7-83.8,56c-21,14.1-42.1,28.8-63.1,44.6c-91.9,69.6-183,159-242.6,283.8
							c-32.8,68.6-55.5,145.6-82.5,218.9c-25.7,69.7-55.1,136.2-87.9,197.7c-42.1,78.6-90.2,149.2-142.8,209.3
							c-3.6,4-6.4,7.9-9.8,12c-2.1,2.5-5.1,3.8-6.5,5.8"/>
						<path id="Path_5923" class="st2" d="M1272.1,50.2c-18.2,21.2-39,44.9-59.6,69.4c-21.6,25.7-43.3,51.8-66,75.8
							c-33.8,36.1-69.8,67.9-106.1,97.7c-20.7,17-41.5,33.5-61.8,49c-19.1,14.5-37.8,28.3-55.7,41.6c-32.8,24.3-62.8,45.9-96.2,68.5
							c-26.4,18-55.1,35.8-83.9,54.9c-20.9,13.9-41.9,28.4-62.7,44.1C589,620.2,499.5,710,440.7,834.1c-32.5,68.6-55,145.5-82,218.6
							c-25.7,69.7-55,136-87.9,197.3c-42.2,78.4-90.5,148.7-143.2,208.6c-3.6,4-6.5,7.9-9.9,11.9c-2.1,2.5-5,3.8-6.5,5.9"/>
						<path id="Path_5924" class="st2" d="M1256,50.4c-17.9,21.8-38.3,45.7-58.5,70.2c-21.2,25.7-42.7,51.7-65.1,75.7
							c-33.4,36-69,67.7-104.9,97.3c-20.5,16.9-41.2,33.1-61.5,48.5c-19.1,14.3-37.8,27.8-55.8,40.8c-33.1,23.8-63.6,44.9-97.3,66.9
							c-26.6,17.5-55.3,35-83.9,53.8c-20.8,13.7-41.7,28-62.4,43.6C576.3,615.4,488.4,705.4,430.5,829
							c-32.2,68.6-54.6,145.4-81.4,218.4c-25.6,69.6-55,135.7-87.9,196.9c-42.3,78.3-90.7,148.3-143.6,207.8c-3.6,4-6.6,7.9-10,11.9
							c-2.1,2.5-4.9,3.9-6.5,5.9"/>
						<path id="Path_5925" class="st2" d="M1240,50.5c-17.6,22.3-37.5,46.4-57.4,70.9c-20.9,25.8-42.1,51.6-64.1,75.5
							c-33,35.9-68.1,67.5-103.7,96.9c-20.3,16.8-40.9,32.8-61.1,47.9c-19.1,14.1-37.8,27.3-55.9,40c-33.3,23.3-64.5,43.8-98.3,65.3
							c-26.8,17.1-55.4,34.2-84,52.7c-20.7,13.5-41.5,27.6-62,43c-89.5,67.5-175.9,157.9-233,280.8
							c-31.8,68.6-54.1,145.4-80.9,218.2c-25.5,69.5-54.9,135.5-87.9,196.4c-42.4,78.1-90.9,147.9-144.1,207.1
							c-3.6,4-6.7,7.8-10.1,11.8c-2.1,2.4-4.9,3.9-6.6,6"/>
						<path id="Path_5926" class="st2" d="M1224,50.6c-17.3,22.9-36.8,47.2-56.3,71.7c-20.5,25.8-41.4,51.5-63.2,75.3
							c-32.6,35.7-67.3,67.4-102.6,96.5c-20.2,16.7-40.6,32.5-60.8,47.3c-19,13.9-37.8,26.8-56,39.2c-33.6,22.7-65.3,42.8-99.4,63.7
							c-27,16.6-55.5,33.4-84.1,51.6c-20.6,13.2-41.3,27.2-61.6,42.5c-88.6,66.7-173.4,157.4-229.6,279.8
							c-31.5,68.6-53.6,145.3-80.3,218c-25.4,69.4-54.9,135.2-87.9,196c-42.5,77.9-91.2,147.5-144.5,206.3c-3.6,4-6.8,7.8-10.2,11.8
							c-2.1,2.4-4.8,4-6.6,6"/>
						<path id="Path_5927" class="st2" d="M1208,50.8c-17,23.4-36,48-55.2,72.5c-20.1,25.9-40.8,51.5-62.3,75.2
							c-32.2,35.6-66.4,67.2-101.4,96.1c-20,16.5-40.3,32.2-60.5,46.7c-19,13.7-37.8,26.3-56.2,38.4
							c-33.8,22.1-66.1,41.7-100.4,62.1c-27.2,16.2-55.7,32.6-84.1,50.5c-20.5,13-41,26.7-61.3,41.9c-87.7,66-171,157-226.4,278.8
							c-31.2,68.7-53.2,145.2-79.7,217.8c-25.4,69.3-54.8,135-87.9,195.5c-42.6,77.7-91.4,147.1-144.9,205.6
							c-3.6,4-6.9,7.8-10.4,11.7c-2.1,2.4-4.8,4-6.6,6.1"/>
						<path id="Path_5928" class="st2" d="M1192,50.9c-16.7,24-35.3,48.8-54.1,73.3c-19.8,26-40.1,51.4-61.4,75
							c-31,34.4-64.5,66.3-100.2,95.7c-19.9,16.4-40,31.9-60.1,46.2c-18.9,13.4-37.8,25.8-56.3,37.6
							c-34.1,21.6-66.9,40.6-101.5,60.5c-27.3,15.8-55.8,31.8-84.2,49.3c-20.5,12.8-40.8,26.3-60.9,41.4
							c-86.9,65.3-168.6,156.7-223.1,277.9c-30.9,68.7-52.7,145.2-79.2,217.6c-25.3,69.2-54.7,134.7-87.9,195.1
							c-42.7,77.6-91.7,146.7-145.3,204.8c-3.6,3.9-7,7.7-10.5,11.6c-2.1,2.4-4.7,4-6.6,6.1"/>
						<path id="Path_5929" class="st2" d="M1175.9,51c-16.4,24.5-34.5,49.5-53,74.1c-19.4,26-39.5,51.3-60.4,74.9
							c-30.5,34.3-63.6,66.1-99,95.2c-19.7,16.3-39.7,31.5-59.8,45.6c-18.9,13.2-37.8,25.3-56.4,36.8
							c-34.3,21.1-67.7,39.6-102.5,58.9c-27.5,15.3-56,30.9-84.2,48.2c-20.4,12.5-40.6,25.9-60.6,40.9
							c-86.1,64.5-166.2,156.3-219.9,276.9c-30.6,68.7-52.2,145.1-78.6,217.4c-25.2,69.1-54.7,134.5-87.9,194.7
							c-42.8,77.4-91.9,146.2-145.8,204.1c-3.7,3.9-7,7.7-10.6,11.6c-2.2,2.3-4.7,4.1-6.6,6.2"/>
						<path id="Path_5930" class="st2" d="M1159.9,51.1c-16.1,25.1-33.8,50.3-51.9,74.9c-19.1,26-38.9,51.2-59.5,74.7
							c-30,34.2-62.8,65.9-97.9,94.8c-19.5,16.2-39.5,31.2-59.4,45c-18.9,13-37.8,24.8-56.5,36c-34.6,20.6-68.5,38.5-103.5,57.3
							c-27.8,15-56.2,30.2-84.4,47.2c-20.3,12.3-40.4,25.5-60.2,40.3C501.4,585.1,422.8,677.2,370,797.2
							c-30.3,68.7-51.8,145-78.1,217.2c-25.1,69-54.6,134.2-87.9,194.2c-42.9,77.2-92.1,145.8-146.2,203.3
							c-3.7,3.9-7.1,7.7-10.7,11.5c-2.2,2.3-4.6,4.1-6.6,6.2"/>
						<path id="Path_5931" class="st2" d="M1143.9,51.3c-15.8,25.6-33,51-50.8,75.7c-18.7,26.1-38.2,51.2-58.6,74.5
							c-29.6,34.1-61.9,65.6-96.7,94.4c-19.4,16-39.2,30.9-59.1,44.4c-18.8,12.8-37.8,24.3-56.7,35.2c-34.8,20-69.3,37.5-104.6,55.7
							c-27.9,14.5-56.3,29.3-84.3,46c-20.6,12.2-40.6,25.5-59.8,39.8c-84.4,63.1-161.4,155.5-213.4,274.9
							c-29.9,68.7-51.3,145-77.5,217c-25.1,68.9-54.6,134-87.9,193.8c-43,77-92.4,145.4-146.6,202.6c-3.7,3.9-7.2,7.7-10.9,11.5
							c-2.2,2.3-4.6,4.2-6.6,6.3"/>
						<path id="Path_5932" class="st2" d="M1127.9,51.4c-15.5,26.2-32.3,51.8-49.7,76.5c-18.4,26.1-37.6,51.1-57.6,74.4
							c-29.1,34-61.1,65.4-95.5,94c-18.8,15.6-38.4,30.3-58.8,43.9c-18.8,12.5-37.8,23.9-56.8,34.5c-35.1,19.5-70.1,36.4-105.6,54.1
							c-28.1,14-56.5,28.4-84.4,44.9c-20.5,12-40.4,25.1-59.5,39.2C476.5,575.3,401.2,668,349.8,786.8
							c-29.5,68.8-50.8,144.9-76.9,216.8c-25,68.9-54.5,133.7-87.9,193.4c-43.1,76.9-92.6,145-147.1,201.8c-3.7,3.9-7.3,7.6-11,11.4
							c-2.2,2.2-4.5,4.2-6.6,6.4"/>
						<path id="Path_5933" class="st2" d="M1111.8,51.5c-15.2,26.7-31.6,52.6-48.6,77.3c-17.6,25.7-36.6,50.4-56.7,74.2
							c-28.7,33.9-60.3,65.2-94.4,93.6c-18.7,15.5-38.2,29.9-58.4,43.3c-18.8,12.3-37.8,23.4-56.9,33.7
							c-35.3,19-70.9,35.3-106.7,52.5c-28.3,13.6-56.6,27.6-84.5,43.7c-20.4,11.8-40.2,24.7-59.1,38.7
							c-82.7,61.6-156.4,154.7-206.9,272.9c-29.2,68.8-50.4,144.8-76.4,216.6c-24.9,68.8-54.5,133.5-87.9,192.9
							c-43.2,76.7-92.9,144.6-147.5,201.1c-3.7,3.8-7.4,7.6-11.1,11.3c-2.2,2.2-4.5,4.3-6.6,6.4"/>
						<path id="Path_5934" class="st2" d="M1095.8,51.7c-68.6,125.2-156.7,224.7-254.6,288c-100.3,64.8-210,91.6-308,164.5
							c-81.8,60.9-154.1,154.3-203.7,271.9c-29,68.8-49.9,144.8-75.8,216.4c-60.4,167-148.6,309.6-253.7,410.6"/>
					</g>
				</g>
			</g>
		</g>
	</g>
	
		<radialGradient id="Rectangle_1891_00000106864343140511508150000004152381703763042200_" cx="1961.4781" cy="1013.0377" r="0.5" gradientTransform="matrix(1920 0 0 -1233 -3765078 1249692)" gradientUnits="userSpaceOnUse">
		<stop  offset="0" style="stop-color:#FFFFFF;stop-opacity:0"/>
		<stop  offset="0.754" style="stop-color:#FFFFFF;stop-opacity:0.827"/>
		<stop  offset="1" style="stop-color:#FFFFFF"/>
	</radialGradient>
	
		<rect id="Rectangle_1891" style="fill:url(#Rectangle_1891_00000106864343140511508150000004152381703763042200_);" width="1920" height="1233"/>
</g>
</svg>
