<svg xmlns="http://www.w3.org/2000/svg" width="185.677" height="24.566" viewBox="0 0 185.677 24.566">
  <g id="Group_546" data-name="Group 546" transform="translate(-878 -108.697)">
    <path id="Path_2867" data-name="Path 2867" d="M185.291,167.862q-2.036,1.746-5.333,4.63a60.7,60.7,0,0,1-6.058,4.731,8.775,8.775,0,0,1-4.354,1.827,1.178,1.178,0,0,1-.79-.353.967.967,0,0,1-.382-.723c0-.5.64-1.579,3.684-3.882a22.384,22.384,0,0,0,5.143-4.829,7.927,7.927,0,0,0,1.594-4.569c0-2.031-.986-2.486-1.823-2.507l-.023,0-.147,0-.007.009c-.148.017-.436.062-1.066.188a6.526,6.526,0,0,1-1.258.189,1.34,1.34,0,0,1-.974-.441,1.136,1.136,0,0,1-.392-.925,1.853,1.853,0,0,1,.116-.7,2.614,2.614,0,0,0,1.541.831,1.63,1.63,0,0,0,1.153-.45,1.564,1.564,0,0,0,.485-1.188,1.313,1.313,0,0,0-.578-1.083,2.046,2.046,0,0,0-1.255-.41,2.464,2.464,0,0,0-2.086,1.294,3.436,3.436,0,0,0-.454,2.723c-1.375,1.034-8.771,7.03-10.743,8.663s-3.742,3.059-5.254,4.236a40.373,40.373,0,0,1-4.119,2.868,6.179,6.179,0,0,1-2.643,1.057c-.267,0-.446-.084-.446-.494,0-.6,1.3-2.723,7.5-9.441.45-.514,1.006-1.177,1.653-1.97s1.484-1.8,2.521-3.03l1.6-1.969-4.706.336-2.547,2.991q.041-.235.058-.389c.015-.138.038-.285.074-.5a2.341,2.341,0,0,0-.793-1.846,3.538,3.538,0,0,0-2.2-.558,18.02,18.02,0,0,0-5.967,1.08,20.51,20.51,0,0,0-5.539,2.941,15.49,15.49,0,0,0-3.224,3.235l-1.752,1.449c-1.974,1.633-3.742,3.059-5.254,4.236a40.314,40.314,0,0,1-4.12,2.868,6.179,6.179,0,0,1-2.643,1.057c-.267,0-.445-.084-.445-.494,0-.6,1.3-2.723,7.5-9.441.45-.514,1.006-1.177,1.654-1.97s1.484-1.8,2.52-3.03l1.6-1.969-4.706.336-2.547,2.991q.04-.235.058-.389c.015-.138.038-.285.074-.5a2.341,2.341,0,0,0-.793-1.846,3.537,3.537,0,0,0-2.2-.558,18.025,18.025,0,0,0-5.967,1.08,20.518,20.518,0,0,0-5.539,2.941,15.493,15.493,0,0,0-3.439,3.547,90.215,90.215,0,0,1-6.956,5.759c-3.142,2.349-5.524,3.54-7.082,3.54a.453.453,0,0,1-.373-.123.947.947,0,0,1,.015-.741,6.631,6.631,0,0,1,1.5-2.43l11.785-13.184h-4.949l-.056.033c-2.584,1.571-17.052,13.391-18.886,14.618a8.775,8.775,0,0,1-4.354,1.827,1.18,1.18,0,0,1-.79-.353.966.966,0,0,1-.382-.723c0-.5.64-1.579,3.684-3.882a22.392,22.392,0,0,0,5.142-4.829,7.923,7.923,0,0,0,1.593-4.569c0-2.076-1.023-2.511-1.881-2.511-2.137,0-4.724,1.008-7.69,3-2.535,1.7-5.5,3.931-8.839,6.646,1.374-1.8,2.335-3.121,2.864-3.952a6.246,6.246,0,0,0,1.054-3.372c0-1.916-1.023-2.318-1.881-2.318-2.051,0-15.429,11.387-18.023,13.326-3.142,2.349-5.525,3.54-7.082,3.54a.456.456,0,0,1-.374-.123.95.95,0,0,1,.015-.741,6.648,6.648,0,0,1,1.5-2.43L62.6,162.573H57.649l-.056.033a102.514,102.514,0,0,0-8.738,6.5c-4,3.361-7.088,5.85-9.188,7.4-2.295,1.691-4.148,2.549-5.508,2.549-1.12,0-1.12-.483-1.12-.69,0-.12.121-.53,1.244-1.736a19.38,19.38,0,0,1,2.731-2.436,22.873,22.873,0,0,0,5.122-4.881,7.983,7.983,0,0,0,1.515-4.517,3.207,3.207,0,0,0-.506-1.916,1.738,1.738,0,0,0-1.426-.7,10.161,10.161,0,0,0-4.5,1.513,48.013,48.013,0,0,0-5.72,3.676q-2.222,1.641-4.612,3.386l-1.455,1.065c2.471-3.2,3.722-5.8,3.722-7.754,0-1.234-.7-1.886-2.025-1.886a11.522,11.522,0,0,0-6.018,2.317c-2,1.333-4.829,3.491-8.631,6.574l0-.005,7.346-8.886H15.819l-4.683,5.127-.147.148c-.125.135-.26.278-.412.43L0,179.707H4.786l1.463-1.366c5.01-4.5,9.146-8.016,12.644-10.752,3.521-2.76,6.2-4.159,7.948-4.159a.563.563,0,0,1,.475.177.572.572,0,0,1,.16.364c0,.122-.1.529-1.057,1.662-.711.853-1.586,1.827-2.677,2.974-1.056,1.094-1.84,1.925-2.357,2.477l-7.868,8.623h4.689l.068-.063c2.218-2.078,5.041-4.443,8.392-7.032,3.4-2.629,6.536-4.861,9.316-6.634,3.436-2.191,4.807-2.651,5.354-2.651.281,0,.541.078.541.643,0,.32-.5,1.321-3.809,4.432a33.235,33.235,0,0,0-4.786,5.324,7.907,7.907,0,0,0-1.439,4.347,1.9,1.9,0,0,0,2.119,2.119c1.824,0,3.949-.895,6.318-2.661,2.33-1.735,5.736-4.527,10.122-8.3,0,0,3.669-3.091,5.545-4.32-.094.1-.189.195-.288.294-5.255,5.255-7.919,9.648-7.919,13.056a1.683,1.683,0,0,0,1.832,1.931c1.884,0,4.328-1.109,7.265-3.294,2.9-2.159,16.513-13.573,17.744-13.573.348,0,.348.138.349.244-.037.282-1,1.757-7.018,8.479l-6.79,7.658h4.39l.066-.062c2.381-2.189,4.939-4.445,7.6-6.707a94.064,94.064,0,0,1,8.606-6.477c3.016-2.016,5.288-3.039,6.753-3.039.456,0,.761.085.837.236.041.08.087.334-.373.969a29.241,29.241,0,0,1-4.057,4.151,20.308,20.308,0,0,0-4.069,4.536,8.245,8.245,0,0,0-1.49,4.269,3.121,3.121,0,0,0,.547,1.728,2.077,2.077,0,0,0,1.867.881,9.544,9.544,0,0,0,4.753-1.805A50.263,50.263,0,0,0,92.18,174.2c1.332-1.138,8.99-7.775,11.319-9.294q-.144.149-.294.3c-5.255,5.255-7.92,9.648-7.92,13.056a1.684,1.684,0,0,0,1.833,1.931c1.884,0,4.328-1.109,7.264-3.294,1.71-1.272,3.525-2.751,5.4-4.4a8.844,8.844,0,0,0-.542,3,5.424,5.424,0,0,0,.973,3.467,3.152,3.152,0,0,0,2.556,1.226c2.154,0,5.307-1.874,9.623-5.722a11.528,11.528,0,0,0-.939,3.889c0,1.515.892,1.833,1.639,1.833a9.129,9.129,0,0,0,5.055-2.032c1.676-1.2,4.208-3.193,7.533-5.944a8.879,8.879,0,0,0-.656,3.283A5.424,5.424,0,0,0,136,178.97a3.151,3.151,0,0,0,2.556,1.226c2.154,0,5.306-1.874,9.623-5.722a11.539,11.539,0,0,0-.939,3.889c0,1.515.892,1.833,1.639,1.833a9.132,9.132,0,0,0,5.055-2.032c1.856-1.322,4.755-3.625,8.618-6.844l1.926-1.625c1.655-1.284,4.255-3.391,7.946-6.441a2.078,2.078,0,0,0,1.626.609,6.056,6.056,0,0,0,2.394-.355.569.569,0,0,1,.2-.037.732.732,0,0,1,.332.136c.216.206-.11.731-.323,1.026a29.211,29.211,0,0,1-4.057,4.151,20.294,20.294,0,0,0-4.069,4.536,8.245,8.245,0,0,0-1.49,4.269,3.125,3.125,0,0,0,.547,1.728,2.078,2.078,0,0,0,1.867.881,9.544,9.544,0,0,0,4.753-1.805,50.2,50.2,0,0,0,5.624-4.187c1.875-1.6,3.818-3.34,5.776-5.17l.074-.069v-1.433Zm-31.6-3.07c0,1.26-.992,3.051-2.949,5.324a41.184,41.184,0,0,1-6.7,6.217c-2.435,1.8-4.313,2.717-5.58,2.717A1.423,1.423,0,0,1,137,177.588c0-.947.873-2.63,2.6-5a33.673,33.673,0,0,1,6.161-6.448c2.322-1.864,4.45-2.808,6.324-2.808,1.1,0,1.609.465,1.609,1.463m-25.784,0c0,1.26-.992,3.051-2.948,5.324a41.187,41.187,0,0,1-6.7,6.217c-2.435,1.8-4.312,2.717-5.58,2.717a1.424,1.424,0,0,1-1.463-1.463c0-.947.873-2.63,2.6-5a33.675,33.675,0,0,1,6.161-6.448c2.322-1.864,4.449-2.808,6.324-2.808,1.1,0,1.608.465,1.608,1.463" transform="translate(878 -46.933)" fill="#09363c"/>
    <path id="Path_2868" data-name="Path 2868" d="M110.283,157.651l0,0c.008.008.018.016.027.024l.023.027,0,0c.545.41,2.3.193,3.284-.788a2.059,2.059,0,0,0,.389-2.885h0l-.027-.025-.024-.026,0,0a2.059,2.059,0,0,0-2.885.388c-.98.98-1.2,2.739-.788,3.284" transform="translate(828.845 -44.852)" fill="#09363c"/>
    <path id="Path_2869" data-name="Path 2869" d="M194.943,157.651l0,0c.008.008.018.016.027.024l.023.027,0,0c.545.41,2.3.193,3.284-.788a2.059,2.059,0,0,0,.389-2.885h0l-.027-.025-.024-.026,0,0a2.059,2.059,0,0,0-2.885.388c-.98.98-1.2,2.739-.788,3.284" transform="translate(791.043 -44.852)" fill="#09363c"/>
  </g>
</svg>
