<?xml version="1.0" encoding="UTF-8"?>
<svg id="Layer_1" data-name="Layer 1" xmlns="http://www.w3.org/2000/svg" viewBox="0 0 160.02 32.7">
  <defs>
    <style>
      .cls-1 {
        fill: #003a40;
      }
    </style>
  </defs>
  <g>
    <path class="cls-1" d="m159.67,10.55c-1.17,1-2.7,2.33-4.6,3.99-1.88,1.65-3.64,3.02-5.22,4.08-1.56,1.04-2.82,1.57-3.75,1.57-.23,0-.45-.1-.68-.3-.22-.2-.33-.4-.33-.62,0-.43.55-1.36,3.17-3.35,2.04-1.48,3.53-2.88,4.43-4.16.91-1.3,1.37-2.62,1.37-3.94,0-1.75-.85-2.14-1.57-2.16h-.15c-.13.02-.38.06-.92.17-.48.11-.85.16-1.08.16-.31,0-.58-.12-.84-.38s-.36-.51-.34-.8c0-.24.03-.44.1-.6.54.48.98.72,1.33.72.39,0,.72-.13.99-.39.28-.26.42-.61.42-1.02,0-.37-.17-.69-.5-.93-.31-.23-.68-.35-1.08-.35-.71,0-1.32.37-1.8,1.11-.45.69-.58,1.48-.39,2.35-1.18.89-7.56,6.06-9.26,7.47s-3.22,2.64-4.53,3.65c-1.31,1.02-2.5,1.85-3.55,2.47-1.02.6-1.79.91-2.28.91-.23,0-.38-.07-.38-.43,0-.52,1.12-2.35,6.47-8.14.39-.44.87-1.01,1.42-1.7.56-.68,1.28-1.55,2.17-2.61l1.38-1.7-4.06.29-2.19,2.58c.02-.14.04-.25.05-.34,0-.12.03-.25.06-.43-.03-.73-.26-1.26-.68-1.59-.42-.32-1.04-.48-1.9-.48-1.66,0-3.39.31-5.14.93s-3.36,1.47-4.77,2.53c-1.1.83-2.05,1.78-2.78,2.79l-1.51,1.25c-1.7,1.41-3.22,2.64-4.53,3.65-1.31,1.02-2.5,1.85-3.55,2.47-1.02.6-1.79.91-2.28.91-.23,0-.38-.07-.38-.43,0-.52,1.12-2.35,6.47-8.14.39-.44.87-1.01,1.42-1.7.56-.68,1.28-1.55,2.17-2.61l1.38-1.7-4.06.29-2.19,2.58c.02-.14.04-.25.05-.34.01-.12.03-.25.06-.43-.03-.73-.26-1.26-.68-1.59-.42-.32-1.04-.48-1.9-.48-1.66,0-3.39.31-5.14.93s-3.36,1.47-4.77,2.53c-1.18.89-2.19,1.93-2.96,3.06-1.88,1.73-3.9,3.4-5.99,4.96-2.71,2.02-4.76,3.05-6.1,3.05-.16,0-.27-.04-.32-.11-.08-.11-.08-.33.01-.64.19-.64.62-1.34,1.29-2.09l10.16-11.36h-4.26l-.05.03c-2.23,1.35-14.69,11.54-16.27,12.6-1.56,1.04-2.82,1.57-3.75,1.57-.23,0-.45-.1-.68-.3-.22-.2-.33-.4-.33-.62,0-.43.55-1.36,3.17-3.35,2.04-1.48,3.53-2.88,4.43-4.16.91-1.3,1.37-2.62,1.37-3.94,0-1.79-.88-2.16-1.62-2.16-1.84,0-4.07.87-6.63,2.58-2.18,1.46-4.74,3.39-7.62,5.73,1.18-1.55,2.01-2.69,2.47-3.41.6-.95.91-1.93.91-2.91,0-1.65-.88-2-1.62-2-1.77,0-13.3,9.81-15.53,11.48-2.71,2.02-4.76,3.05-6.1,3.05-.16,0-.27-.04-.32-.11-.08-.11-.08-.33,0-.64.19-.64.62-1.34,1.29-2.09l10.16-11.36h-4.26l-.05.03c-2.84,1.73-7.53,5.6-7.53,5.6-3.44,2.9-6.11,5.04-7.92,6.38-1.98,1.46-3.57,2.2-4.75,2.2-.96,0-.96-.42-.96-.59,0-.1.1-.46,1.07-1.5.73-.78,1.52-1.49,2.35-2.1,2.07-1.54,3.55-2.96,4.41-4.21.87-1.27,1.31-2.58,1.31-3.89,0-.7-.15-1.25-.44-1.65-.3-.39-.73-.6-1.23-.6-.99,0-2.25.43-3.88,1.3-1.58.85-3.24,1.91-4.93,3.17-1.28.94-2.6,1.91-3.97,2.92l-1.25.92c2.13-2.75,3.21-5,3.21-6.68,0-1.06-.6-1.63-1.75-1.63-1.45,0-3.19.67-5.19,2-1.72,1.15-4.16,3.01-7.44,5.67h0l6.33-7.66h-3.46l-4.03,4.42-.13.13c-.11.12-.22.24-.36.37L0,20.75h4.12l1.26-1.18c4.32-3.88,7.88-6.91,10.9-9.26,3.03-2.38,5.34-3.58,6.85-3.58.25,0,.35.09.41.15.09.11.14.21.14.31s-.09.46-.91,1.43c-.61.74-1.37,1.57-2.31,2.56-.91.94-1.59,1.66-2.03,2.13l-6.78,7.43h4.04l.06-.05c1.91-1.79,4.34-3.83,7.23-6.06,2.93-2.27,5.63-4.19,8.03-5.72,2.96-1.89,4.14-2.28,4.61-2.28.24,0,.47.07.47.55,0,.28-.43,1.14-3.28,3.82-1.91,1.79-3.29,3.34-4.12,4.59-.82,1.25-1.24,2.51-1.24,3.75s.63,1.83,1.83,1.83c1.57,0,3.4-.77,5.44-2.29,2.01-1.5,4.94-3.9,8.72-7.15,0,0,3.16-2.66,4.78-3.72-.08.08-.16.17-.25.25-4.53,4.53-6.82,8.31-6.82,11.25,0,1.09.55,1.66,1.58,1.66,1.62,0,3.73-.96,6.26-2.84,2.5-1.86,14.23-11.7,15.29-11.7.3,0,.3.12.3.21-.03.24-.86,1.51-6.05,7.31l-5.85,6.6h3.78l.06-.05c2.05-1.89,4.26-3.83,6.55-5.78s4.79-3.83,7.42-5.58c2.6-1.74,4.56-2.62,5.82-2.62.39,0,.66.07.72.2.04.07.07.29-.32.83-.64.89-1.82,2.09-3.5,3.58-1.48,1.26-2.66,2.57-3.51,3.91-.85,1.35-1.28,2.59-1.28,3.68,0,.51.16,1.01.47,1.49.33.5.87.76,1.61.76,1.09,0,2.47-.52,4.1-1.56,1.6-1.02,3.23-2.23,4.85-3.61,1.15-.98,7.75-6.7,9.75-8.01-.08.09-.17.17-.25.26-4.53,4.53-6.82,8.31-6.82,11.25,0,1.09.55,1.66,1.58,1.66,1.62,0,3.73-.96,6.26-2.84,1.47-1.1,3.04-2.37,4.66-3.79-.31.86-.47,1.73-.47,2.59,0,1.29.28,2.3.84,2.99.57.7,1.31,1.06,2.2,1.06,1.86,0,4.57-1.61,8.29-4.93-.54,1.39-.81,2.51-.81,3.35,0,1.31.77,1.58,1.41,1.58,1.26,0,2.73-.59,4.36-1.75,1.44-1.03,3.63-2.75,6.49-5.12-.38.95-.57,1.9-.57,2.83,0,1.29.28,2.3.84,2.99.57.7,1.31,1.06,2.2,1.06,1.86,0,4.57-1.61,8.29-4.93-.54,1.39-.81,2.51-.81,3.35,0,1.31.77,1.58,1.41,1.58,1.26,0,2.73-.59,4.36-1.75,1.6-1.14,4.1-3.12,7.43-5.9l1.66-1.4c1.43-1.11,3.67-2.92,6.85-5.55.26.32.73.5,1.4.52.76.03,1.46-.07,2.06-.31.06-.02.13-.03.17-.03.15.03.22.07.29.12.19.18-.09.63-.28.88-.64.89-1.82,2.09-3.5,3.58-1.48,1.26-2.66,2.57-3.51,3.91-.85,1.35-1.28,2.59-1.28,3.68,0,.51.16,1.01.47,1.49.33.5.87.76,1.61.76,1.09,0,2.47-.52,4.1-1.56,1.6-1.02,3.23-2.23,4.85-3.61,1.62-1.38,3.29-2.88,4.98-4.45l.06-.06v-1.23l-.33.29h-.02Zm-27.23-2.66c0,1.09-.85,2.63-2.54,4.59-1.71,1.98-3.65,3.79-5.77,5.36-2.1,1.55-3.72,2.34-4.81,2.34-.37,0-.66-.12-.9-.36s-.36-.54-.36-.9c0-.82.75-2.27,2.24-4.31,1.5-2.06,3.29-3.93,5.31-5.56,2-1.61,3.83-2.42,5.45-2.42.95,0,1.39.4,1.39,1.26h-.01Zm-22.22,0c0,1.09-.85,2.63-2.54,4.59-1.71,1.98-3.65,3.79-5.77,5.36-2.1,1.55-3.72,2.34-4.81,2.34-.37,0-.66-.12-.9-.36s-.36-.54-.36-.9c0-.82.75-2.27,2.24-4.31,1.5-2.06,3.29-3.93,5.31-5.56,2-1.61,3.83-2.42,5.45-2.42.95,0,1.39.4,1.39,1.26h0Z"/>
    <path class="cls-1" d="m52.68,3.54h0l.02.02s0,.02.02.02h0c.47.35,1.99.16,2.83-.68s.89-1.88.33-2.49h0l-.02-.02s0-.02-.02-.02h0c-.61-.56-1.63-.52-2.49.34s-1.03,2.36-.68,2.83h0Z"/>
    <path class="cls-1" d="m93.05,3.54h0l.02.02s.01.02.02.02h0c.47.35,1.99.16,2.83-.68s.89-1.88.33-2.49h0l-.02-.02s-.01-.02-.02-.02h0c-.61-.56-1.63-.52-2.49.34s-1.03,2.36-.68,2.83h0Z"/>
  </g>
  <g>
    <path class="cls-1" d="m52.53,27.96c-.26-.12-.56-.18-.91-.18h-1.44v4.8h.81v-1.82h.64c.35,0,.65-.06.91-.18s.45-.29.6-.52c.14-.22.22-.49.22-.8s-.07-.57-.22-.79c-.14-.22-.34-.39-.6-.51h-.01Zm-.24,1.89c-.17.13-.39.2-.67.2h-.64v-1.56h.64c.28,0,.5.07.67.2s.25.32.25.58-.08.45-.25.58Z"/>
    <path class="cls-1" d="m56.99,30.57c.26-.12.45-.3.6-.52.14-.22.22-.49.22-.79s-.07-.56-.22-.79c-.14-.22-.34-.39-.6-.52-.26-.12-.56-.19-.91-.19h-1.48v4.8h.81v-1.82h.5l1.2,1.82h.98l-1.35-1.91c.09-.03.17-.06.25-.1v.02Zm-1.58-2.1h.64c.19,0,.35.03.49.1.14.06.24.16.32.27.08.12.12.27.12.44s-.04.31-.12.44c-.08.12-.18.21-.32.27s-.3.09-.49.09h-.64s0-1.61,0-1.61Z"/>
    <polygon class="cls-1" points="59.65 27.78 59.15 27.78 59.15 32.58 59.65 32.58 59.95 32.58 62.07 32.58 62.07 31.86 59.95 31.86 59.95 30.36 61.93 30.36 61.93 29.66 59.95 29.66 59.95 28.49 62.07 28.49 62.07 27.78 59.95 27.78 59.65 27.78"/>
    <polygon class="cls-1" points="63.06 28.52 64.32 28.52 64.32 32.58 65.13 32.58 65.13 28.52 66.39 28.52 66.39 27.78 63.06 27.78 63.06 28.52"/>
    <path class="cls-1" d="m73.58,31.41c.19-.23.37-.46.54-.7l-.53-.37c-.15.22-.31.43-.48.63-.06.07-.13.14-.19.21l-1.03-1.16c.12-.07.22-.15.32-.22.13-.1.24-.2.33-.31.09-.11.16-.21.21-.33.05-.11.07-.24.07-.37,0-.19-.05-.37-.14-.54-.1-.17-.24-.3-.42-.41s-.41-.16-.67-.16-.49.05-.68.15-.34.23-.45.4-.16.36-.16.57c0,.17.04.32.12.47.08.14.17.27.28.39.08.08.15.16.22.24-.12.05-.24.11-.37.18-.14.08-.28.18-.4.29s-.22.25-.3.4c-.08.16-.12.34-.12.54,0,.27.07.51.23.72.15.2.35.36.59.47s.5.16.78.16c.31,0,.61-.06.88-.17.24-.1.46-.23.66-.38l.43.48h.87l-.81-.91c.08-.08.16-.17.23-.25v-.02Zm-2.42-2.96c.09-.1.23-.15.4-.15.11,0,.21.02.29.07s.14.11.18.19.06.17.06.27c0,.14-.07.29-.21.44-.1.11-.23.21-.39.32-.1-.12-.2-.23-.29-.34-.12-.14-.18-.28-.18-.43s.05-.28.14-.37Zm.84,3.41c-.2.09-.4.14-.61.14-.17,0-.33-.03-.46-.1-.13-.06-.24-.15-.31-.26-.08-.11-.11-.24-.11-.39,0-.16.04-.3.12-.41s.18-.21.31-.29c.11-.08.24-.14.36-.21l1.12,1.26c-.14.1-.28.19-.42.26Z"/>
    <path class="cls-1" d="m80.03,27.69c-.35,0-.68.06-.98.18s-.57.29-.79.51-.4.48-.52.79c-.13.3-.19.64-.19,1s.06.69.19,1c.13.3.3.57.52.79.22.22.49.4.79.51.3.12.63.18.98.18s.64-.04.88-.13c.23-.09.45-.21.65-.38v-.97c-.11.13-.24.25-.38.35-.15.1-.31.18-.5.24-.18.06-.39.09-.62.09-.29,0-.56-.07-.81-.21s-.45-.34-.6-.59-.23-.55-.23-.89.08-.64.23-.9c.15-.25.35-.45.6-.59s.52-.21.81-.21c.23,0,.43.03.62.09.18.06.35.14.5.24s.27.22.38.35v-.96c-.2-.17-.41-.3-.65-.38-.24-.09-.53-.13-.88-.13v.02Z"/>
    <path class="cls-1" d="m87.02,28.4c-.23-.22-.49-.4-.79-.52-.3-.13-.63-.19-.99-.19s-.68.06-.98.19c-.3.13-.57.3-.79.52-.23.22-.4.48-.52.79-.12.3-.18.63-.18.99s.06.69.18.99c.12.31.3.57.52.8.22.22.49.4.79.52.3.13.63.19.99.19s.7-.06,1-.19c.3-.13.56-.3.79-.52.22-.22.4-.49.52-.8.12-.31.18-.64.18-.99s-.06-.69-.18-.99c-.12-.3-.3-.56-.52-.79h-.02Zm-.36,2.66c-.14.26-.33.46-.57.61s-.53.22-.84.22-.59-.07-.84-.22c-.24-.15-.44-.35-.58-.61s-.21-.55-.21-.88.07-.62.21-.88c.14-.26.33-.46.58-.61.24-.15.52-.22.84-.22s.61.07.85.22.43.35.57.61.21.55.21.88-.07.62-.21.88h-.01Z"/>
    <path class="cls-1" d="m91.64,30.97c0,.29-.08.53-.24.71-.16.18-.39.27-.7.27s-.54-.09-.7-.27c-.16-.18-.24-.42-.24-.71v-3.19h-.81v3.22c0,.27.04.5.13.71s.2.39.36.53c.16.15.34.26.55.34.21.08.45.12.7.12s.49-.04.7-.12.4-.19.56-.34c.16-.15.28-.32.36-.53s.13-.44.13-.71v-3.22h-.81v3.19h0Z"/>
    <polygon class="cls-1" points="93.48 28.52 94.75 28.52 94.75 32.58 95.55 32.58 95.55 28.52 96.82 28.52 96.82 27.78 93.48 27.78 93.48 28.52"/>
    <path class="cls-1" d="m100.53,30.97c0,.29-.08.53-.24.71-.16.18-.39.27-.7.27s-.54-.09-.7-.27c-.16-.18-.24-.42-.24-.71v-3.19h-.81v3.22c0,.27.04.5.13.71s.2.39.36.53c.16.15.34.26.55.34.21.08.45.12.7.12s.49-.04.7-.12.4-.19.56-.34c.16-.15.28-.32.36-.53s.13-.44.13-.71v-3.22h-.81v3.19h0Z"/>
    <path class="cls-1" d="m105.24,30.57c.26-.12.45-.3.6-.52.14-.22.22-.49.22-.79s-.07-.56-.22-.79c-.14-.22-.34-.39-.6-.52-.26-.12-.56-.19-.91-.19h-1.48v4.8h.81v-1.82h.5l1.2,1.82h.98l-1.35-1.91c.09-.03.17-.06.25-.1v.02Zm-1.58-2.1h.64c.19,0,.35.03.49.1.14.06.24.16.32.27.08.12.12.27.12.44s-.04.31-.12.44c-.08.12-.18.21-.32.27s-.3.09-.49.09h-.64s0-1.61,0-1.61Z"/>
    <polygon class="cls-1" points="110.31 28.49 110.31 27.78 108.19 27.78 107.89 27.78 107.4 27.78 107.4 32.58 107.89 32.58 108.19 32.58 110.31 32.58 110.31 31.86 108.19 31.86 108.19 30.36 110.17 30.36 110.17 29.66 108.19 29.66 108.19 28.49 110.31 28.49"/>
  </g>
</svg>