<?xml version="1.0" encoding="UTF-8"?>
<svg id="Layer_1" data-name="Layer 1" xmlns="http://www.w3.org/2000/svg" viewBox="0 0 160.02 105.92">
  <defs>
    <style>
      .cls-1 {
        fill: #003a40;
      }
    </style>
  </defs>
  <g>
    <path class="cls-1" d="m159.67,83.77c-1.17,1-2.7,2.33-4.6,3.99-1.88,1.65-3.64,3.02-5.22,4.08-1.56,1.04-2.82,1.57-3.75,1.57-.23,0-.45-.1-.68-.3-.22-.2-.33-.4-.33-.62,0-.43.55-1.36,3.17-3.35,2.04-1.48,3.53-2.88,4.43-4.16.91-1.3,1.37-2.62,1.37-3.94,0-1.75-.85-2.14-1.57-2.16h-.15c-.13.02-.38.06-.92.17-.48.11-.85.16-1.08.16-.31,0-.58-.12-.84-.38s-.36-.51-.34-.8c0-.24.03-.44.1-.6.54.48.98.72,1.33.72.39,0,.72-.13.99-.39.28-.26.42-.61.42-1.02,0-.37-.17-.69-.5-.93-.31-.23-.68-.35-1.08-.35-.71,0-1.32.37-1.8,1.11-.45.69-.58,1.48-.39,2.35-1.18.89-7.56,6.06-9.26,7.47s-3.22,2.64-4.53,3.65c-1.31,1.02-2.5,1.85-3.55,2.47-1.02.6-1.79.91-2.28.91-.23,0-.38-.07-.38-.43,0-.52,1.12-2.35,6.47-8.14.39-.44.87-1.01,1.42-1.7.56-.68,1.28-1.55,2.17-2.61l1.38-1.7-4.06.29-2.19,2.58c.02-.14.04-.25.05-.34,0-.12.03-.25.06-.43-.03-.73-.26-1.26-.68-1.59-.42-.32-1.04-.48-1.9-.48-1.66,0-3.39.31-5.14.93s-3.36,1.47-4.77,2.53c-1.1.83-2.05,1.78-2.78,2.79l-1.51,1.25c-1.7,1.41-3.22,2.64-4.53,3.65-1.31,1.02-2.5,1.85-3.55,2.47-1.02.6-1.79.91-2.28.91-.23,0-.38-.07-.38-.43,0-.52,1.12-2.35,6.47-8.14.39-.44.87-1.01,1.42-1.7.56-.68,1.28-1.55,2.17-2.61l1.38-1.7-4.06.29-2.19,2.58c.02-.14.04-.25.05-.34.01-.12.03-.25.06-.43-.03-.73-.26-1.26-.68-1.59-.42-.32-1.04-.48-1.9-.48-1.66,0-3.39.31-5.14.93s-3.36,1.47-4.77,2.53c-1.18.89-2.19,1.93-2.96,3.06-1.88,1.73-3.9,3.4-5.99,4.96-2.71,2.02-4.76,3.05-6.1,3.05-.16,0-.27-.04-.32-.11-.08-.11-.08-.33.01-.64.19-.64.62-1.34,1.29-2.09l10.16-11.36h-4.26l-.05.03c-2.23,1.35-14.69,11.54-16.27,12.6-1.56,1.04-2.82,1.57-3.75,1.57-.23,0-.45-.1-.68-.3-.22-.2-.33-.4-.33-.62,0-.43.55-1.36,3.17-3.35,2.04-1.48,3.53-2.88,4.43-4.16.91-1.3,1.37-2.62,1.37-3.94,0-1.79-.88-2.16-1.62-2.16-1.84,0-4.07.87-6.63,2.58-2.18,1.46-4.74,3.39-7.62,5.73,1.18-1.55,2.01-2.69,2.47-3.41.6-.95.91-1.93.91-2.91,0-1.65-.88-2-1.62-2-1.77,0-13.3,9.81-15.53,11.48-2.71,2.02-4.76,3.05-6.1,3.05-.16,0-.27-.04-.32-.11-.08-.11-.08-.33,0-.64.19-.64.62-1.34,1.29-2.09l10.16-11.36h-4.26l-.05.03c-2.84,1.73-7.53,5.6-7.53,5.6-3.44,2.9-6.11,5.04-7.92,6.38-1.98,1.46-3.57,2.2-4.75,2.2-.96,0-.96-.42-.96-.59,0-.1.1-.46,1.07-1.5.73-.78,1.52-1.49,2.35-2.1,2.07-1.54,3.55-2.96,4.41-4.21.87-1.27,1.31-2.58,1.31-3.89,0-.7-.15-1.25-.44-1.65-.3-.39-.73-.6-1.23-.6-.99,0-2.25.43-3.88,1.3-1.58.85-3.24,1.91-4.93,3.17-1.28.94-2.6,1.91-3.97,2.92l-1.25.92c2.13-2.75,3.21-5,3.21-6.68,0-1.06-.6-1.63-1.75-1.63-1.45,0-3.19.67-5.19,2-1.72,1.15-4.16,3.01-7.44,5.67h0l6.33-7.66h-3.46l-4.03,4.42-.13.13c-.11.12-.22.24-.36.37L0,93.97h4.12l1.26-1.18c4.32-3.88,7.88-6.91,10.9-9.26,3.03-2.38,5.34-3.58,6.85-3.58.25,0,.35.09.41.15.09.11.14.21.14.31s-.09.46-.91,1.43c-.61.74-1.37,1.57-2.31,2.56-.91.94-1.59,1.66-2.03,2.13l-6.78,7.43h4.04l.06-.05c1.91-1.79,4.34-3.83,7.23-6.06,2.93-2.27,5.63-4.19,8.03-5.72,2.96-1.89,4.14-2.28,4.61-2.28.24,0,.47.07.47.55,0,.28-.43,1.14-3.28,3.82-1.91,1.79-3.29,3.34-4.12,4.59-.82,1.25-1.24,2.51-1.24,3.75s.63,1.83,1.83,1.83c1.57,0,3.4-.77,5.44-2.29,2.01-1.5,4.94-3.9,8.72-7.15,0,0,3.16-2.66,4.78-3.72-.08.08-.16.17-.25.25-4.53,4.53-6.82,8.31-6.82,11.25,0,1.09.55,1.66,1.58,1.66,1.62,0,3.73-.96,6.26-2.84,2.5-1.86,14.23-11.7,15.29-11.7.3,0,.3.12.3.21-.03.24-.86,1.51-6.05,7.31l-5.85,6.6h3.78l.06-.05c2.05-1.89,4.26-3.83,6.55-5.78s4.79-3.83,7.42-5.58c2.6-1.74,4.56-2.62,5.82-2.62.39,0,.66.07.72.2.04.07.07.29-.32.83-.64.89-1.82,2.09-3.5,3.58-1.48,1.26-2.66,2.57-3.51,3.91-.85,1.35-1.28,2.59-1.28,3.68,0,.51.16,1.01.47,1.49.33.5.87.76,1.61.76,1.09,0,2.47-.52,4.1-1.56,1.6-1.02,3.23-2.23,4.85-3.61,1.15-.98,7.75-6.7,9.75-8.01-.08.09-.17.17-.25.26-4.53,4.53-6.82,8.31-6.82,11.25,0,1.09.55,1.66,1.58,1.66,1.62,0,3.73-.96,6.26-2.84,1.47-1.1,3.04-2.37,4.66-3.79-.31.86-.47,1.73-.47,2.59,0,1.29.28,2.3.84,2.99.57.7,1.31,1.06,2.2,1.06,1.86,0,4.57-1.61,8.29-4.93-.54,1.39-.81,2.51-.81,3.35,0,1.31.77,1.58,1.41,1.58,1.26,0,2.73-.59,4.36-1.75,1.44-1.03,3.63-2.75,6.49-5.12-.38.95-.57,1.9-.57,2.83,0,1.29.28,2.3.84,2.99.57.7,1.31,1.06,2.2,1.06,1.86,0,4.57-1.61,8.29-4.93-.54,1.39-.81,2.51-.81,3.35,0,1.31.77,1.58,1.41,1.58,1.26,0,2.73-.59,4.36-1.75,1.6-1.14,4.1-3.12,7.43-5.9l1.66-1.4c1.43-1.11,3.67-2.92,6.85-5.55.26.32.73.5,1.4.52.76.03,1.46-.07,2.06-.31.06-.02.13-.03.17-.03.15.03.22.07.29.12.19.18-.09.63-.28.88-.64.89-1.82,2.09-3.5,3.58-1.48,1.26-2.66,2.57-3.51,3.91-.85,1.35-1.28,2.59-1.28,3.68,0,.51.16,1.01.47,1.49.33.5.87.76,1.61.76,1.09,0,2.47-.52,4.1-1.56,1.6-1.02,3.23-2.23,4.85-3.61,1.62-1.38,3.29-2.88,4.98-4.45l.06-.06v-1.23l-.33.29h-.02Zm-27.23-2.66c0,1.09-.85,2.63-2.54,4.59-1.71,1.98-3.65,3.79-5.77,5.36-2.1,1.55-3.72,2.34-4.81,2.34-.37,0-.66-.12-.9-.36s-.36-.54-.36-.9c0-.82.75-2.27,2.24-4.31,1.5-2.06,3.29-3.93,5.31-5.56,2-1.61,3.83-2.42,5.45-2.42.95,0,1.39.4,1.39,1.26h-.01Zm-22.22,0c0,1.09-.85,2.63-2.54,4.59-1.71,1.98-3.65,3.79-5.77,5.36-2.1,1.55-3.72,2.34-4.81,2.34-.37,0-.66-.12-.9-.36s-.36-.54-.36-.9c0-.82.75-2.27,2.24-4.31,1.5-2.06,3.29-3.93,5.31-5.56,2-1.61,3.83-2.42,5.45-2.42.95,0,1.39.4,1.39,1.26h0Z"/>
    <path class="cls-1" d="m52.68,76.76h0l.02.02s0,.02.02.02h0c.47.35,1.99.16,2.83-.68s.89-1.88.33-2.49h0l-.02-.02s0-.02-.02-.02h0c-.61-.56-1.63-.52-2.49.34s-1.03,2.36-.68,2.83h0Z"/>
    <path class="cls-1" d="m93.05,76.76h0l.02.02s.01.02.02.02h0c.47.35,1.99.16,2.83-.68s.89-1.88.33-2.49h0l-.02-.02s-.01-.02-.02-.02h0c-.61-.56-1.63-.52-2.49.34s-1.03,2.36-.68,2.83h0Z"/>
  </g>
  <g>
    <path class="cls-1" d="m52.53,101.18c-.26-.12-.56-.18-.91-.18h-1.44v4.8h.81v-1.82h.64c.35,0,.65-.06.91-.18s.45-.29.6-.52c.14-.22.22-.49.22-.8s-.07-.57-.22-.79c-.14-.22-.34-.39-.6-.51h-.01Zm-.24,1.89c-.17.13-.39.2-.67.2h-.64v-1.56h.64c.28,0,.5.07.67.2s.25.32.25.58-.08.45-.25.58Z"/>
    <path class="cls-1" d="m56.99,103.79c.26-.12.45-.3.6-.52.14-.22.22-.49.22-.79s-.07-.56-.22-.79c-.14-.22-.34-.39-.6-.52-.26-.12-.56-.19-.91-.19h-1.48v4.8h.81v-1.82h.5l1.2,1.82h.98l-1.35-1.91c.09-.03.17-.06.25-.1v.02Zm-1.58-2.1h.64c.19,0,.35.03.49.1.14.06.24.16.32.27.08.12.12.27.12.44s-.04.31-.12.44c-.08.12-.18.21-.32.27s-.3.09-.49.09h-.64s0-1.61,0-1.61Z"/>
    <polygon class="cls-1" points="59.65 101 59.15 101 59.15 105.8 59.65 105.8 59.95 105.8 62.07 105.8 62.07 105.08 59.95 105.08 59.95 103.58 61.93 103.58 61.93 102.88 59.95 102.88 59.95 101.71 62.07 101.71 62.07 101 59.95 101 59.65 101"/>
    <polygon class="cls-1" points="63.06 101.74 64.32 101.74 64.32 105.8 65.13 105.8 65.13 101.74 66.39 101.74 66.39 101 63.06 101 63.06 101.74"/>
    <path class="cls-1" d="m73.58,104.63c.19-.23.37-.46.54-.7l-.53-.37c-.15.22-.31.43-.48.63-.06.07-.13.14-.19.21l-1.03-1.16c.12-.07.22-.15.32-.22.13-.1.24-.2.33-.31.09-.11.16-.21.21-.33.05-.11.07-.24.07-.37,0-.19-.05-.37-.14-.54-.1-.17-.24-.3-.42-.41s-.41-.16-.67-.16-.49.05-.68.15-.34.23-.45.4-.16.36-.16.57c0,.17.04.32.12.47.08.14.17.27.28.39.08.08.15.16.22.24-.12.05-.24.11-.37.18-.14.08-.28.18-.4.29s-.22.25-.3.4c-.08.16-.12.34-.12.54,0,.27.07.51.23.72.15.2.35.36.59.47s.5.16.78.16c.31,0,.61-.06.88-.17.24-.1.46-.23.66-.38l.43.48h.87l-.81-.91c.08-.08.16-.17.23-.25v-.02Zm-2.42-2.96c.09-.1.23-.15.4-.15.11,0,.21.02.29.07s.14.11.18.19.06.17.06.27c0,.14-.07.29-.21.44-.1.11-.23.21-.39.32-.1-.12-.2-.23-.29-.34-.12-.14-.18-.28-.18-.43s.05-.28.14-.37Zm.84,3.41c-.2.09-.4.14-.61.14-.17,0-.33-.03-.46-.1-.13-.06-.24-.15-.31-.26-.08-.11-.11-.24-.11-.39,0-.16.04-.3.12-.41s.18-.21.31-.29c.11-.08.24-.14.36-.21l1.12,1.26c-.14.1-.28.19-.42.26Z"/>
    <path class="cls-1" d="m80.03,100.91c-.35,0-.68.06-.98.18s-.57.29-.79.51-.4.48-.52.79c-.13.3-.19.64-.19,1s.06.69.19,1c.13.3.3.57.52.79.22.22.49.4.79.51.3.12.63.18.98.18s.64-.04.88-.13c.23-.09.45-.21.65-.38v-.97c-.11.13-.24.25-.38.35-.15.1-.31.18-.5.24-.18.06-.39.09-.62.09-.29,0-.56-.07-.81-.21s-.45-.34-.6-.59-.23-.55-.23-.89.08-.64.23-.9c.15-.25.35-.45.6-.59s.52-.21.81-.21c.23,0,.43.03.62.09.18.06.35.14.5.24s.27.22.38.35v-.96c-.2-.17-.41-.3-.65-.38-.24-.09-.53-.13-.88-.13v.02Z"/>
    <path class="cls-1" d="m87.02,101.62c-.23-.22-.49-.4-.79-.52-.3-.13-.63-.19-.99-.19s-.68.06-.98.19c-.3.13-.57.3-.79.52-.23.22-.4.48-.52.79-.12.3-.18.63-.18.99s.06.69.18.99c.12.31.3.57.52.8.22.22.49.4.79.52.3.13.63.19.99.19s.7-.06,1-.19c.3-.13.56-.3.79-.52.22-.22.4-.49.52-.8.12-.31.18-.64.18-.99s-.06-.69-.18-.99c-.12-.3-.3-.56-.52-.79h-.02Zm-.36,2.66c-.14.26-.33.46-.57.61s-.53.22-.84.22-.59-.07-.84-.22c-.24-.15-.44-.35-.58-.61s-.21-.55-.21-.88.07-.62.21-.88c.14-.26.33-.46.58-.61.24-.15.52-.22.84-.22s.61.07.85.22.43.35.57.61.21.55.21.88-.07.62-.21.88h-.01Z"/>
    <path class="cls-1" d="m91.64,104.19c0,.29-.08.53-.24.71-.16.18-.39.27-.7.27s-.54-.09-.7-.27c-.16-.18-.24-.42-.24-.71v-3.19h-.81v3.22c0,.27.04.5.13.71s.2.39.36.53c.16.15.34.26.55.34.21.08.45.12.7.12s.49-.04.7-.12.4-.19.56-.34c.16-.15.28-.32.36-.53s.13-.44.13-.71v-3.22h-.81v3.19h0Z"/>
    <polygon class="cls-1" points="93.48 101.74 94.75 101.74 94.75 105.8 95.55 105.8 95.55 101.74 96.82 101.74 96.82 101 93.48 101 93.48 101.74"/>
    <path class="cls-1" d="m100.53,104.19c0,.29-.08.53-.24.71-.16.18-.39.27-.7.27s-.54-.09-.7-.27c-.16-.18-.24-.42-.24-.71v-3.19h-.81v3.22c0,.27.04.5.13.71s.2.39.36.53c.16.15.34.26.55.34.21.08.45.12.7.12s.49-.04.7-.12.4-.19.56-.34c.16-.15.28-.32.36-.53s.13-.44.13-.71v-3.22h-.81v3.19h0Z"/>
    <path class="cls-1" d="m105.24,103.79c.26-.12.45-.3.6-.52.14-.22.22-.49.22-.79s-.07-.56-.22-.79c-.14-.22-.34-.39-.6-.52-.26-.12-.56-.19-.91-.19h-1.48v4.8h.81v-1.82h.5l1.2,1.82h.98l-1.35-1.91c.09-.03.17-.06.25-.1v.02Zm-1.58-2.1h.64c.19,0,.35.03.49.1.14.06.24.16.32.27.08.12.12.27.12.44s-.04.31-.12.44c-.08.12-.18.21-.32.27s-.3.09-.49.09h-.64s0-1.61,0-1.61Z"/>
    <polygon class="cls-1" points="110.31 101.71 110.31 101 108.19 101 107.89 101 107.4 101 107.4 105.8 107.89 105.8 108.19 105.8 110.31 105.8 110.31 105.08 108.19 105.08 108.19 103.58 110.17 103.58 110.17 102.88 108.19 102.88 108.19 101.71 110.31 101.71"/>
  </g>
  <path class="cls-1" d="m119.28,58.49c-2.34,5.4-9.74,4.92-14.69,3.06-.79.85-1.92,1.27-2.99,1.46-6.31.85-15.26-2.99-21.59-6.06h0c-6.33,3.06-15.29,6.9-21.59,6.06-1.07-.19-2.2-.61-2.99-1.46-4.95,1.87-12.35,2.34-14.69-3.06-1.41-4.54,3.45-7.75,7.02-9.12,3.47-1.27,7.07-1.62,10.66-1.4.07,0,.14,0,.22.02h.11s.07,0,.1,0c3.81.28,7.6,1.21,11.21,2.35,2.64-1.84,5.24-3.74,7.81-5.66-1.42-1.03-2.88-2.02-4.38-2.96-1.09,1.09-2.31,2.07-3.64,2.84-3.17,1.88-7.18,3.06-10.94,2.7-.03,0-.06,0-.09,0h0s-.08,0-.1,0h0c-.08,0-.16,0-.24-.02-2.55-.32-4.96-1.37-6.89-3.4-.58-.68-1.07-1.52-1.26-2.49-.83-4.92,4.96-7.51,9.05-7.36,4.39,0,9.29,2.26,13.76,4.98,2.11-2.47,3.93-5.23,5.63-8.03.28-.47.57-.96.86-1.43.05-.08.09-.16.14-.24v-.05h-.01c-.07-.12-.14-.23-.23-.34-.64-.93-1.49-2.24-1.62-2.45-.02-.02-.02-.03-.01-.06.08-.41.87-4.5.98-8.67.03-2.2-.14-3.83-.61-5.43-.24-.81-.54-1.56-.93-2.28h0c-1.34-2.65-3.75-3.77-4.37-4.1-.14-.08-.28-.14-.43-.2h0c-.21-.3-.44-.59-.69-.86-.02-.02-.03-.03-.05-.05,4.88,1.22,6.88,4.95,6.88,4.95h-.01c.71,1.16,1.15,2.46,1.32,3.87,0,.03.03.04.05.04h0s.04-.01.05-.04c.17-1.41.61-2.71,1.32-3.87h-.02s1.99-3.74,6.88-4.96c-.02.02-.03.03-.05.05-.25.27-.48.56-.69.86h0c-.15.06-.29.13-.43.2-.63.33-3.04,1.45-4.37,4.1h0c-.39.72-.7,1.48-.93,2.28-.47,1.6-.64,3.23-.61,5.43.1,4.17.9,8.27.98,8.67,0,.03,0,.05-.01.06-.13.21-.98,1.52-1.62,2.45-.08.12-.16.23-.23.33h-.01v.06c.05.08.1.16.14.24.28.47.57.96.86,1.43,1.7,2.8,3.52,5.56,5.63,8.03,4.47-2.72,9.37-4.97,13.76-4.98,4.08-.14,9.88,2.44,9.05,7.36-.2.97-.68,1.81-1.26,2.49-1.93,2.03-4.34,3.08-6.89,3.4-.08,0-.16.02-.24.02h0s-.07,0-.1,0h-.01s-.06,0-.09,0c-3.75.35-7.76-.83-10.94-2.7-1.34-.77-2.55-1.75-3.64-2.84-1.49.94-2.96,1.93-4.38,2.96,2.57,1.92,5.17,3.82,7.81,5.66,3.6-1.14,7.4-2.07,11.21-2.35.03,0,.06,0,.1,0h.11c.08,0,.15,0,.22-.02,3.59-.23,7.19.12,10.66,1.4,3.57,1.37,8.43,4.58,7.02,9.12h-.03Zm-30.88-17.88c2.94,2.76,6.97,4.47,10.97,4.6,2.69.09,5.65-.74,7.43-2.74.82-.95,1.08-2.08.61-3.11-.45-1.05-1.53-1.91-2.75-2.44-5.46-2.26-11.38.87-16.19,3.65-.02,0-.04.02-.06.04h-.01Zm-16.8,0s-.04-.03-.06-.04c-4.81-2.77-10.73-5.91-16.19-3.65-1.22.53-2.3,1.39-2.75,2.44-.47,1.03-.21,2.16.61,3.11,1.78,2,4.74,2.83,7.43,2.74,4-.13,8.03-1.84,10.97-4.6h-.01Zm8.4,3.04h0c1.54-1.12,3.24-2.33,5.04-3.5-.6-.7-1.15-1.42-1.69-2.14-1.19-1.62-2.31-3.28-3.36-4.98h0c-1.05,1.7-2.17,3.35-3.36,4.98-.53.72-1.09,1.44-1.69,2.14,1.8,1.17,3.5,2.37,5.04,3.5h.02Zm-19.06,12.67c2.33-1.4,4.62-2.88,6.89-4.41-6.46-1.95-13.34-2.65-19.31-.52-3.13,1.06-8.51,4.92-4.48,8.03,2.8,1.87,6.59,1.43,9.71.46,2.54-.84,4.87-2.2,7.19-3.56Zm16.68-.45c-2.25-1.14-4.69-2.21-7.22-3.1-4.26,2.97-8.65,5.74-13.31,8.08-.24.12-.5.24-.76.35,4.02,2.79,13.43-1.61,17.36-3.36,1.32-.62,2.64-1.28,3.93-1.97Zm2.39-1.17c2.4-1.33,4.9-2.47,7.46-3.43-2.51-1.8-4.99-3.64-7.46-5.49h0c-2.47,1.85-4.95,3.69-7.46,5.49,2.56.96,5.06,2.11,7.46,3.43h0Zm23.68,6.5c-.27-.11-.52-.23-.76-.35-4.66-2.34-9.05-5.11-13.31-8.08-2.53.9-4.97,1.97-7.22,3.1,1.29.69,2.61,1.35,3.93,1.97,3.94,1.75,13.34,6.15,17.36,3.36Zm7.81-9.81c-5.97-2.13-12.85-1.43-19.31.52,2.26,1.53,4.56,3.01,6.89,4.41,2.33,1.36,4.66,2.72,7.19,3.56,3.12.97,6.91,1.41,9.71-.46,4.04-3.11-1.35-6.97-4.48-8.03Zm-32.43,8.87l-2.11.31,1.52,1.49-.36,2.1,1.88-.99,1.88.99-.36-2.1,1.52-1.49-2.11-.31-.94-1.91-.94,1.91h.02Z"/>
  <path class="cls-1" d="m78.03,2.52c0-1.53.88-2.48,1.93-2.52h.08c1.04.05,1.93,1,1.93,2.53s-1.19,3.04-1.93,3.14h-.08c-.74-.11-1.93-1.63-1.93-3.15Z"/>
  <path class="cls-1" d="m65.42,4.44c.87.22,1.91.31,2.98.42-.28-.27-.59-.52-.89-.75-.25-.03-.5-.06-.72-.1-.45-.07-1.55-.34-2.12-.6-.81-.37-.94-1.08-.28-1.15,1.18-.11,2.91.83,4.22,1.99.19.17.38.34.55.52.05.06.11.12.16.18,1.09,1.29,2.13,4.12,2.52,6.2.01.06.02.12.03.18.59,3.14.63,5.14.5,8.38-.06,1.49-.14,1.74-.19,3.24-.03.88.03,1.75.38,2.58.4.98,1.11,1.66,2.07,2.07.47.2.97.3,1.49.31.02,0,.09,0,.09-.08,0-.05-.04-.08-.06-.09-.6-.16-.86-.6-1.03-1.12-.2-.6-.26-1.24-.24-1.87.09-3.04.25-4.69.16-7.65-.09-2.34-.48-4.78-1.08-7.04-.48-1.64-1.19-3.27-2.31-4.58-1.63-1.85-3.82-3.49-6.29-3.99-1.88-.23-2.24.94-2.02,1.54.18.5.64,1.03,2.09,1.4h-.01Z"/>
  <path class="cls-1" d="m96.68,3.04c.22-.6-.13-1.77-2.02-1.54-2.47.5-4.66,2.14-6.29,3.99-1.12,1.31-1.83,2.94-2.31,4.58-.59,2.26-.99,4.7-1.08,7.04-.09,2.97.07,4.62.16,7.65.02.63-.05,1.27-.24,1.87-.17.52-.43.96-1.03,1.12-.02.01-.07.04-.06.09,0,.07.07.08.09.08.52-.02,1.01-.11,1.49-.31.97-.41,1.67-1.09,2.07-2.07.34-.83.41-1.7.38-2.58-.05-1.49-.13-1.74-.19-3.24-.13-3.24-.09-5.24.5-8.38.01-.06.02-.12.03-.18.39-2.08,1.42-4.91,2.52-6.2.05-.06.1-.12.16-.18.17-.18.36-.35.55-.52,1.31-1.16,3.04-2.1,4.22-1.99.65.06.53.78-.28,1.15-.57.27-1.67.53-2.12.6-.23.03-.47.07-.72.1-.31.23-.61.47-.89.75,1.07-.11,2.11-.2,2.98-.42,1.45-.37,1.91-.9,2.09-1.4h-.01Z"/>
</svg>