<?xml version="1.0" encoding="UTF-8"?>
<svg id="Layer_1" data-name="Layer 1" xmlns="http://www.w3.org/2000/svg" viewBox="0 0 20 24">
  <defs>
    <style>
      .cls-1 {
        fill: #003a40;
      }
    </style>
  </defs>
  <g id="Component_56_12" data-name="Component 56 12">
    <path id="bag" class="cls-1" d="m8.77,0c-1.77,0-3.21,1.43-3.22,3.2v1.89h-3.3s-.05,0-.07,0c-.36.04-.64.33-.67.69L0,23.19c-.02.21.06.42.2.57.14.15.34.24.55.24h18.49c.41,0,.75-.33.75-.75,0-.02,0-.04,0-.07l-1.51-17.41c-.03-.39-.36-.69-.75-.69h-3.3v-1.89c0-1.77-1.44-3.2-3.21-3.2h-2.46Zm0,1.5h2.46c.93-.01,1.69.73,1.71,1.66,0,.01,0,.03,0,.04v1.89h-5.88v-1.89c0-.93.74-1.69,1.67-1.7.01,0,.03,0,.04,0ZM2.95,6.59h2.61v2.22h0c0,.42.34.75.75.75.42,0,.75-.34.75-.75v-2.22h5.88v2.22c0,.42.34.75.75.75s.75-.34.75-.75v-2.22h2.61l1.37,15.91H1.58l1.37-15.91Z"/>
  </g>
</svg>