<?xml version="1.0" encoding="UTF-8"?>
<svg id="Layer_1" data-name="Layer 1" xmlns="http://www.w3.org/2000/svg" viewBox="0 0 17.5 17.5">
  <defs>
    <style>
      .cls-1 {
        fill: #003a40;
      }
    </style>
  </defs>
  <path class="cls-1" d="m3.5,4.12V.75c0-.41-.34-.75-.75-.75s-.75.34-.75.75v3.37c-1.15.33-2,1.38-2,2.63s.85,2.3,2,2.63v7.37c0,.41.34.75.75.75s.75-.34.75-.75v-7.37c1.15-.33,2-1.38,2-2.63s-.85-2.3-2-2.63Zm-.75,3.88c-.69,0-1.25-.56-1.25-1.25s.56-1.25,1.25-1.25,1.25.56,1.25,1.25-.56,1.25-1.25,1.25Z"/>
  <path class="cls-1" d="m9.5,10.12V.75c0-.41-.34-.75-.75-.75s-.75.34-.75.75v9.37c-1.15.33-2,1.38-2,2.63s.85,2.3,2,2.63v1.37c0,.41.34.75.75.75s.75-.34.75-.75v-1.37c1.15-.33,2-1.38,2-2.63s-.85-2.3-2-2.63Zm-.75,3.88c-.69,0-1.25-.56-1.25-1.25s.56-1.25,1.25-1.25,1.25.56,1.25,1.25-.56,1.25-1.25,1.25Z"/>
  <path class="cls-1" d="m17.5,3.75c0-1.25-.85-2.3-2-2.63v-.37c0-.41-.34-.75-.75-.75s-.75.34-.75.75v.37c-1.15.33-2,1.38-2,2.63s.85,2.3,2,2.63v10.37c0,.41.34.75.75.75s.75-.34.75-.75V6.38c1.15-.33,2-1.38,2-2.63Zm-2.75,1.25c-.69,0-1.25-.56-1.25-1.25s.56-1.25,1.25-1.25,1.25.56,1.25,1.25-.56,1.25-1.25,1.25Z"/>
</svg>