<?xml version="1.0" encoding="UTF-8"?>
<svg id="Layer_1" data-name="Layer 1" xmlns="http://www.w3.org/2000/svg" viewBox="0 0 24 24">
  <defs>
    <style>
      .cls-1 {
        fill: #9f9e9e;
      }

      .cls-2 {
        fill: none;
      }
    </style>
  </defs>
  <g id="icon-fav">
    <g id="Container-icon">
      <rect class="cls-2" width="24" height="24"/>
    </g>
    <g id="Fav">
      <path class="cls-1" d="m12,21.81c-.34,0-.67-.1-.97-.29-1.72-1.15-10.28-7.14-10.28-11.97C.75,6.05,3.53,2.31,7.67,2.31c1.63-.04,3.15.55,4.33,1.64,1.18-1.08,2.71-1.68,4.34-1.64,4.13,0,6.91,3.74,6.91,7.23,0,4.84-8.56,10.82-10.28,11.97-.3.2-.63.29-.97.29ZM7.79,3.81s-.07,0-.1,0c-3.26,0-5.44,2.96-5.44,5.73,0,3.38,6.04,8.33,9.61,10.73.08.05.19.05.27,0,3.57-2.39,9.61-7.34,9.61-10.72,0-2.77-2.18-5.73-5.42-5.73h-.02c-1.49-.06-2.81.59-3.74,1.7l-.58.69-.58-.69c-.91-1.09-2.23-1.7-3.64-1.7Z"/>
    </g>
  </g>
</svg>