<?xml version="1.0" encoding="UTF-8"?>
<svg id="Layer_1" data-name="Layer 1" xmlns="http://www.w3.org/2000/svg" viewBox="0 0 32.83 32.83">
  <defs>
    <style>
      .cls-1 {
        fill: #003a40;
      }
    </style>
  </defs>
  <path class="cls-1" d="m32.37,14.12L17.61.47c-.69-.63-1.72-.63-2.4,0L.54,14.03c-.35.32-.54.76-.54,1.25,0,.22.05.43.13.62.27.63.93,1.06,1.61,1.06h1.31v14.2c.03.95.87,1.67,1.74,1.67h7.73c.9,0,1.74-.73,1.75-1.69v-7.83h4.28v7.84c.02.93.79,1.67,1.7,1.67h7.76c.87.02,1.72-.73,1.75-1.69v-14.19h1.31c.41-.02.9-.17,1.23-.49.17-.16.3-.36.39-.57.08-.19.11-.39.13-.58,0-.44-.16-.87-.46-1.18Zm-3.25.51c-.93,0-1.69.74-1.72,1.69v14.19h-6.49v-7.84c-.02-.95-.79-1.66-1.74-1.69h-5.52c-.96-.03-1.72.74-1.75,1.69v7.84h-6.47v-14.2c-.03-.95-.76-1.64-1.74-1.67h-.35L16.41,2.56l13.07,12.07h-.36Z"/>
</svg>