<?xml version="1.0" encoding="UTF-8"?>
<svg id="Layer_1" data-name="Layer 1" xmlns="http://www.w3.org/2000/svg" viewBox="0 0 24 30">
  <defs>
    <style>
      .cls-1 {
        fill: #d6b182;
      }
    </style>
  </defs>
  <g id="Layer_21" data-name="Layer 21">
    <path class="cls-1" d="m12,30c-.84,0-1.65-.37-2.21-1C6.14,25,0,17.39,0,12.36-.09,5.64,5.28.1,12,0c6.72.1,12.09,5.64,12,12.36,0,5-6.14,12.59-9.79,16.65-.56.63-1.37.99-2.21.99Zm0-28c-5.62.11-10.09,4.74-10,10.36,0,3.14,3.47,8.86,9.28,15.31.38.4,1.02.41,1.41.03,0,0,.02-.02.03-.03,5.81-6.45,9.28-12.17,9.28-15.31.09-5.62-4.38-10.25-10-10.36Z"/>
    <path class="cls-1" d="m12,18c-3.31,0-6-2.69-6-6s2.69-6,6-6,6,2.69,6,6-2.69,6-6,6Zm0-10c-2.21,0-4,1.79-4,4s1.79,4,4,4,4-1.79,4-4-1.79-4-4-4Z"/>
  </g>
</svg>