<?xml version="1.0" encoding="UTF-8"?>
<svg id="Layer_1" data-name="Layer 1" xmlns="http://www.w3.org/2000/svg" xmlns:xlink="http://www.w3.org/1999/xlink" viewBox="0 0 10.05 13.4">
  <defs>
    <style>
      .cls-1 {
        clip-path: url(#clippath);
      }

      .cls-2 {
        fill: none;
      }

      .cls-3 {
        fill: #d6b182;
      }
    </style>
    <clipPath id="clippath">
      <rect class="cls-2" width="10.05" height="13.4"/>
    </clipPath>
  </defs>
  <g id="Group_597" data-name="Group 597">
    <g id="Group_596" data-name="Group 596">
      <g class="cls-1">
        <g id="Group_594" data-name="Group 594">
          <path id="Path_2883" data-name="Path 2883" class="cls-3" d="m5.31,0c.21.04.43.07.64.13,1.43.41,2.41,1.71,2.42,3.19v1.68c.22.01.43,0,.64.04.58.09,1.02.59,1.04,1.18,0,.31,0,.62,0,.93v4.96c.02.58-.37,1.09-.93,1.24-.12.03-.24.04-.36.04-2.49,0-4.97,0-7.46,0C.6,13.42.02,12.87,0,12.18c0-.03,0-.05,0-.08v-5.78c-.02-.69.52-1.27,1.22-1.29.03,0,.06,0,.08,0h.38v-.18c0-.62-.03-1.23.03-1.85C1.84,1.56,2.9.37,4.31.08c.14-.03.29-.05.42-.08h.58Zm-.29,12.56h3.7c.23.03.45-.13.48-.37,0-.04,0-.08,0-.12v-5.73c.03-.23-.13-.45-.36-.49-.04,0-.09,0-.13,0H1.33c-.23-.04-.45.13-.49.36,0,.04,0,.09,0,.13v5.72c0,.34.16.49.5.49h3.69m-2.54-7.55h5.05v-1.83c0-.11-.02-.23-.05-.34-.24-1.17-1.27-2.01-2.46-2.01-1.2-.02-2.23.83-2.45,2.01-.07.72-.1,1.45-.09,2.17"/>
        </g>
      </g>
    </g>
    <g id="Path_2884" data-name="Path 2884">
      <path class="cls-3" d="m4.29,10.96l-1.31-1.6c-.13-.16-.11-.4.05-.53.16-.13.4-.11.53.05l.79.97,2.03-1.99c.15-.14.38-.14.53,0,.14.15.14.39,0,.53l-2.62,2.56Z"/>
    </g>
  </g>
</svg>