<?xml version="1.0" encoding="UTF-8"?>
<svg id="Layer_1" data-name="Layer 1" xmlns="http://www.w3.org/2000/svg" viewBox="0 0 26.99 26.99">
  <defs>
    <style>
      .cls-1 {
        fill: #003a40;
      }
    </style>
  </defs>
  <path class="cls-1" d="m21.21,13.88c-.63,0-1.16.51-1.16,1.16v7.71c0,1.06-.86,1.93-1.93,1.93H4.24c-1.06,0-1.93-.86-1.93-1.93v-13.88c0-1.06.86-1.93,1.93-1.93h7.71c.65,0,1.16-.52,1.16-1.16s-.51-1.16-1.16-1.16h-7.71C1.91,4.63,0,6.52,0,8.87v13.88c0,2.33,1.91,4.24,4.24,4.24h13.88c2.34,0,4.24-1.91,4.24-4.24v-7.71c0-.65-.51-1.16-1.16-1.16Z"/>
  <path class="cls-1" d="m26.28.09c-.14-.06-.29-.09-.45-.09h-7.71c-.63,0-1.16.51-1.16,1.16s.52,1.16,1.16,1.16h4.92l-13.45,13.45c-.45.45-.45,1.17,0,1.64.23.22.52.34.82.34s.59-.12.82-.34L24.68,3.95v4.92c0,.63.52,1.16,1.16,1.16s1.16-.52,1.16-1.16V1.16c0-.48-.29-.89-.71-1.06Z"/>
</svg>