<?xml version="1.0" encoding="UTF-8"?>
<svg id="Layer_1" data-name="Layer 1" xmlns="http://www.w3.org/2000/svg" viewBox="0 0 28.8 28.8">
  <defs>
    <style>
      .cls-1 {
        fill: #d6b182;
      }
    </style>
  </defs>
  <path class="cls-1" d="m27.15,15.51l1.63-8.92c.06-.31-.03-.63-.23-.87-.2-.24-.5-.38-.82-.38H6.22l-.65-3.57C5.39.75,4.52,0,3.48,0H1.07C.48,0,0,.48,0,1.07s.48,1.07,1.07,1.07h2.4s2.73,15.03,2.73,15.03h0c0,.06.02.12.03.17l.9,4.92c-.78.68-1.27,1.69-1.27,2.8,0,2.06,1.67,3.73,3.73,3.73s3.73-1.67,3.73-3.73c0-.57-.13-1.11-.36-1.6h7.12c-.23.49-.36,1.03-.36,1.6,0,2.06,1.67,3.73,3.73,3.73s3.73-1.67,3.73-3.73-1.64-3.7-3.67-3.73c-.02,0-.04,0-.06,0h-14.33l-.58-3.2h15.47c1.55,0,2.86-1.1,3.14-2.62Zm-2.09,9.55c0,.88-.72,1.6-1.6,1.6s-1.6-.72-1.6-1.6.72-1.6,1.6-1.6,1.6.72,1.6,1.6Zm-13.86,0c0,.88-.72,1.6-1.6,1.6s-1.6-.72-1.6-1.6.72-1.6,1.6-1.6,1.6.72,1.6,1.6Zm12.81-9.07h-15.85l-1.55-8.53h19.84l-1.4,7.66c-.09.5-.53.87-1.04.87h0Z"/>
</svg>