<?xml version="1.0" encoding="UTF-8"?>
<svg id="Layer_1" data-name="Layer 1" xmlns="http://www.w3.org/2000/svg" viewBox="0 0 15.5 19.5">
  <defs>
    <style>
      .cls-1 {
        fill: #003a40;
      }
    </style>
  </defs>
  <path class="cls-1" d="m10.75,12h-2c-.41,0-.75.34-.75.75s.34.75.75.75h2c.41,0,.75-.34.75-.75s-.34-.75-.75-.75Z"/>
  <path class="cls-1" d="m10.75,8h-6c-.41,0-.75.34-.75.75s.34.75.75.75h6c.41,0,.75-.34.75-.75s-.34-.75-.75-.75Z"/>
  <path class="cls-1" d="m10.75,4h-6c-.41,0-.75.34-.75.75s.34.75.75.75h6c.41,0,.75-.34.75-.75s-.34-.75-.75-.75Z"/>
  <path class="cls-1" d="m12.75,0H2.75C1.23,0,0,1.23,0,2.75v16c0,.28.15.53.4.66.24.13.54.12.77-.04l2.48-1.66,1.57,1.57c.29.29.77.29,1.06,0l1.47-1.47,1.47,1.47c.29.29.77.29,1.06,0l1.57-1.57,2.48,1.66c.13.09.27.13.42.13.12,0,.24-.03.35-.09.25-.13.4-.38.4-.66V2.75c0-1.52-1.23-2.75-2.75-2.75Zm1.25,17.35l-1.83-1.22c-.3-.2-.7-.16-.95.09l-1.47,1.47-1.47-1.47c-.15-.15-.34-.22-.53-.22s-.38.07-.53.22l-1.47,1.47-1.47-1.47c-.25-.25-.65-.29-.95-.09l-1.83,1.22V2.75c0-.69.56-1.25,1.25-1.25h10c.69,0,1.25.56,1.25,1.25v14.6Z"/>
</svg>