<?xml version="1.0" encoding="UTF-8"?>
<svg id="Layer_1" data-name="Layer 1" xmlns="http://www.w3.org/2000/svg" viewBox="0 0 28.34 31.58">
  <defs>
    <style>
      .cls-1 {
        fill: #003a40;
      }
    </style>
  </defs>
  <path class="cls-1" d="m28.29,8.18c-.03-.1-.06-.19-.11-.28-.05-.1-.13-.19-.19-.26-.06-.08-.16-.15-.26-.21L14.77.15c-.37-.19-.83-.19-1.2,0L.62,7.43c-.1.06-.19.13-.26.21-.08.06-.15.16-.21.26-.05.08-.08.18-.1.28-.03.1-.05.21-.05.31v14.59c0,.44.23.84.62,1.05l12.88,7.24s.08.05.11.06c.08.03.16.06.24.08.1.05.21.06.32.06s.23-.02.32-.06c.08-.02.16-.05.24-.08.03-.02.08-.03.11-.06l12.88-7.24c.37-.21.62-.62.62-1.05v-14.58c0-.11-.02-.21-.05-.32Zm-3.66.32l-10.46,5.88-4-2.23,10.48-5.9,3.98,2.25ZM14.17,2.61l3.98,2.25-10.46,5.88-3.98-2.23L14.17,2.61Zm-1.21,25.69l-10.53-5.93v-11.79l4.66,2.62,5.86,3.3v11.79Zm12.96-5.93l-10.53,5.93v-11.79l10.53-5.93v11.79Z"/>
</svg>