<?xml version="1.0" encoding="UTF-8"?>
<svg id="Layer_1" data-name="Layer 1" xmlns="http://www.w3.org/2000/svg" viewBox="0 0 28.33 21.42">
  <defs>
    <style>
      .cls-1 {
        fill: #d6b182;
      }
    </style>
  </defs>
  <path class="cls-1" d="m28.3,9.05c-.03-.1-.07-.19-.12-.27l-4.14-6.89c-.19-.32-.52-.51-.89-.51h-5.87v-.34c0-.58-.47-1.04-1.04-1.04H1.04C.47,0,0,.46,0,1.04s.47,1.03,1.04,1.03h14.16v14.51h-3.6c-.45-1.59-1.91-2.76-3.65-2.76s-3.2,1.17-3.65,2.76h-.84v-4.49c0-.57-.47-1.03-1.04-1.03s-1.03.46-1.03,1.03v5.53c0,.57.46,1.04,1.03,1.04h1.88c.45,1.59,1.91,2.76,3.65,2.76s3.2-1.17,3.65-2.76h6.52c.45,1.59,1.91,2.76,3.65,2.76s3.2-1.17,3.65-2.76h1.88c.57,0,1.03-.47,1.03-1.04v-8.27c0-.1,0-.2-.03-.3ZM7.95,19.35c-.95,0-1.73-.78-1.73-1.73s.78-1.73,1.73-1.73,1.73.78,1.73,1.73-.78,1.73-1.73,1.73ZM17.28,3.45h5.28l2.91,4.84h-8.19V3.45Zm4.49,15.9c-.95,0-1.73-.78-1.73-1.73s.78-1.73,1.73-1.73,1.73.78,1.73,1.73-.78,1.73-1.73,1.73Zm4.49-2.77h-.84c-.45-1.59-1.92-2.76-3.65-2.76s-3.2,1.17-3.65,2.76h-.84v-6.22h8.98v6.22Z"/>
  <path class="cls-1" d="m2.42,7.6h5.53c.57,0,1.04-.46,1.04-1.04s-.47-1.03-1.04-1.03H2.42c-.57,0-1.03.46-1.03,1.03s.46,1.04,1.03,1.04Z"/>
</svg>