<svg width="2447" height="2197" viewBox="0 0 2447 2197" fill="none" xmlns="http://www.w3.org/2000/svg">
<path d="M2198.41 1249.29C2247.54 1398.67 2201.2 1574.81 2070.68 1638.65C1939.29 1700.1 1726.12 1648.39 1571.86 1610.25C1417.61 1572.11 1324.67 1546.67 1193.89 1572.82C1060.72 1599.84 892.105 1677.59 722.506 1663.94C553.777 1652.67 386.448 1549.14 279.484 1396.58C174.901 1243.16 133.064 1039.84 223.632 896.135C310.949 750.918 537.171 668.336 702.992 605.104C871.194 541.003 984.627 496.896 1104.94 412.496C1224.38 325.716 1355.47 196.904 1525.41 137.566C1696.86 74.9767 1908.68 78.6108 1972.52 209.129C2033.11 338.134 1943.33 594.893 1971.94 784.148C2003.8 974.915 2148.41 1097.53 2198.41 1249.29Z" stroke="#CCCCCC" stroke-width="2"/>
<path d="M2061.49 1228.08C2103.72 1356.47 2063.88 1507.87 1951.7 1562.74C1838.77 1615.56 1655.53 1571.11 1522.95 1538.33C1390.36 1505.54 1310.48 1483.68 1198.06 1506.16C1083.61 1529.38 938.674 1596.21 792.898 1584.48C647.869 1574.79 504.045 1485.8 412.106 1354.68C322.214 1222.8 286.253 1048.05 364.099 924.526C439.151 799.707 633.596 728.725 776.125 674.375C920.7 619.278 1018.2 581.367 1121.61 508.822C1224.28 434.232 1336.95 323.514 1483.02 272.51C1630.39 218.713 1812.46 221.837 1867.33 334.021C1919.4 444.906 1842.24 665.598 1866.83 828.269C1894.21 992.239 2018.51 1097.64 2061.49 1228.08Z" stroke="#CCCCCC" stroke-width="2"/>
<path d="M1903.33 1203.57C1937.59 1307.73 1905.28 1430.55 1814.27 1475.06C1722.65 1517.92 1574.01 1481.86 1466.45 1455.26C1358.89 1428.66 1294.08 1410.93 1202.89 1429.16C1110.04 1448 992.462 1502.21 874.203 1492.7C756.55 1484.84 639.874 1412.65 565.289 1306.27C492.364 1199.29 463.192 1057.52 526.344 957.318C587.229 856.06 744.971 798.476 860.596 754.386C977.881 709.689 1056.98 678.933 1140.87 620.083C1224.16 559.571 1315.56 469.753 1434.06 428.377C1553.61 384.734 1701.31 387.268 1745.82 478.277C1788.07 568.231 1725.47 747.266 1745.42 879.231C1767.63 1012.25 1868.47 1097.75 1903.33 1203.57Z" stroke="#CCCCCC" stroke-width="2"/>
<path d="M1764.48 1182.06C1791.74 1264.94 1766.02 1362.66 1693.61 1398.08C1620.71 1432.18 1502.43 1403.49 1416.84 1382.33C1331.26 1361.16 1279.69 1347.05 1207.13 1361.56C1133.24 1376.55 1039.69 1419.69 945.588 1412.11C851.971 1405.86 759.13 1348.42 699.783 1263.78C641.756 1178.65 618.544 1065.84 668.794 986.109C717.24 905.537 842.757 859.718 934.761 824.634C1028.09 789.069 1091.02 764.596 1157.78 717.768C1224.05 669.619 1296.78 598.149 1391.07 565.226C1486.2 530.5 1603.72 532.516 1639.14 604.932C1672.76 676.509 1622.95 818.969 1638.82 923.975C1656.5 1029.82 1736.73 1097.85 1764.48 1182.06Z" stroke="#CCCCCC" stroke-width="2"/>
</svg>
