<svg width="1546" height="1661" viewBox="0 0 1546 1661" fill="none" xmlns="http://www.w3.org/2000/svg">
<path d="M1541.7 665.867L1541.7 665.878C1534.69 876.414 1508.96 1051.75 1434.16 1213.03C1359.36 1371.97 1233.16 1514.51 1067.28 1591.61C901.391 1668.71 698.07 1680.41 504.063 1624.31L504.052 1624.31C310.002 1570.54 127.799 1451.34 50.7504 1285.56L50.7454 1285.55C-28.6418 1119.78 -2.99382 907.16 64.814 734.133L64.8182 734.122C130.258 561.173 242.45 427.927 373.409 313.338L373.417 313.331C504.363 196.414 653.987 100.567 852.703 44.4584C952.08 16.3989 1063.12 -1.71324 1165.07 1.79211C1267.03 5.29803 1359.76 30.4221 1422.68 88.6838C1484.45 146.952 1516.57 237.936 1532.06 341.105C1547.55 444.253 1546.38 559.413 1541.7 665.867Z" stroke="#E3E3E3" stroke-width="2"/>
<path d="M1332.13 192.135C1438.74 292.712 1442.76 505.935 1434.71 688.984C1428.68 870.023 1406.55 1020.89 1342.18 1159.68M1332.13 192.135C1223.5 91.5584 1012.29 105.639 841.312 153.916C670.331 202.193 541.593 284.666 428.947 385.243C316.301 483.808 219.747 598.465 163.424 747.319C105.09 896.173 82.9629 1079.22 151.355 1222.04C217.736 1364.86 374.635 1467.45 541.593 1513.71C708.55 1561.99 883.554 1551.93 1026.37 1485.55C1169.19 1419.17 1277.81 1296.47 1342.18 1159.68M1332.13 192.135L1331.45 192.869C1331.45 192.868 1331.44 192.866 1331.44 192.865M1332.13 192.135L1331.44 192.863C1331.44 192.863 1331.44 192.864 1331.44 192.865M1342.18 1159.68L1341.28 1159.26M1342.18 1159.68L1341.28 1159.26C1341.28 1159.26 1341.28 1159.26 1341.28 1159.26M1341.28 1159.26C1405.56 1020.64 1427.68 869.932 1433.72 688.951L1433.72 688.941C1437.74 597.428 1438.74 498.44 1425.43 409.781C1412.11 321.101 1384.5 242.923 1331.44 192.865M1341.28 1159.26C1276.99 1295.87 1168.52 1418.38 1025.95 1484.65C883.375 1550.91 708.623 1560.97 541.871 1512.75L541.86 1512.75C375.064 1466.53 218.475 1364.08 152.262 1221.62L152.257 1221.61C84.0344 1079.14 106.07 896.411 164.355 747.684L164.36 747.673C220.605 599.023 317.035 484.494 429.605 385.995L429.613 385.989C542.171 285.49 670.779 203.106 841.583 154.878C927.005 130.759 1022.45 115.192 1110.07 118.205C1197.71 121.218 1277.38 142.812 1331.44 192.865" stroke="#E3E3E3" stroke-width="2"/>
<path d="M1241.13 296.033C1330.39 380.236 1333.76 558.746 1327.02 711.995C1321.97 863.56 1303.44 989.865 1249.55 1106.06M1241.13 296.033C1150.19 211.83 973.367 223.618 830.223 264.036C687.078 304.453 579.298 373.499 484.991 457.702C390.683 540.221 309.849 636.212 262.695 760.833C213.857 885.453 195.333 1038.7 252.591 1158.27C308.164 1277.84 439.521 1363.73 579.298 1402.46C719.075 1442.88 865.588 1434.46 985.156 1378.88C1104.72 1323.31 1195.66 1220.58 1249.55 1106.06M1241.13 296.033L1240.45 296.767C1240.45 296.765 1240.45 296.764 1240.45 296.762M1241.13 296.033L1240.45 296.76C1240.45 296.761 1240.45 296.762 1240.45 296.762M1249.55 1106.06L1248.65 1105.64M1249.55 1106.06L1248.65 1105.64C1248.65 1105.64 1248.65 1105.64 1248.65 1105.64M1248.65 1105.64C1302.45 989.621 1320.97 863.472 1326.02 711.962L1326.02 711.951C1329.39 635.339 1330.23 552.479 1319.08 478.27C1307.94 404.04 1284.83 338.634 1240.45 296.762M1248.65 1105.64C1194.84 1219.99 1104.05 1322.52 984.734 1377.98C865.409 1433.44 719.147 1441.86 579.576 1401.5L579.565 1401.5C439.95 1362.81 308.903 1277.06 253.497 1157.85L253.492 1157.84C196.404 1038.62 214.838 885.692 263.626 761.198L263.63 761.187C310.707 636.77 391.417 540.908 485.649 458.455L485.657 458.448C579.876 374.324 687.525 305.366 830.494 264.998C901.998 244.809 981.885 231.779 1055.22 234.301C1128.57 236.823 1195.23 254.897 1240.45 296.762" stroke="#E3E3E3" stroke-width="2"/>
<path d="M1231.79 732.085L1231.79 732.096C1227.6 857.817 1212.23 962.475 1167.59 1058.73C1122.95 1153.58 1047.64 1238.64 948.669 1284.64C849.689 1330.64 728.356 1337.63 612.567 1304.15L612.557 1304.15C496.725 1272.05 388.029 1200.91 342.079 1102.05L342.074 1102.04C294.728 1003.17 310.009 876.312 350.488 773.022L350.492 773.011C389.545 669.799 456.502 590.269 534.687 521.857L534.695 521.851C612.868 452.053 702.178 394.844 820.791 361.353C880.117 344.602 946.393 333.793 1007.23 335.885C1068.08 337.977 1123.35 352.971 1160.83 387.673C1197.62 422.381 1216.79 476.612 1226.03 538.198C1235.28 599.763 1234.58 668.511 1231.79 732.085Z" stroke="#E3E3E3" stroke-width="2"/>
<path d="M1132.17 753.371L1132.17 753.381C1128.89 851.839 1116.85 933.779 1081.91 1009.13C1046.96 1083.39 988.009 1149.96 910.543 1185.97C833.07 1221.98 738.091 1227.45 647.445 1201.24L647.434 1201.24C556.744 1176.11 471.675 1120.42 435.722 1043.06L435.717 1043.05C398.67 965.689 410.62 866.397 442.313 785.523L442.318 785.512C472.889 704.715 525.306 642.452 586.528 588.883L586.535 588.876C647.745 534.225 717.668 489.435 810.534 463.214C856.985 450.098 908.872 441.637 956.493 443.274C1004.13 444.912 1047.36 456.649 1076.66 483.778C1105.42 510.913 1120.42 553.331 1127.66 601.551C1134.9 649.75 1134.36 703.578 1132.17 753.371Z" stroke="#E3E3E3" stroke-width="2"/>
</svg>
