<svg width="2066" height="1825" viewBox="0 0 2066 1825" fill="none" xmlns="http://www.w3.org/2000/svg">
<path d="M1517.98 1614.04C1452.75 1757.12 1299.22 1855.1 1160.02 1813.47C1021.79 1769.5 900.237 1586.9 812.772 1454.24C725.307 1321.58 674.272 1239.84 560.44 1170.35C444.268 1099.87 267.637 1042.62 152.282 917.545C35.9504 794.812 -16.766 605.236 8.12429 420.588C35.3539 236.917 142.53 59.1499 306.554 14.9963C469.216 -32.4733 691.453 60.3024 856.183 126.324C1023.25 193.322 1136.52 237.859 1282.17 257.458C1428.8 274.718 1612.49 268.992 1777.61 340.669C1946.04 410.983 2099.21 557.337 2057.58 696.539C2014.59 832.424 1774.46 960.181 1667.1 1118.64C1561.1 1280.42 1584.18 1468.61 1517.98 1614.04Z" stroke="#CCCCCC" stroke-width="3"/>
<path d="M1431.76 1505.57C1375.7 1628.55 1243.73 1712.77 1124.08 1676.99C1005.28 1639.2 900.795 1482.24 825.616 1368.22C750.437 1254.19 706.571 1183.94 608.728 1124.2C508.875 1063.63 357.055 1014.41 257.903 906.91C157.912 801.416 112.601 638.47 133.995 479.759C157.4 321.888 249.521 169.091 390.505 131.14C530.319 90.3381 721.338 170.082 862.929 226.83C1006.53 284.417 1103.89 322.698 1229.08 339.544C1355.11 354.379 1513 349.458 1654.92 411.066C1799.7 471.504 1931.35 597.299 1895.57 716.948C1858.62 833.746 1652.21 943.557 1559.94 1079.76C1468.83 1218.81 1488.67 1380.57 1431.76 1505.57Z" stroke="#CCCCCC" stroke-width="3"/>
<path d="M1332.18 1380.28C1286.7 1480.05 1179.64 1548.37 1082.58 1519.35C986.199 1488.69 901.439 1361.36 840.451 1268.86C779.463 1176.36 743.877 1119.36 664.503 1070.9C583.498 1021.76 460.335 981.838 379.899 894.626C298.783 809.045 262.024 676.857 279.38 548.104C298.367 420.032 373.099 296.077 487.472 265.29C600.894 232.19 755.857 296.881 870.721 342.917C987.216 389.634 1066.19 420.689 1167.76 434.355C1270 446.39 1398.08 442.398 1513.22 492.377C1630.66 541.407 1737.47 643.457 1708.44 740.521C1678.46 835.272 1511.02 924.356 1436.16 1034.85C1362.25 1147.65 1378.35 1278.88 1332.18 1380.28Z" stroke="#CCCCCC" stroke-width="3"/>
<path d="M1244.75 1270.28C1208.56 1349.67 1123.38 1404.03 1046.14 1380.94C969.449 1356.54 902.005 1255.22 853.476 1181.62C804.947 1108.02 776.632 1062.66 713.473 1024.1C649.016 985.003 551.015 953.236 487.012 883.841C422.466 815.743 393.217 710.56 407.027 608.11C422.135 506.202 481.601 407.571 572.608 383.072C662.859 356.735 786.164 408.21 877.562 444.841C970.259 482.015 1033.1 506.725 1113.92 517.599C1195.27 527.176 1297.19 523.999 1388.8 563.768C1482.26 602.781 1567.24 683.984 1544.14 761.218C1520.29 836.612 1387.05 907.497 1327.49 995.417C1268.68 1085.18 1281.48 1189.59 1244.75 1270.28Z" stroke="#CCCCCC" stroke-width="3"/>
</svg>
