<?xml version="1.0" encoding="UTF-8"?>
<svg id="Layer_1" data-name="Layer 1" xmlns="http://www.w3.org/2000/svg" viewBox="0 0 69.01 63.53">
  <defs>
    <style>
      .cls-1 {
        fill: none;
      }
    </style>
  </defs>
  <path d="m62.36,13.26v6.04H6.65v-6.04h55.71m1-1H5.65v8.04h57.71v-8.04h0Z"/>
  <path class="cls-1" d="m30.86,48.74c1.09,1.19,2.78,1.17,3.85.03,1.65-1.75,3.38-3.42,5.07-5.12,2-2.01,3.99-4.01,5.99-6.02.59-.59.94-1.29.84-2.14-.12-1.03-.67-1.75-1.67-2.08-.98-.33-1.81-.02-2.52.7-1.81,1.85-3.62,3.7-5.46,5.53-1.35,1.34-2.74,2.64-4.17,4.02,0,0,0,0,0,0h-.01s0,0,0,0c-.09-.09-.24-.22-.37-.36-1.13-1.14-2.25-2.3-3.39-3.43-1.06-1.05-2.46-1.05-3.45-.05-.95.97-.93,2.47.05,3.49,1.75,1.81,3.53,3.59,5.23,5.43Z"/>
  <polygon points="32.79 43.65 32.79 43.66 32.8 43.66 32.79 43.65 32.79 43.65"/>
  <path d="m57.03,1h0c.31,0,.61.14.91.43.29.28.43.59.43.96v3.28c0,1.14.73,1.88,1.86,1.88h.87s.86,0,.86,0c.56,0,1.12,0,1.68.02,2.29.08,4.24,2.02,4.36,4.32,0,.25.02.49.02.74v44.81c0,1.88-.64,3.23-2,4.23-.78.58-1.7.86-2.79.86h-.06s-17.38,0-17.38,0h-11.13c-.06-.01-.13-.02-.2-.02H5.86c-2.4,0-4.22-1.44-4.74-3.75-.09-.39-.1-.84-.1-1.22v-11.25c0-11.07,0-22.52-.02-33.78,0-2.43,1.53-4.43,3.72-4.88.34-.07.73-.08,1.13-.09.57-.01,1.14-.02,1.71-.02.47,0,.93,0,1.39.02h.11c.49,0,.88-.14,1.16-.43.39-.4.43-.91.42-1.27-.01-.49-.01-.99,0-1.48,0-.57,0-1.16-.01-1.75-.02-.48.12-.87.41-1.17.31-.32.71-.44.99-.44.85,0,1.42.68,1.43,1.69v1.11c0,.74,0,1.47,0,2.22,0,.94.57,1.52,1.5,1.52,1.52,0,3.05,0,4.58,0s3.05,0,4.58,0c.93,0,1.5-.58,1.5-1.54-.02-1.03-.03-2.24,0-3.46.02-.88.61-1.54,1.36-1.54.18,0,.36.04.54.11.61.25.89.68.91,1.38,0,1.12.02,2.29,0,3.43,0,1.02.58,1.61,1.6,1.61,1.5,0,3-.01,4.49-.01s2.99,0,4.49.01c.19,0,.76,0,1.18-.43.42-.43.41-.99.4-1.2-.02-1.1,0-2.22,0-3.31,0-.95.57-1.59,1.39-1.6.82,0,1.41.65,1.42,1.59.02,1.15.02,2.26,0,3.42,0,.95.56,1.52,1.51,1.52,1.52,0,3.05,0,4.58,0s3.05,0,4.58,0c.95,0,1.51-.57,1.51-1.54-.02-1.17-.02-2.35,0-3.51.02-.91.51-1.21.88-1.37.2-.08.39-.13.57-.13M57.03,0c-.31,0-.63.07-.96.21-.99.41-1.47,1.22-1.49,2.27-.02,1.18-.02,2.37,0,3.55,0,.38-.11.52-.51.52-1.52,0-3.05,0-4.58,0s-3.06,0-4.58,0c-.4,0-.51-.14-.51-.52.02-1.15.02-2.29,0-3.44-.02-1.49-1.06-2.57-2.42-2.57-1.37.01-2.38,1.09-2.39,2.59-.01,1.11-.02,2.22,0,3.33,0,.43-.09.61-.58.61-1.49,0-2.99-.01-4.49-.01s-3,0-4.5.01c-.48,0-.59-.17-.59-.61.02-1.14.01-2.29,0-3.44-.02-1.08-.52-1.89-1.53-2.3-.31-.13-.62-.19-.92-.19-1.25,0-2.32,1.04-2.36,2.52-.03,1.17-.02,2.33,0,3.5,0,.37-.1.52-.5.52-1.52,0-3.05,0-4.58,0s-3.05,0-4.58,0c-.39,0-.5-.14-.5-.52,0-1.11,0-2.22,0-3.33C14.45,1.13,13.43,0,12.03,0c0,0-.01,0-.02,0-1.1,0-2.44.92-2.38,2.64.04,1.07-.01,2.15.02,3.22,0,.47-.11.67-.58.67-.02,0-.05,0-.07,0-.47-.01-.95-.02-1.43-.02-.58,0-1.16,0-1.73.02-.44,0-.89.02-1.32.11C1.88,7.19,0,9.62,0,12.51c.04,15.01.02,30.02.02,45.03,0,.48.02.97.12,1.43.63,2.79,2.85,4.54,5.72,4.54h28.59v.02h28.71s.04,0,.06,0c1.24,0,2.38-.31,3.38-1.05,1.7-1.25,2.41-2.95,2.41-5.04V12.63c0-.26,0-.52-.02-.78-.14-2.82-2.5-5.18-5.32-5.28-.57-.02-1.14-.03-1.72-.03s-1.15,0-1.72,0-.86-.29-.86-.88v-3.28c0-.67-.27-1.23-.74-1.68C58.15.24,57.61,0,57.03,0h0Z"/>
  <path d="m44.18,34.27h0c.14,0,.29.03.45.08.61.2.91.58.99,1.25.03.29.01.75-.56,1.32l-3,3.01-3,3.01c-.51.52-1.03,1.03-1.55,1.54-1.17,1.16-2.38,2.37-3.54,3.6-.33.35-.75.54-1.18.54s-.87-.2-1.2-.57c-1.2-1.3-2.46-2.59-3.67-3.83-.53-.54-1.05-1.08-1.57-1.62-.61-.63-.63-1.51-.06-2.09.29-.29.62-.45.97-.45.37,0,.74.17,1.07.5.71.7,1.41,1.42,2.11,2.13.42.43.85.86,1.28,1.3.09.09.18.17.26.25.05.04.09.08.12.11.19.19.45.29.7.29s.5-.09.69-.28c.49-.48.98-.94,1.47-1.4.94-.89,1.82-1.74,2.71-2.62,1.85-1.84,3.69-3.72,5.47-5.54.35-.36.7-.53,1.04-.53m0-1c-.66,0-1.24.31-1.76.83-1.81,1.85-3.62,3.7-5.46,5.53-1.35,1.34-2.74,2.64-4.17,4.02-.09-.09-.24-.22-.37-.36-1.13-1.14-2.25-2.3-3.39-3.43-.54-.53-1.16-.79-1.77-.79s-1.19.25-1.68.74c-.95.97-.93,2.47.05,3.49,1.75,1.81,3.53,3.59,5.23,5.43.55.6,1.24.89,1.94.89s1.38-.29,1.91-.86c1.65-1.75,3.38-3.42,5.07-5.12,2-2.01,3.99-4.01,5.99-6.02.59-.59.94-1.29.84-2.14-.12-1.03-.67-1.75-1.67-2.08-.27-.09-.52-.13-.76-.13h0Z"/>
  <path d="m62.36,13.26v6.04H6.65v-6.04h55.71m1-1H5.65v8.04h57.71v-8.04h0Z"/>
</svg>