<svg xmlns="http://www.w3.org/2000/svg" width="100.534" height="81.58" viewBox="0 0 100.534 81.58">
  <g id="Group_566" data-name="Group 566" transform="translate(-988.231 174.912)">
    <path id="Path_2863" data-name="Path 2863" d="M185.079,78.343c-2.976,6.866-12.39,6.262-18.688,3.889a6.729,6.729,0,0,1-3.8,1.857c-8.022,1.075-19.41-3.809-27.46-7.705h0c-8.051,3.9-19.439,8.781-27.46,7.705a6.729,6.729,0,0,1-3.8-1.857c-6.3,2.372-15.712,2.976-18.688-3.889-1.79-5.767,4.383-9.855,8.928-11.594a32.964,32.964,0,0,1,13.561-1.775l.28.022c.015,0,.03.008.044,0a.393.393,0,0,0,.1.008h.007a.743.743,0,0,1,.133.015,63.265,63.265,0,0,1,14.253,2.99c3.359-2.335,6.667-4.751,9.929-7.2-1.8-1.3-3.668-2.563-5.569-3.764a22.436,22.436,0,0,1-4.633,3.617A23.9,23.9,0,0,1,108.3,64.1a.574.574,0,0,1-.11-.015h-.015a.742.742,0,0,1-.133-.015h-.007c-.1-.008-.2-.015-.3-.03a14.229,14.229,0,0,1-8.758-4.324,7.112,7.112,0,0,1-1.606-3.167c-1.053-6.254,6.313-9.547,11.506-9.362,5.583.015,11.815,2.88,17.5,6.334a76.847,76.847,0,0,0,7.16-10.209c.361-.6.73-1.216,1.091-1.82.059-.1.118-.206.184-.309a.165.165,0,0,0,.007-.029.149.149,0,0,0-.007-.037l-.015-.015q-.133-.2-.287-.42c-.81-1.186-1.893-2.85-2.062-3.115-.022-.022-.022-.044-.015-.081a72.629,72.629,0,0,0,1.245-11.027,22.322,22.322,0,0,0-.773-6.909,15.022,15.022,0,0,0-1.186-2.9h.007a12.073,12.073,0,0,0-5.562-5.215,4.573,4.573,0,0,0-.545-.258h-.008a11.1,11.1,0,0,0-.876-1.091.565.565,0,0,0-.066-.066,14.136,14.136,0,0,1,8.744,6.3l-.015.007h-.008a12.173,12.173,0,0,1,1.68,4.928.061.061,0,0,0,.059.052h0a.061.061,0,0,0,.059-.052,12.173,12.173,0,0,1,1.68-4.928h-.008l-.015-.007a14.136,14.136,0,0,1,8.744-6.3.565.565,0,0,0-.066.066,11.018,11.018,0,0,0-.876,1.091h-.008a4.569,4.569,0,0,0-.545.258,12.072,12.072,0,0,0-5.562,5.215h.007a15.021,15.021,0,0,0-1.186,2.9,22.32,22.32,0,0,0-.773,6.909,72.541,72.541,0,0,0,1.245,11.027c.007.037.007.059-.015.081-.169.265-1.252,1.929-2.062,3.115q-.155.221-.288.42l-.015.015a.148.148,0,0,0-.007.037.165.165,0,0,0,.007.029c.066.1.125.206.184.309.361.6.73,1.216,1.091,1.82a76.849,76.849,0,0,0,7.16,10.209c5.687-3.454,11.918-6.32,17.5-6.334,5.193-.184,12.559,3.108,11.506,9.362a7.113,7.113,0,0,1-1.606,3.167,14.229,14.229,0,0,1-8.758,4.324c-.1.015-.2.022-.3.03h-.007a.741.741,0,0,1-.133.015h-.015a.574.574,0,0,1-.11.015,23.9,23.9,0,0,1-13.907-3.44,22.436,22.436,0,0,1-4.633-3.617c-1.9,1.2-3.764,2.46-5.569,3.764,3.263,2.446,6.57,4.862,9.929,7.2a63.265,63.265,0,0,1,14.253-2.99.743.743,0,0,1,.133-.015h.007a.393.393,0,0,0,.1-.008c.015.008.029,0,.044,0l.28-.022a32.965,32.965,0,0,1,13.561,1.775c4.545,1.738,10.718,5.827,8.928,11.594M145.809,55.589a21.852,21.852,0,0,0,13.952,5.849c3.418.11,7.182-.935,9.451-3.484A3.621,3.621,0,0,0,169.985,54a6.559,6.559,0,0,0-3.5-3.1c-6.946-2.873-14.474,1.112-20.6,4.641a.466.466,0,0,0-.081.052m-21.362,0a.465.465,0,0,0-.081-.052c-6.121-3.528-13.65-7.514-20.6-4.641a6.559,6.559,0,0,0-3.5,3.1,3.621,3.621,0,0,0,.773,3.955c2.269,2.549,6.033,3.595,9.451,3.484a21.852,21.852,0,0,0,13.952-5.849m10.68,3.86h0c1.959-1.429,4.125-2.961,6.416-4.449-.759-.891-1.466-1.8-2.144-2.725-1.518-2.062-2.932-4.17-4.272-6.328h0c-1.34,2.158-2.754,4.265-4.272,6.328-.678.921-1.385,1.834-2.144,2.725,2.291,1.488,4.456,3.02,6.416,4.449M110.886,75.566c2.961-1.783,5.878-3.669,8.758-5.613-8.213-2.475-16.964-3.366-24.559-.655-3.978,1.348-10.828,6.254-5.694,10.209,3.558,2.38,8.382,1.82,12.345.582a48.871,48.871,0,0,0,9.149-4.523m21.207-.574a79.26,79.26,0,0,0-9.178-3.948,139.343,139.343,0,0,1-16.927,10.276c-.309.155-.633.309-.972.449,5.112,3.551,17.075-2.048,22.084-4.272,1.679-.789,3.359-1.628,4.994-2.5m3.036-1.488a72.109,72.109,0,0,1,9.487-4.368c-3.2-2.283-6.35-4.626-9.487-6.976h0c-3.138,2.35-6.291,4.692-9.487,6.976a72.108,72.108,0,0,1,9.487,4.368Zm30.112,8.264c-.339-.14-.663-.294-.972-.449a139.345,139.345,0,0,1-16.927-10.276,79.262,79.262,0,0,0-9.178,3.948c1.635.876,3.315,1.716,4.994,2.5,5.009,2.224,16.972,7.823,22.084,4.272m9.929-12.47c-7.594-2.711-16.345-1.82-24.559.655,2.88,1.945,5.8,3.83,8.758,5.613a48.87,48.87,0,0,0,9.149,4.523c3.963,1.238,8.788,1.8,12.345-.582,5.135-3.955-1.716-8.861-5.694-10.209M133.93,80.574l-2.68.389,1.939,1.891-.458,2.669,2.4-1.26,2.4,1.26-.458-2.669,1.939-1.891-2.68-.389-1.2-2.429Z" transform="translate(903.37 -178.855)" fill="#d6b182"/>
    <path id="Path_2864" data-name="Path 2864" d="M163.611,3.214c0-1.944,1.124-3.153,2.449-3.211V0h.1V0c1.325.058,2.449,1.267,2.449,3.211,0,1.923-1.512,3.861-2.449,3.994v.008l-.05,0-.05,0V7.207c-.937-.133-2.449-2.071-2.449-3.994" transform="translate(872.387 -174.912)" fill="#d6b182"/>
    <path id="Path_2865" data-name="Path 2865" d="M135.382,6.883a28.043,28.043,0,0,0,3.793.538,11.386,11.386,0,0,0-1.134-.95c-.317-.037-.633-.081-.921-.125a13.353,13.353,0,0,1-2.7-.766c-1.031-.472-1.193-1.378-.361-1.459,1.5-.14,3.7,1.054,5.363,2.526.243.214.479.435.7.663.066.074.14.147.2.229,1.392,1.643,2.7,5.244,3.2,7.889.015.081.03.155.044.229a41.49,41.49,0,0,1,.634,10.659c-.074,1.9-.177,2.217-.243,4.117a7.661,7.661,0,0,0,.479,3.278,4.732,4.732,0,0,0,2.637,2.637,5.22,5.22,0,0,0,1.893.4.107.107,0,0,0,.118-.1.125.125,0,0,0-.081-.118A1.887,1.887,0,0,1,147.7,35.11a7,7,0,0,1-.309-2.38c.118-3.86.324-5.959.206-9.731a42.18,42.18,0,0,0-1.37-8.957,15.76,15.76,0,0,0-2.939-5.819,15.21,15.21,0,0,0-8-5.075c-2.394-.295-2.843,1.193-2.563,1.959.229.634.81,1.3,2.659,1.775" transform="translate(884.569 -176.136)" fill="#d6b182"/>
    <path id="Path_2866" data-name="Path 2866" d="M192.079,5.107c.28-.766-.169-2.254-2.563-1.959a15.2,15.2,0,0,0-8,5.075,15.752,15.752,0,0,0-2.939,5.819A42.176,42.176,0,0,0,177.207,23c-.118,3.771.089,5.87.206,9.731a6.992,6.992,0,0,1-.309,2.379,1.887,1.887,0,0,1-1.311,1.422.124.124,0,0,0-.081.118.106.106,0,0,0,.118.1,5.2,5.2,0,0,0,1.893-.4,4.733,4.733,0,0,0,2.637-2.637,7.662,7.662,0,0,0,.479-3.278c-.066-1.9-.169-2.217-.243-4.118a41.462,41.462,0,0,1,.633-10.659c.015-.073.03-.147.044-.228.5-2.645,1.812-6.246,3.2-7.89.059-.081.133-.154.2-.228.221-.228.457-.449.7-.663,1.664-1.473,3.86-2.666,5.363-2.526.832.081.67.987-.361,1.458a13.3,13.3,0,0,1-2.7.766c-.288.044-.6.089-.921.126a11.293,11.293,0,0,0-1.134.95,28.047,28.047,0,0,0,3.793-.537c1.849-.471,2.431-1.142,2.659-1.775" transform="translate(867.627 -176.136)" fill="#d6b182"/>
  </g>
</svg>
