<?xml version="1.0" encoding="UTF-8"?>
<svg id="Layer_1" data-name="Layer 1" xmlns="http://www.w3.org/2000/svg" viewBox="0 0 69 67.96">
  <path d="m67.99,19.69c0,10.33,0,20.66,0,31.02-5.92,2.93-11.85,5.87-17.77,8.81l-8.93,4.43c-1.62.81-3.24,1.62-4.86,2.42v-31.02c6.41-3.17,12.82-6.35,19.23-9.53l4.85-2.41c2.5-1.24,4.99-2.49,7.49-3.73m-31.55,15.54h0,0m32.52-17.14c-.23.12-.4.19-.56.27-2.78,1.39-5.56,2.78-8.34,4.16-8.04,3.99-16.09,7.99-24.14,11.97-.4.19-.49.43-.49.84v32.63c.27-.13.47-.21.66-.3,1.89-.93,3.77-1.87,5.65-2.81,8.93-4.43,17.86-8.87,26.79-13.29.34-.17.47-.38.47-.77-.01-10.7-.01-21.41-.01-32.12,0-.18-.02-.35-.03-.58h0Zm-33.53,49.87s0,0-.01,0h.01Z"/>
  <path d="m1,19.66c.66.33,1.3.64,1.94.96,1.06.52,2.12,1.05,3.18,1.58,1.73.86,3.45,1.71,5.22,2.58,0,1.48,0,2.97,0,4.45,0,2.27,0,4.53-.01,6.8,0,.99.58,1.58,1.54,1.58h.06s.01,0,.01,0c.64-.01,1.27-.02,1.91-.02s1.27,0,1.91.02c.04,0,.12.04.14.06,1.04,1.01,2.09,2.05,3.1,3.05l1.06,1.06c.11.1.21.19.41.38l1.69,1.61v-13.12s.09.04.14.07c1.24.62,2.49,1.23,3.73,1.85,1.85.92,3.7,1.84,5.54,2.75,0,10.34,0,20.68,0,31.02-8.68-4.32-17.36-8.64-26.03-12.95-1.72-.86-3.52-1.75-5.52-2.72v-31.02M.02,18.05c0,.25-.02.4-.02.55v32.23c0,.36.12.54.41.67,1.89.92,3.78,1.85,5.66,2.79,8.76,4.35,17.52,8.71,26.28,13.07.37.18.75.35,1.2.57v-.62c0-10.69,0-21.38,0-32.07,0-.41-.14-.61-.5-.79-3.11-1.53-6.22-3.09-9.33-4.63-.49-.24-.98-.48-1.58-.77v12.39c-.21-.2-.32-.3-.43-.4-1.38-1.37-2.74-2.74-4.14-4.09-.2-.19-.54-.34-.82-.34-.64-.02-1.28-.02-1.93-.02s-1.29,0-1.93.02c-.02,0-.03,0-.05,0-.41,0-.54-.13-.54-.58.02-3.78.01-7.56.02-11.34,0-.39-.12-.6-.47-.77-2.83-1.39-5.65-2.8-8.48-4.2-1.08-.54-2.17-1.08-3.35-1.66h0Z"/>
  <path d="m55.66,11.52c3.36,1.65,6.77,3.34,10.07,4.98-.47.24-.94.47-1.4.7-2.93,1.45-5.85,2.9-8.77,4.36-2.92,1.45-5.84,2.9-8.77,4.35l-3.53,1.75c-2.92,1.45-5.85,2.91-8.75,4.33-2.32-1.14-4.62-2.29-6.93-3.43l-2.18-1.08,5.62-2.97c5.97-3.15,11.95-6.31,17.91-9.46l1.35-.71c1.75-.93,3.56-1.88,5.38-2.82m0-1.02c-.13,0-.27.03-.37.08-2.29,1.18-4.56,2.39-6.83,3.59-8.03,4.25-16.07,8.49-24.1,12.73-.35.18-.7.37-1.11.58h.01c.15.11.24.18.34.23,3.53,1.75,7.05,3.51,10.59,5.25.08.04.18.05.28.05.15,0,.3-.03.41-.08,4.12-2.03,8.23-4.08,12.34-6.12,5.85-2.9,11.69-5.81,17.54-8.71,1.02-.51,2.04-1.02,3.15-1.58-.25-.15-.42-.25-.59-.34-3.78-1.88-7.56-3.76-11.35-5.62-.09-.04-.2-.06-.31-.06h0Z"/>
  <path d="m34.5,1.01c3.03,1.49,6.09,3.01,9.08,4.5-6.9,3.65-13.81,7.29-20.73,10.94l-1.31.69c-2.74,1.45-5.49,2.9-8.24,4.33-3.27-1.61-6.53-3.23-9.79-4.85l-.22-.11c.23-.12.46-.23.7-.35C14.17,11.1,24.35,6.04,34.5,1.01m.04-1.01c-.16,0-.32.03-.44.09C23.91,5.14,13.73,10.2,3.55,15.26c-.79.39-1.57.79-2.45,1.23h-.02c.18.1.26.16.35.2,3.86,1.92,7.71,3.84,11.58,5.74.07.04.17.05.27.05.15,0,.3-.03.42-.09,3.21-1.67,6.42-3.37,9.62-5.06,7-3.69,14-7.38,21-11.08.45-.24.88-.49,1.39-.77-.18-.1-.26-.16-.34-.2-3.51-1.75-7.02-3.5-10.54-5.23-.08-.04-.18-.05-.29-.05h0Z"/>
</svg>