<?xml version="1.0" encoding="UTF-8"?>
<svg id="Layer_1" data-name="Layer 1" xmlns="http://www.w3.org/2000/svg" viewBox="0 0 70.72 61.26">
  <defs>
    <style>
      .cls-1 {
        fill: none;
      }
    </style>
  </defs>
  <path d="m34.61,35.91c2.07,3.05,4.77,5.78,8.02,8.12,1.69,1.22,3.55,2.43,5.67,3.7,1.24.75,2.53,1.13,3.84,1.13s2.57-.37,3.81-1.09c4.04-2.32,7.14-4.59,9.77-7.14.96-.94,1.85-1.91,2.65-2.91v18.53c0,1.5-.61,2.52-1.86,3.11-.46.21-1.06.34-1.67.36-1.13.02-2.38.03-3.92.03-.79,0-1.57,0-2.36,0-.79,0-1.58,0-2.37,0H5.12c-1.61,0-2.64-.6-3.24-1.89-.23-.49-.36-1.1-.36-1.67-.02-5.54-.02-11.18-.02-16.64v-3.65h33.11m-23.17,12.91h8.27c.95,0,1.82-.34,2.44-.96.58-.58.89-1.37.88-2.22-.01-1.78-1.44-3.12-3.31-3.12h-8.27c-.96,0-1.82.34-2.44.97-.58.58-.89,1.37-.89,2.21.01,1.78,1.44,3.12,3.32,3.12m57.78-13.91c-.1.14-.21.27-.31.42-1.13,1.67-2.44,3.19-3.88,4.59-2.86,2.78-6.12,5.01-9.57,6.99-1.1.63-2.21.95-3.31.95s-2.23-.33-3.33-.98c-1.91-1.15-3.79-2.36-5.6-3.66-3.05-2.19-5.71-4.8-7.82-7.93-.19-.3-.42-.38-.76-.38H.53c0,.2-.03.35-.03.49,0,6.93-.01,13.87.02,20.8,0,.7.16,1.45.45,2.08.81,1.73,2.27,2.47,4.15,2.47h51.09c1.58,0,3.15,0,4.72,0,1.31,0,2.62,0,3.94-.03.69-.02,1.44-.16,2.07-.45,1.66-.79,2.44-2.19,2.44-4.02v-20.84c0-.16-.02-.31-.02-.47h-.02s-.08-.03-.12-.04h0Zm-57.78,12.91c-1.33,0-2.31-.91-2.32-2.13-.01-1.24.97-2.17,2.33-2.17h8.27c1.34,0,2.3.9,2.31,2.13.01,1.25-.96,2.17-2.32,2.17h-8.27Z"/>
  <path d="m13.38,14.39h8.43s7.89,0,7.89,0c0,.32,0,.64-.01.96-.02,1.5-.04,3.05.05,4.58.08,1.51.27,3.02.46,4.47.04.29.07.57.11.86H1.53c0-.54,0-1.09-.01-1.63-.02-2.02-.04-4.11.05-6.15.08-1.84,1.44-3.08,3.38-3.09,2.81,0,5.62,0,8.43,0m0-1c-2.81,0-5.62,0-8.43,0-2.42.01-4.27,1.62-4.38,4.04-.13,2.91-.04,5.83-.04,8.75,0,0,.04.07.04.07h0s30.86,0,30.86,0c-.24-2.15-.57-4.26-.69-6.39-.12-2.14-.03-4.29-.03-6.48h-.46c-5.63,0-11.25,0-16.87,0h0Zm17.33,0h0,0Z"/>
  <path class="cls-1" d="m48.12,27.3c1,1.49,2.62,1.55,3.74.16.71-.87,1.41-1.76,2.11-2.63,2.07-2.58,4.13-5.17,6.2-7.75.47-.59.74-1.23.56-1.99-.2-.85-.74-1.4-1.59-1.62-.86-.22-1.59.05-2.15.71-.81.96-1.58,1.95-2.36,2.93-1.46,1.82-2.91,3.64-4.43,5.53-.15-.21-.26-.34-.35-.49-.76-1.14-1.51-2.29-2.28-3.41-.76-1.1-2.06-1.36-3.07-.65-1,.7-1.2,1.98-.48,3.07,1.36,2.05,2.72,4.1,4.1,6.14Z"/>
  <path d="m52.19,1.5c.23,0,.47.05.71.16,5.17,2.22,9.91,4.26,14.51,6.21.74.31,1.01.73.99,1.53-.03,1.12-.02,2.26,0,3.36,0,.55,0,1.1,0,1.65v1h.05c-.02.46-.03.91-.05,1.37-.06,1.81-.13,3.69-.29,5.51-.31,3.35-1.34,6.47-3.06,9.27-1.39,2.28-3.29,4.38-5.81,6.43-2.05,1.67-4.32,3.09-6.26,4.24-.3.18-.56.26-.81.26-.23,0-.46-.07-.72-.22-3.53-2.07-6.08-3.91-8.24-5.95-3.5-3.31-5.73-7.29-6.63-11.84-.42-2.13-.63-4.42-.64-7,0-1.33,0-2.67,0-4.01,0-1.34,0-2.68,0-4.01,0-.84.28-1.27,1.02-1.59,4.6-1.96,9.34-3.99,14.5-6.21.25-.11.49-.16.72-.16m-1.93,19.46l-.25-.38c-.54-.81-1.07-1.62-1.62-2.42-.65-.94-1.62-1.48-2.68-1.48-.63,0-1.25.2-1.79.58-1.46,1.02-1.77,2.89-.72,4.47,1.36,2.04,2.71,4.09,4.09,6.12.68,1.02,1.68,1.6,2.73,1.6.97,0,1.9-.49,2.61-1.37.44-.54.88-1.09,1.32-1.64.27-.33.53-.67.8-1,1.03-1.29,2.07-2.58,3.1-3.87,1.03-1.29,2.07-2.59,3.11-3.88.74-.93.98-1.86.75-2.84-.28-1.21-1.11-2.05-2.32-2.36-.28-.07-.55-.11-.82-.11-.9,0-1.71.39-2.34,1.14-.64.76-1.27,1.55-1.87,2.31l-.51.64-1.83,2.28c-.58.73-1.17,1.46-1.76,2.2M52.19.5c-.37,0-.74.08-1.11.24-4.83,2.08-9.66,4.15-14.5,6.21-1.13.48-1.63,1.29-1.63,2.51,0,2.67-.01,5.35,0,8.02,0,2.41.19,4.81.66,7.19.96,4.88,3.32,8.97,6.92,12.37,2.54,2.4,5.42,4.33,8.42,6.09.42.24.82.36,1.22.36.44,0,.87-.14,1.32-.4,2.21-1.32,4.38-2.7,6.38-4.33,2.36-1.92,4.44-4.08,6.03-6.68,1.83-2.98,2.88-6.24,3.2-9.7.24-2.64.27-5.3.39-7.95l.02-.02h-.11c0-1.66-.04-3.33,0-4.99.03-1.21-.49-2-1.6-2.47-4.84-2.06-9.67-4.13-14.5-6.21-.38-.16-.74-.24-1.11-.24h0Zm-1.99,22.14c1.52-1.89,2.97-3.71,4.43-5.53.78-.98,1.55-1.97,2.36-2.93.43-.51.96-.79,1.58-.79.18,0,.37.02.57.08.85.22,1.39.77,1.59,1.62.18.76-.09,1.4-.56,1.99-2.07,2.58-4.13,5.17-6.2,7.75-.7.87-1.4,1.76-2.11,2.63-.54.67-1.19,1-1.84,1-.7,0-1.38-.39-1.9-1.16-1.38-2.04-2.74-4.09-4.1-6.14-.72-1.09-.52-2.37.48-3.07.38-.27.8-.4,1.22-.4.69,0,1.38.36,1.85,1.05.77,1.12,1.52,2.27,2.28,3.41.09.15.2.28.35.49h0Zm19.31-8.23h0,0Z"/>
</svg>